<?xml version="1.0" encoding="utf-8"?>
<!-- Generator: Adobe Illustrator 21.1.0, SVG Export Plug-In . SVG Version: 6.00 Build 0)  -->
<svg version="1.1" id="圖層_1" xmlns="http://www.w3.org/2000/svg" xmlns:xlink="http://www.w3.org/1999/xlink" x="0px" y="0px"
	 viewBox="0 0 608 537" style="enable-background:new 0 0 608 537;" xml:space="preserve">
<style type="text/css">
	.st0{fill:#045EAC;}
	.st1{font-family:'微軟正黑體';font-weight:bold;}
	.st2{font-size:26px;}
	.st3{letter-spacing:3px;}
	.st4{font-size:18px;}
	.st5{letter-spacing:2px;}
	.st6{fill:none;stroke:#045EAC;stroke-width:1.5;stroke-miterlimit:10;}
	.st7{fill:none;stroke:#045EAC;stroke-width:2;stroke-miterlimit:10;}
	
</style>
<g>
	<g>
		<text transform="matrix(1 0 0 1 30.2261 83.8228)" class="st0 st1 st2 st3">新人訓練</text>
	</g>
	<g>
		<text transform="matrix(1 0 0 1 209.8584 65.3037)" class="st0 st1 st4 st5">企業文化</text>
	</g>
	<path class="st6" d="M278.3,76.4c0,23.6-19.4,43.1-43.1,43.1s-43.1-19.4-43.1-43.1s19.4-43.1,43.1-43.1c9.4,0,18.5,3.1,25.9,8.7"/>
	<path class="st7" d="M133.8,103c-13.3,33.5-51.9,50.1-85.4,36.8S-1.7,87.9,11.7,54.4S63.5,4.3,97.1,17.6
		c13.3,5.3,24.5,14.8,31.9,27"/>
	<g>
		<text transform="matrix(1 0 0 1 366.3423 65.3037)" class="st0 st1 st4 st5">環境／組織</text>
	</g>
	<path class="st6" d="M434.8,76.4c0,23.6-19.4,43.1-43.1,43.1c-23.6,0-43.1-19.4-43.1-43.1s19.4-43.1,43.1-43.1
		c9.4,0,18.5,3.1,25.9,8.7"/>
	<g>
		<text transform="matrix(1 0 0 1 522.8257 65.3037)"><tspan x="0" y="0" class="st0 st1 st4 st5">ISO</tspan><tspan x="35.7" y="0" class="st0 st1 st4 st5">精神</tspan></text>
	</g>
	<path class="st6" d="M591.3,76.4c0,23.6-19.4,43.1-43.1,43.1s-43.1-19.4-43.1-43.1s19.4-43.1,43.1-43.1c9.4,0,18.5,3.1,25.9,8.7"/>
</g>
<g>
	<g>
		<text transform="matrix(1 0 0 1 30.2261 274.103)" class="st0 st1 st2 st3">管理訓練</text>
	</g>
	<path class="st7" d="M133.8,293.3c-13.3,33.5-51.9,50.1-85.4,36.8s-50.1-51.9-36.8-85.4s51.9-50.1,85.4-36.8
		c13.3,5.3,24.5,14.8,31.9,27"/>
	<g>
		<text transform="matrix(1 0 0 1 209.8584 255.5845)" class="st0 st1 st4 st5">人員管理</text>
	</g>
	<path class="st6" d="M278.3,266.7c0,23.6-19.4,43.1-43.1,43.1s-43.1-19.4-43.1-43.1s19.4-43.1,43.1-43.1c9.4,0,18.5,3.1,25.9,8.7"
		/>
	<g>
		<text transform="matrix(1 0 0 1 366.3423 255.5845)" class="st0 st1 st4 st5">部門管理</text>
	</g>
	<path class="st6" d="M434.8,266.7c0,23.6-19.4,43.1-43.1,43.1c-23.6,0-43.1-19.4-43.1-43.1s19.4-43.1,43.1-43.1
		c9.4,0,18.5,3.1,25.9,8.7"/>
	<g>
		<text transform="matrix(1 0 0 1 522.8257 255.5845)" class="st0 st1 st4 st5">營運管理</text>
	</g>
	<path class="st6" d="M591.3,266.7c0,23.6-19.4,43.1-43.1,43.1s-43.1-19.4-43.1-43.1s19.4-43.1,43.1-43.1c9.4,0,18.5,3.1,25.9,8.7"
		/>
</g>
<g>
	<g>
		<text transform="matrix(1 0 0 1 30.2261 464.3838)" class="st0 st1 st2 st3">專業訓練</text>
	</g>
	<path class="st7" d="M133.8,483.6c-13.3,33.5-51.9,50.1-85.4,36.8C14.9,507-1.7,468.5,11.7,434.9s51.9-50.1,85.4-36.8
		c13.3,5.3,24.5,14.8,31.9,27"/>
	<g>
		<text transform="matrix(1 0 0 1 209.8584 445.8643)" class="st0 st1 st4 st5">生產／財務</text>
	</g>
	<path class="st6" d="M278.3,456.9c0,23.6-19.4,43.1-43.1,43.1s-43.1-19.4-43.1-43.1c0-23.6,19.4-43.1,43.1-43.1
		c9.4,0,18.5,3.1,25.9,8.7"/>
	<g>
		<text transform="matrix(1 0 0 1 366.3423 445.8643)" class="st0 st1 st4 st5">品管／研發</text>
	</g>
	<path class="st6" d="M434.8,456.9c0,23.6-19.4,43.1-43.1,43.1c-23.6,0-43.1-19.4-43.1-43.1c0-23.6,19.4-43.1,43.1-43.1
		c9.4,0,18.5,3.1,25.9,8.7"/>
	<g>
		<text transform="matrix(1 0 0 1 522.8257 445.8643)" class="st0 st1 st4 st5">人力資源</text>
	</g>
	<path class="st6" d="M591.3,456.9c0,23.6-19.4,43.1-43.1,43.1s-43.1-19.4-43.1-43.1c0-23.6,19.4-43.1,43.1-43.1
		c9.4,0,18.5,3.1,25.9,8.7"/>
</g>
</svg>
