<?xml version="1.0" encoding="utf-8"?>
<!-- Generator: Adobe Illustrator 21.1.0, SVG Export Plug-In . SVG Version: 6.00 Build 0)  -->
<svg version="1.1" id="圖層_1" xmlns="http://www.w3.org/2000/svg" xmlns:xlink="http://www.w3.org/1999/xlink" x="0px" y="0px"
	 viewBox="0 0 608 317" style="enable-background:new 0 0 608 317;" xml:space="preserve">
<style type="text/css">
	.st0{opacity:0.1;fill:#045EAC;}
	.st1{fill:#045EAC;}
	.st2{font-family:'微軟正黑體';font-weight:bold;}
	.st3{font-size:18px;glyph-orientation-vertical:0;writing-mode:tb;}
	.st4{letter-spacing:2px;}
	.st5{font-size:24px;}
	.st6{letter-spacing:5px;}
	.st7{fill:none;stroke:#045EAC;stroke-miterlimit:10;}
</style>
<g>
	<circle class="st0" cx="129.5" cy="133.5" r="116"/>
	<circle class="st0" cx="245.5" cy="133.5" r="116"/>
	<circle class="st0" cx="361.5" cy="133.5" r="116"/>
	<circle class="st0" cx="477.5" cy="133.5" r="116"/>
	<text transform="matrix(1 0 0 1 93 100)" class="st1 st2 st3 st4">新進訓練</text>
	<text transform="matrix(1 0 0 1 185 100)" class="st1 st2 st3 st4">專業訓練</text>
	<text transform="matrix(1 0 0 1 304 100)" class="st1 st2 st3 st4">外訊系統</text>
	<text transform="matrix(1 0 0 1 420 100)" class="st1 st2 st3 st4">管理才能</text>
	<text transform="matrix(1 0 0 1 534 100)" class="st1 st2 st3 st4">自我發展</text>
	<text transform="matrix(1 0 0 1 222.4199 295)" class="st1 st2 st5 st6">訓練發展體系</text>
	<circle class="st7" cx="130" cy="134" r="116"/>
	<circle class="st7" cx="246.5" cy="134.5" r="116"/>
	<circle class="st7" cx="361.5" cy="134.5" r="116"/>
	<circle class="st7" cx="478.5" cy="134.5" r="116"/>
	<line class="st7" x1="204.5" y1="286" x2="204.5" y2="307"/>
	<line class="st7" x1="400.5" y1="286" x2="400.5" y2="307"/>
	<line class="st7" x1="204.5" y1="306.5" x2="400.5" y2="306.5"/>
</g>
</svg>
