<?xml version="1.0" encoding="utf-8"?>
<!-- Generator: Adobe Illustrator 21.1.0, SVG Export Plug-In . SVG Version: 6.00 Build 0)  -->
<svg version="1.1" id="圖層_1" xmlns="http://www.w3.org/2000/svg" xmlns:xlink="http://www.w3.org/1999/xlink" x="0px" y="0px"
	 viewBox="0 0 485 477" style="enable-background:new 0 0 485 477;" xml:space="preserve">
<style type="text/css">
	.st0{fill:#FB8B00;}
	.st1{font-family:'微軟正黑體';font-weight:bold;}
	.st2{font-size:28px;}
	.st3{letter-spacing:3px;}
	.st4{font-size:20px;}
	.st5{letter-spacing:2px;}
	.st6{fill:#045EAC;}
	.st7{font-size:28px;}
	.st8{letter-spacing:5px;}
	.st9{fill:#434343;}
	.st10{fill:none;stroke:#434343;stroke-miterlimit:10;}
	.st11{fill:none;stroke:#434343;stroke-miterlimit:10;stroke-dasharray:2.886,2.886,2.886,2.886;}
	.st12{fill:none;stroke:#434343;stroke-miterlimit:10;stroke-dasharray:2.886,2.886,2.886,2.886,2.886,2.886;}
	.st13{fill:none;stroke:#434343;stroke-miterlimit:10;stroke-dasharray:3.8318,3.8318,3.8318,3.8318;}
	.st14{fill:none;stroke:#434343;stroke-miterlimit:10;stroke-dasharray:3.8318,3.8318,3.8318,3.8318,3.8318,3.8318;}
</style>
<text transform="matrix(1 0 0 1 140.8499 452.2542)"><tspan x="0" y="0" class="st0 st1 st2 st3">符合</tspan><tspan x="63.8" y="0" class="st0 st1 st4 st5">進入第三階段</tspan></text>
<g>
	<g>
		<g>
			<text transform="matrix(1 0 0 1 94.8494 49.1667)" class="st6 st1 st7 st8">第二階段</text>
		</g>
	</g>
	<g>
		<text transform="matrix(1 0 0 1 214.8499 367.2542)"><tspan x="0" y="0" class="st9 st1 st2 st3">人才資料庫</tspan><tspan x="159.6" y="0" class="st9 st1 st4 st5">資料建檔</tspan></text>
	</g>
	<g>
		<text transform="matrix(1 0 0 1 140.8499 132.2542)" class="st9 st1 st2 st3">安排面試</text>
	</g>
	<g>
		<text transform="matrix(1 0 0 1 140.8499 267.2542)" class="st9 st1 st2 st3">初試</text>
	</g>
	<g>
		<text transform="matrix(1 0 0 1 214.8499 330.2542)"><tspan x="0" y="0" class="st9 st1 st2 st3">不符合</tspan><tspan x="95.8" y="0" class="st9 st1 st4 st5">感謝回函</tspan></text>
	</g>
</g>
<rect x="105.1" y="115.3" class="st9" width="12" height="12"/>
<rect x="104.8" y="250.3" class="st9" width="12" height="12"/>
<line class="st10" x1="111.1" y1="121.8" x2="111.1" y2="256.8"/>
<line class="st10" x1="111.1" y1="256.8" x2="111.4" y2="442.8"/>
<circle class="st9" cx="110.8" cy="321.3" r="6"/>
<line class="st10" x1="110.8" y1="321.3" x2="204.8" y2="321.3"/>
<rect x="104.8" y="435.3" class="st0" width="12" height="12"/>
<g>
	<g>
		<path class="st6" d="M66.1,32.9c1.6-1.1,2.6-2.9,2.6-4.9v-2.2v-2.2c0-3.3-2.7-6-6-6c-3.3,0-6,2.7-6,6v2.2v2.2c0,2,1,3.9,2.6,4.9
			c-2.6,0.8-4.9,2.5-6.4,4.7v-1.3c0-3.3-2.7-6-6-6c-3.3,0-6,2.7-6,6v1.3c-1.5-2.2-3.8-3.9-6.4-4.7c1.6-1.1,2.6-2.9,2.6-4.9v-4.5
			c0-3.3-2.7-6-6-6c-3,0-5.5,2.2-5.9,5.1c0,0.3-0.1,0.6-0.1,0.9v4.5c0,2,1,3.9,2.6,4.9c-4.7,1.5-8.3,5.9-8.3,10.8v3.5
			c0,0.4,0.4,0.8,0.8,0.8h4.4c0.4,0,0.8-0.4,0.8-0.8c0-0.4-0.4-0.8-0.8-0.8H21v-2.7c0-2.5,1.1-4.9,3-6.8c1.1-1.1,2.5-1.9,4-2.4
			l1,1.9l-1.4,6c-0.1,0.3,0,0.6,0.2,0.8l2.7,2.5c0.2,0.1,0.3,0.2,0.5,0.2s0.4-0.1,0.5-0.2l2.7-2.5c0.2-0.2,0.3-0.5,0.2-0.8l-1.4-6
			l1-1.9c1.5,0.5,2.9,1.3,4,2.4c1.4,1.4,2.4,3,2.8,4.8c0,0.2,0.1,0.3,0.1,0.5c0.1,0.5,0.1,1,0.1,1.5v2.7h-14c-0.4,0-0.8,0.4-0.8,0.8
			c0,0.4,0.4,0.8,0.8,0.8h12.1c-2.5,2.1-4.2,5.2-4.2,8.5V60c0,0.4,0.4,0.8,0.8,0.8h4.4c0.4,0,0.8-0.4,0.8-0.8c0-0.4-0.4-0.8-0.8-0.8
			h-3.6v-2.7c0-2.5,1.1-4.9,3-6.8c1.1-1.1,2.5-1.9,4-2.4l1,1.9l-1.4,6c-0.1,0.3,0,0.6,0.2,0.8l2.7,2.5c0.2,0.1,0.3,0.2,0.5,0.2
			c0.2,0,0.4-0.1,0.5-0.2l2.7-2.5c0.2-0.2,0.3-0.5,0.2-0.8l-1.4-6l1-1.9c1.5,0.5,2.9,1.3,4,2.4c2,1.9,3,4.3,3,6.8v2.7H43
			c-0.4,0-0.8,0.4-0.8,0.8c0,0.4,0.4,0.8,0.8,0.8h14.8c0.4,0,0.8-0.4,0.8-0.8v-3.5c0-3.3-1.6-6.4-4.2-8.5h4.1c0.4,0,0.8-0.4,0.8-0.8
			c0-0.4-0.4-0.8-0.8-0.8h-5.9v-2.7c0-0.5,0-1,0.1-1.5c0-0.2,0.1-0.3,0.1-0.5c0.4-1.8,1.4-3.5,2.8-4.8c1.1-1.1,2.5-1.9,4-2.4l1,1.9
			l-1.4,6c-0.1,0.3,0,0.6,0.2,0.8l2.7,2.5c0.2,0.1,0.3,0.2,0.5,0.2s0.4-0.1,0.5-0.2l2.7-2.5c0.2-0.2,0.3-0.5,0.2-0.8l-1.4-6l1-1.9
			c1.5,0.5,2.9,1.3,4,2.4c2,1.9,3,4.3,3,6.8v2.7H61.2c-0.4,0-0.8,0.4-0.8,0.8c0,0.4,0.4,0.8,0.8,0.8h12.4c0.4,0,0.8-0.4,0.8-0.8
			v-3.5C74.3,38.7,70.8,34.4,66.1,32.9z M26.6,23.4c0-2.4,2-4.4,4.4-4.4s4.4,2,4.4,4.4v1.3c-1.9-0.5-2.6-2.4-2.7-2.5
			c-0.1-0.3-0.4-0.5-0.7-0.5c-0.3,0-0.6,0.1-0.8,0.4c0,0-1.3,2.3-4.7,2.6V23.4z M31,43.9l-1.8-1.7l1.2-5.2h1.2l1.2,5.2L31,43.9z
			 M29.6,34c0.2,0,0.3,0,0.5-0.1c0,0,0,0,0.1,0c0.1,0,0.2,0,0.4,0c0,0,0.1,0,0.1,0c0.1,0,0.2,0,0.3,0c0,0,0.1,0,0.1,0
			c0,0,0.1,0,0.1,0c0.1,0,0.2,0,0.3,0c0,0,0.1,0,0.1,0c0.1,0,0.2,0,0.4,0c0,0,0,0,0.1,0c0.2,0,0.3,0,0.5,0.1l-0.7,1.4h-1.5L29.6,34z
			 M31.2,32.3c-0.1,0-0.1,0-0.2,0c0,0,0,0,0,0h0c-0.1,0-0.1,0-0.2,0c-2.3-0.1-4.2-2-4.2-4.4v-1.5c2.7-0.2,4.4-1.5,5.3-2.4
			c0.6,0.9,1.7,2.1,3.5,2.4v1.5C35.5,30.3,33.6,32.2,31.2,32.3z M42.4,36.3L42.4,36.3c0-2.4,2-4.4,4.4-4.4c0.5,0,0.9,0.1,1.3,0.2
			c1.8,0.6,3.1,2.2,3.1,4.2v1.3c-1.9-0.5-2.6-2.4-2.7-2.5c-0.1-0.3-0.4-0.5-0.7-0.5c-0.3,0-0.6,0.1-0.8,0.4c0,0-1.3,2.3-4.7,2.6
			L42.4,36.3L42.4,36.3z M42.7,45.9v-0.8c0.2,0.2,0.5,0.4,0.7,0.6C43.2,45.8,43,45.8,42.7,45.9z M46.8,56.7L45,55l1.2-5.2h1.2
			l1.2,5.2L46.8,56.7z M45.4,46.9c0.2,0,0.3,0,0.5-0.1c0,0,0,0,0.1,0c0.1,0,0.2,0,0.4,0c0,0,0.1,0,0.1,0c0.1,0,0.2,0,0.3,0
			c0,0,0.1,0,0.1,0c0,0,0.1,0,0.1,0c0.1,0,0.2,0,0.3,0c0,0,0.1,0,0.1,0c0.1,0,0.2,0,0.4,0c0,0,0,0,0.1,0c0.2,0,0.3,0,0.5,0.1
			l-0.7,1.4h-1.5L45.4,46.9z M51,45.9c-0.2-0.1-0.5-0.2-0.7-0.2c0.2-0.2,0.5-0.4,0.7-0.6V45.9z M51.3,40.7c0,0.2,0,0.4-0.1,0.7
			c0,0.1-0.1,0.3-0.1,0.4c-0.5,1.9-2.1,3.3-4.1,3.4c-0.1,0-0.1,0-0.2,0c0,0,0,0,0,0c-0.1,0-0.1,0-0.2,0c-2-0.1-3.6-1.5-4.1-3.4
			c0-0.1,0-0.3-0.1-0.4c0-0.2-0.1-0.4-0.1-0.7v-1.5c2.7-0.2,4.4-1.5,5.3-2.4c0.6,0.9,1.7,2.1,3.5,2.4L51.3,40.7L51.3,40.7z
			 M58.2,23.4c0-2.4,2-4.4,4.4-4.4c2.4,0,4.4,2,4.4,4.4v1.3c-1.9-0.5-2.6-2.4-2.7-2.5c-0.1-0.3-0.4-0.5-0.7-0.5
			c-0.3,0-0.6,0.1-0.8,0.4c0,0-1.3,2.3-4.7,2.6L58.2,23.4L58.2,23.4z M62.7,43.9l-1.8-1.7L62,37h1.2l1.2,5.2L62.7,43.9z M61.2,34
			c0.2,0,0.3,0,0.5-0.1c0,0,0,0,0.1,0c0.1,0,0.2,0,0.4,0c0,0,0.1,0,0.1,0c0.1,0,0.2,0,0.3,0c0,0,0.1,0,0.1,0s0.1,0,0.1,0
			c0.1,0,0.2,0,0.3,0c0,0,0.1,0,0.1,0c0.1,0,0.2,0,0.4,0c0,0,0,0,0.1,0c0.2,0,0.3,0,0.5,0.1l-0.7,1.4h-1.5L61.2,34z M62.8,32.3
			c-0.1,0-0.1,0-0.2,0c0,0,0,0,0,0h0c-0.1,0-0.1,0-0.2,0c-2.3-0.1-4.2-2-4.2-4.4v-1.5c2.7-0.2,4.4-1.5,5.3-2.4
			c0.6,0.9,1.7,2.1,3.5,2.4v1.5C67.1,30.3,65.2,32.2,62.8,32.3z"/>
	</g>
</g>
<g>
	<g>
		<line class="st10" x1="157.8" y1="321.3" x2="157.8" y2="323.8"/>
		<line class="st11" x1="157.8" y1="326.6" x2="157.8" y2="336.7"/>
		<line class="st12" x1="157.8" y1="338.2" x2="157.8" y2="354.1"/>
		<polyline class="st10" points="157.8,355.5 157.8,358 160.3,358 		"/>
		<line class="st13" x1="164.2" y1="358" x2="177.6" y2="358"/>
		<line class="st14" x1="179.5" y1="358" x2="200.6" y2="358"/>
		<line class="st10" x1="202.5" y1="358" x2="205" y2="358"/>
	</g>
</g>
</svg>
