<?xml version="1.0" encoding="utf-8"?>
<!-- Generator: Adobe Illustrator 21.1.0, SVG Export Plug-In . SVG Version: 6.00 Build 0)  -->
<svg version="1.1" id="圖層_1" xmlns="http://www.w3.org/2000/svg" xmlns:xlink="http://www.w3.org/1999/xlink" x="0px" y="0px"
	 viewBox="0 0 485 477" style="enable-background:new 0 0 485 477;" xml:space="preserve">
<style type="text/css">
	.st0{fill:#045EAC;}
	.st1{font-family:'微軟正黑體';font-weight:bold;}
	.st2{font-size:28px;}
	.st3{letter-spacing:5px;}
	.st4{fill:#434343;}
	.st5{font-size:28px;}
	.st6{letter-spacing:3px;}
	.st7{font-size:20px;}
	.st8{letter-spacing:2px;}
	.st9{fill:#FB8B00;}
	.st10{fill:none;stroke:#434343;stroke-miterlimit:10;}
	.st11{fill:#FFFFFF;}
	.st12{fill:none;stroke:#434343;stroke-miterlimit:10;}
	.st13{fill:none;stroke:#434343;stroke-miterlimit:10;stroke-dasharray:3.0072,3.0072,3.0072,3.0072;}
	.st14{fill:none;stroke:#434343;stroke-miterlimit:10;stroke-dasharray:3.0072,3.0072,3.0072,3.0072,3.0072,3.0072;}
	.st15{fill:none;stroke:#434343;stroke-miterlimit:10;stroke-dasharray:3.7727,3.7727,3.7727,3.7727;}
	.st16{fill:none;stroke:#434343;stroke-miterlimit:10;stroke-dasharray:3.7727,3.7727,3.7727,3.7727,3.7727,3.7727;}
</style>
<g>
	<g>
		<g>
			<text transform="matrix(1 0 0 1 88.9995 56.3337)" class="st0 st1 st2 st3">第一階段</text>
		</g>
	</g>
	<g>
		<text transform="matrix(1 0 0 1 132 139.4211)" class="st4 st1 st5 st6">履歷投遞</text>
	</g>
	<g>
		<text transform="matrix(1 0 0 1 132 274.4211)" class="st4 st1 st5 st6">篩選</text>
	</g>
	<g>
		<text transform="matrix(1 0 0 1 206 374.4211)"><tspan x="0" y="0" class="st4 st1 st5 st6">人才資料庫</tspan><tspan x="159.6" y="0" class="st4 st1 st7 st8">資料建檔</tspan></text>
	</g>
	<text transform="matrix(1 0 0 1 132 459.4212)"><tspan x="0" y="0" class="st9 st1 st5 st6">符合</tspan><tspan x="63.8" y="0" class="st9 st1 st7 st8">進入第二階段</tspan></text>
	<g>
		<text transform="matrix(1 0 0 1 206 337.4211)"><tspan x="0" y="0" class="st4 st1 st5 st6">不符合</tspan><tspan x="95.8" y="0" class="st4 st1 st7 st8">感謝回函</tspan></text>
	</g>
</g>
<rect x="96.3" y="122.4" class="st4" width="12" height="12"/>
<rect x="96" y="257.4" class="st4" width="12" height="12"/>
<line class="st10" x1="102.3" y1="128.9" x2="102.3" y2="263.9"/>
<line class="st10" x1="102.3" y1="263.9" x2="102.5" y2="448.9"/>
<circle class="st4" cx="102" cy="328.4" r="6"/>
<line class="st10" x1="102" y1="328.4" x2="196" y2="328.4"/>
<rect x="96" y="442.4" class="st9" width="12" height="12"/>
<g>
	<g>
		<g>
			<path class="st0" d="M72.9,47.1l-5.7-15.4c-0.2-0.6-0.6-1-1.2-1.3c-0.5-0.2-1.2-0.3-1.7-0.1L36.5,40.7c-0.6,0.2-1,0.6-1.3,1.2
				c-0.2,0.5-0.3,1.2-0.1,1.7L40.8,59c0.2,0.6,0.6,1,1.2,1.3c0.3,0.1,0.6,0.2,0.9,0.2c0.3,0,0.5,0,0.8-0.1L71.5,50h0
				C72.7,49.6,73.3,48.3,72.9,47.1z M62.8,33.3l-8.6,12.3l-14.6-3.8L62.8,33.3z M42.5,57.1l-4.9-13.4L49,46.7L42.5,57.1z M45,57.4
				l6.4-10.2l3,0.8c0.1,0,0.2,0,0.3,0c0.4,0,0.7-0.2,0.9-0.5l1.8-2.5l11.5,3.6L45,57.4z M58.6,43.1l6.8-9.7l5,13.4L58.6,43.1z"/>
		</g>
	</g>
	<g>
		<g>
			<path class="st0" d="M36,59.3c-0.2-0.6-0.9-0.9-1.4-0.7l-4.2,1.6c-0.6,0.2-0.9,0.9-0.7,1.4c0.2,0.5,0.6,0.7,1,0.7
				c0.1,0,0.3,0,0.4-0.1l4.2-1.6C35.9,60.5,36.2,59.8,36,59.3z"/>
		</g>
	</g>
	<g>
		<g>
			<path class="st0" d="M30.3,48.9c-0.2-0.6-0.9-0.9-1.4-0.7l-2.6,1c-0.6,0.2-0.9,0.9-0.7,1.4c0.2,0.5,0.6,0.7,1,0.7
				c0.1,0,0.3,0,0.4-0.1l2.6-1C30.2,50.1,30.5,49.5,30.3,48.9z"/>
		</g>
	</g>
	<g>
		<g>
			<path class="st0" d="M27.1,57.3c-0.2-0.6-0.9-0.9-1.4-0.7l-1.9,0.7c-0.6,0.2-0.9,0.9-0.7,1.4c0.2,0.5,0.6,0.7,1,0.7
				c0.1,0,0.3,0,0.4-0.1l1.9-0.7C27,58.6,27.3,57.9,27.1,57.3z"/>
		</g>
	</g>
</g>
<g>
	<polyline class="st11" points="149,328.4 149,366.5 195.5,366.5 	"/>
	<g>
		<line class="st12" x1="149" y1="328.4" x2="149" y2="330.9"/>
		<line class="st13" x1="149" y1="333.9" x2="149" y2="344.5"/>
		<line class="st14" x1="149" y1="346" x2="149" y2="362.5"/>
		<polyline class="st12" points="149,364 149,366.5 151.5,366.5 		"/>
		<line class="st15" x1="155.3" y1="366.5" x2="168.5" y2="366.5"/>
		<line class="st16" x1="170.4" y1="366.5" x2="191.1" y2="366.5"/>
		<line class="st12" x1="193" y1="366.5" x2="195.5" y2="366.5"/>
	</g>
</g>
</svg>
