<?xml version="1.0" encoding="utf-8"?>
<!-- Generator: Adobe Illustrator 21.1.0, SVG Export Plug-In . SVG Version: 6.00 Build 0)  -->
<svg version="1.1" id="圖層_1" xmlns="http://www.w3.org/2000/svg" xmlns:xlink="http://www.w3.org/1999/xlink" x="0px" y="0px"
	 viewBox="0 0 485 511" style="enable-background:new 0 0 485 511;" xml:space="preserve">
<style type="text/css">
	.st0{fill:#434343;}
	.st1{fill:none;stroke:#434343;stroke-miterlimit:10;}
	.st2{fill:#FB8B00;}
	.st3{fill:#045EAC;}
	.st4{font-family:'微軟正黑體';font-weight:bold;}
	.st5{font-size:28px;}
	.st6{letter-spacing:5px;}
	.st7{font-size:28px;}
	.st8{letter-spacing:3px;}
	.st9{font-size:20px;}
	.st10{letter-spacing:2px;}
	.st11{fill:none;stroke:#434343;stroke-miterlimit:10;stroke-dasharray:2.9091,2.9091,2.9091,2.9091;}
	.st12{fill:none;stroke:#434343;stroke-miterlimit:10;stroke-dasharray:2.9091,2.9091,2.9091,2.9091,2.9091,2.9091;}
	.st13{fill:none;stroke:#434343;stroke-miterlimit:10;stroke-dasharray:3.8182,3.8182,3.8182,3.8182;}
	.st14{fill:none;stroke:#434343;stroke-miterlimit:10;stroke-dasharray:3.8182,3.8182,3.8182,3.8182,3.8182,3.8182;}
</style>
<rect x="99.3" y="115" class="st0" width="12" height="12"/>
<line class="st1" x1="105.3" y1="121.5" x2="105.3" y2="256.5"/>
<line class="st1" x1="105.3" y1="256.5" x2="105.5" y2="476.5"/>
<circle class="st0" cx="105" cy="204" r="6"/>
<line class="st1" x1="105" y1="204.5" x2="199" y2="204.5"/>
<rect x="99" y="312" class="st2" width="12" height="12"/>
<rect x="99" y="391" class="st2" width="12" height="12"/>
<g>
	<g>
		<g>
			<text transform="matrix(1 0 0 1 90.9995 49.9125)" class="st3 st4 st5 st6">第三階段</text>
		</g>
	</g>
	<g>
		<text transform="matrix(1 0 0 1 209 250.5)"><tspan x="0" y="0" class="st0 st4 st7 st8">人才資料庫</tspan><tspan x="159.6" y="0" class="st0 st4 st9 st10">資料建檔</tspan></text>
	</g>
	<text transform="matrix(1 0 0 1 135 329)"><tspan x="0" y="0" class="st2 st4 st7 st8">符合</tspan><tspan x="63.8" y="0" class="st2 st4 st9 st10">錄取</tspan></text>
	<g>
		<text transform="matrix(1 0 0 1 135 132)" class="st0 st4 st7 st8">複試</text>
	</g>
	<g>
		<text transform="matrix(1 0 0 1 209 213.5)"><tspan x="0" y="0" class="st0 st4 st7 st8">不符合</tspan><tspan x="95.8" y="0" class="st0 st4 st9 st10">感謝回函</tspan></text>
	</g>
	<text transform="matrix(1 0 0 1 135 408)" class="st2 st4 st7 st8">文件簽核</text>
	<text transform="matrix(1 0 0 1 135 487)" class="st2 st4 st7 st8">報到</text>
</g>
<rect x="99" y="470" class="st2" width="12" height="12"/>
<g>
	<g>
		<path class="st3" d="M70.3,43.8h-5l0.2-3.9c0,0,0,0,0-0.1v-0.3c0-0.1,0-0.1,0-0.2c0-1.5-0.7-2.8-1.8-3.8c-1.1-1-2.6-1.5-4.1-1.3
			c0,0,0,0,0,0c0,0-3.5,0.4-5.6,0.5c-0.7,0-1.2,0.3-1.6,0.7c-0.7-0.9-1.9-1.5-3.1-1.5h-2.5l-0.2-0.8c2.1-1.1,3.4-3.3,3.4-5.7v-2.6
			v-2.5c0-1.2-0.5-2.2-1.2-3c0-0.1,0-0.1,0-0.2c0-2.9-2.4-5.3-5.3-5.3c-2.9,0-5.3,2.4-5.3,5.3c0,0.1,0,0.1,0,0.2
			c-0.7,0.8-1.2,1.8-1.2,3v0.2v5c0,2.4,1.3,4.6,3.4,5.7L40.2,34h-2.5c-2.2,0-4,1.8-4,4v5.7h-3.9c-0.5,0-1,0.4-1,1v18.1
			c0,0.5,0.4,1,1,1h20.2h16.8h3.5c0.5,0,1-0.4,1-1V44.7C71.2,44.2,70.8,43.8,70.3,43.8z M53.2,39.3c0-0.1,0-0.2,0-0.3c0,0,0,0,0,0
			c0-0.1,0-0.2,0-0.3c0,0,0,0,0,0c0-0.1,0-0.2,0-0.3c0,0,0,0,0-0.1c0-0.1,0-0.2,0-0.2c0.2-0.8,0.5-1.4,0.8-1.4
			c2.1-0.1,5.4-0.5,5.7-0.6c0.9-0.1,1.9,0.2,2.6,0.8c0.7,0.6,1.1,1.5,1.1,2.4c0,0,0,0.1,0,0.1v0.3l-0.2,4c0,0,0,0,0,0
			c0,0-0.1,0-0.1,0c0,0,0,0,0,0c0,0-0.1,0-0.1,0.1c-0.3,0.2-0.5,0.5-0.5,0.8v0.1c0,1.7-1,3.2-2.5,3.8h-3.4c-1.5-0.7-2.5-2.2-2.5-3.8
			v-0.1c0-0.3-0.2-0.6-0.4-0.8c0,0-0.1,0-0.1,0c0,0,0,0,0,0c0,0,0,0-0.1,0c0,0,0,0,0,0c0,0-0.1,0-0.1,0l-0.2-3.5V39.3z M59.6,51.5
			l-2.5,0l0.2-0.8h2.2L59.6,51.5z M43.5,15.8c1.5,0,2.8,1,3.2,2.3c-0.1,0-0.2,0-0.3-0.1c0,0,0,0,0,0c-0.1,0-0.1,0-0.2,0
			c0,0,0,0-0.1,0c-0.1,0-0.1,0-0.2,0c0,0,0,0-0.1,0c-0.1,0-0.2,0-0.3,0h-4.2c-0.1,0-0.2,0-0.3,0c0,0,0,0-0.1,0c-0.1,0-0.1,0-0.2,0
			c0,0,0,0-0.1,0c-0.1,0-0.1,0-0.2,0c0,0,0,0,0,0c-0.1,0-0.2,0-0.3,0.1C40.7,16.8,42,15.8,43.5,15.8z M39.9,20.5
			C39.9,20.4,39.9,20.4,39.9,20.5c0.1-0.1,0.1-0.1,0.2-0.1c0,0,0,0,0.1,0c0,0,0.1,0,0.1-0.1c0,0,0.1,0,0.1,0c0,0,0.1,0,0.1,0
			c0,0,0.1,0,0.1,0c0,0,0.1,0,0.1,0c0,0,0.1,0,0.1,0c0,0,0.1,0,0.1,0c0,0,0.1,0,0.1,0c0,0,0.1,0,0.1,0c0,0,0.1,0,0.1,0
			c0.1,0,0.1,0,0.2,0h4.2c0.1,0,0.1,0,0.2,0c0,0,0,0,0,0c0.1,0,0.1,0,0.2,0c0,0,0,0,0,0c0.2,0,0.4,0.1,0.6,0.2c0,0,0,0,0,0
			c0.1,0,0.1,0.1,0.2,0.1c0,0,0,0,0,0c0,0,0.1,0.1,0.1,0.1c0,0,0,0,0,0c0,0,0.1,0.1,0.1,0.1c0.6,0.4,0.9,1.1,0.9,1.9v1.5h-3.2
			c-0.1,0-0.2,0-0.3,0c0,0-0.1,0-0.1,0c-0.1,0-0.1,0-0.2,0c0,0-0.1,0-0.1,0c-0.1,0-0.2,0-0.2,0c0,0,0,0-0.1,0c-0.1,0-0.2,0-0.3,0
			c0,0,0,0-0.1,0c-0.1,0-0.2,0-0.2,0c0,0-0.1,0-0.1,0c-0.1,0-0.1,0-0.2,0c0,0-0.1,0-0.1,0c-0.1,0-0.2,0-0.2-0.1c0,0,0,0,0,0
			c-0.1,0-0.2,0-0.3-0.1c0,0,0,0-0.1,0c-0.1,0-0.1,0-0.2-0.1c0,0-0.1,0-0.1,0c-0.1,0-0.1,0-0.2-0.1c0,0,0,0-0.1,0
			c-0.1,0-0.2-0.1-0.2-0.1c0,0,0,0,0,0c-0.1,0-0.1,0-0.2-0.1c0,0,0,0-0.1,0c-0.1,0-0.1,0-0.2-0.1c0,0,0,0-0.1,0
			c-0.1,0-0.1,0-0.2-0.1c0,0,0,0,0,0c-0.1,0-0.1-0.1-0.2-0.1c0,0,0,0,0,0c0,0-0.1,0-0.1-0.1c0,0,0,0-0.1,0c0,0-0.1,0-0.1-0.1
			c0,0,0,0,0,0c-0.1,0-0.1-0.1-0.2-0.1c0,0,0,0,0,0c-0.1,0-0.1-0.1-0.1-0.1c0,0,0,0,0,0c0,0-0.1,0-0.1-0.1c0,0,0,0,0,0
			c0,0-0.1,0-0.1-0.1c0,0,0,0,0,0c0,0-0.1-0.1-0.1-0.1c0,0,0,0,0,0c0,0-0.1,0-0.1-0.1c0,0,0,0,0,0c0,0,0,0-0.1,0c0,0,0,0,0,0
			c0,0-0.1,0-0.1-0.1c0,0,0,0,0,0C39,21.4,39.4,20.8,39.9,20.5z M38.9,27.5v-3.2c0,0,0,0,0,0c0.1,0,0.1,0.1,0.2,0.1c0,0,0,0,0.1,0
			c0.1,0,0.2,0.1,0.3,0.1c0,0,0,0,0,0c0.1,0,0.1,0.1,0.2,0.1c0,0,0.1,0,0.1,0c0.1,0,0.1,0.1,0.2,0.1c0,0,0.1,0,0.1,0
			c0.1,0,0.1,0,0.2,0.1c0,0,0.1,0,0.1,0c0.1,0,0.1,0,0.2,0.1c0,0,0.1,0,0.1,0c0.1,0,0.1,0,0.2,0.1c0,0,0.1,0,0.1,0
			c0.1,0,0.2,0,0.2,0.1c0,0,0.1,0,0.1,0c0.1,0,0.2,0.1,0.4,0.1c0,0,0,0,0,0c0.1,0,0.2,0.1,0.3,0.1c0,0,0.1,0,0.1,0
			c0.1,0,0.2,0,0.3,0.1c0.1,0,0.1,0,0.2,0c0.1,0,0.2,0,0.2,0c0.1,0,0.1,0,0.2,0c0.1,0,0.2,0,0.2,0c0.1,0,0.1,0,0.2,0
			c0.1,0,0.2,0,0.3,0c0.1,0,0.1,0,0.2,0c0.1,0,0.2,0,0.3,0c0,0,0.1,0,0.1,0c0.1,0,0.3,0,0.4,0h3.2v1.7c0,1.9-1.1,3.6-2.9,4.3
			c-0.4,0.2-0.7,0.6-0.6,1.1l0.5,2.3l-1.5,0.5L42,35.2l0,0l0,0l0.5-2.3c0.1-0.5-0.2-0.9-0.6-1.1C40.1,31.1,38.9,29.4,38.9,27.5z
			 M45.7,37.1l-2.2,2.3l-2.2-2.3l1.9,0.6c0,0,0,0,0.1,0c0.1,0,0.1,0,0.2,0c0.1,0,0.1,0,0.2,0c0,0,0.1,0,0.1,0L45.7,37.1z M35.6,38.1
			c0-1.1,0.9-2,2-2.1l5.2,5.5c0.2,0.2,0.4,0.3,0.7,0.3s0.5-0.1,0.7-0.3l5.2-5.5c1,0.1,1.8,0.8,2,1.8c-0.1,0.5-0.1,1-0.1,1.5v1.1
			c0,0,0,0,0,0.1l0.1,2.1v1.2H35.6V38.1L35.6,38.1z M49,54.3v7.6H30.7V45.7h3.9H52c0,0,0,0,0,0c0,0,0,0,0,0c0,0,0,0,0,0c0,0,0,0,0,0
			c0,0,0,0,0,0c0,0,0,0,0.1,0c0,0,0,0,0,0c0,0,0.1,0,0.1,0c0.1,0.4,0.2,0.8,0.3,1.2H37c-0.5,0-1,0.4-1,1s0.4,1,1,1h16.8
			c0.4,0.5,1,0.9,1.6,1.2l-0.2,1.3h-3.4C50.2,51.5,49,52.7,49,54.3z M65.8,61.9H50.9v-7.6c0-0.5,0.4-0.8,0.8-0.8H65
			c0.5,0,0.8,0.4,0.8,0.8V61.9z M69.3,61.9h-1.5v-7.6c0-1.5-1.2-2.8-2.8-2.8h-3.4l-0.2-1.3c0.6-0.3,1.1-0.7,1.6-1.2h6.4V61.9z
			 M64.1,47c0.1-0.4,0.3-0.8,0.3-1.2c0,0,0.1,0,0.1,0c0,0,0,0,0,0c0,0,0,0,0.1,0c0,0,0,0,0,0c0,0,0,0,0,0c0,0,0,0,0,0c0,0,0,0,0,0
			c0,0,0,0,0,0h4.5V47L64.1,47L64.1,47z"/>
	</g>
</g>
<g>
	<g>
		<line class="st1" x1="152" y1="204" x2="152" y2="206.5"/>
		<line class="st11" x1="152" y1="209.4" x2="152" y2="219.6"/>
		<line class="st12" x1="152" y1="221" x2="152" y2="237"/>
		<polyline class="st1" points="152,238.5 152,241 154.5,241 		"/>
		<line class="st13" x1="158.3" y1="241" x2="171.7" y2="241"/>
		<line class="st14" x1="173.6" y1="241" x2="194.6" y2="241"/>
		<line class="st1" x1="196.5" y1="241" x2="199" y2="241"/>
	</g>
</g>
</svg>
