<?xml version="1.0" encoding="utf-8"?>
<!-- Generator: Adobe Illustrator 21.1.0, SVG Export Plug-In . SVG Version: 6.00 Build 0)  -->
<svg version="1.1" id="圖層_1" xmlns="http://www.w3.org/2000/svg" xmlns:xlink="http://www.w3.org/1999/xlink" x="0px" y="0px"
	 viewBox="0 0 700 1650" style="enable-background:new 0 0 700 1650;" xml:space="preserve">
<style type="text/css">
	.st0{fill:none;stroke:#045EAC;stroke-width:2;stroke-miterlimit:10;stroke-dasharray:5,5,5,5,5,5;}
	.st1{fill:#045EAC;}
	.st2{fill:none;stroke:#045EAC;stroke-width:2;stroke-miterlimit:10;}
	.st3{font-family:'微軟正黑體';}
	.st4{font-size:24px;font-weight:bold;}
	.st5{letter-spacing:2px;}
	.st6{fill:#F4F7FA;}
	.st7{fill:none;stroke:#FB8B00;stroke-width:2;stroke-miterlimit:10;}
	.st8{fill:#FB8B00;}
	.st9{fill:none;stroke:#045EAC;stroke-miterlimit:10;}
</style>
<line class="st0" x1="96.5" y1="292.5" x2="96.5" y2="692.5"/>
<line class="st0" x1="96" y1="752" x2="96" y2="857.5"/>
<rect x="78" y="905" class="st1" width="4" height="4"/>
<rect x="83.5" y="905" class="st1" width="4" height="4"/>
<rect x="89.5" y="905" class="st1" width="4" height="4"/>
<rect x="95.5" y="905" class="st1" width="4" height="4"/>
<path class="st2" d="M384.3,86.5c0,35.4-29.1,64.5-64.5,64.5s-64.5-29.1-64.5-64.5S284.4,22,319.8,22c9,0,17.9,1.9,26.1,5.5"/>
<path class="st2" d="M384.3,294.5c0,35.4-29.1,64.5-64.5,64.5s-64.5-29.1-64.5-64.5s29.1-64.5,64.5-64.5c9,0,17.9,1.9,26.1,5.5"/>
<g>
	<text transform="matrix(1 0 0 1 309.8755 272.5566)" class="st1 st3 st4 st5">破碎機粗碎</text>
</g>
<g>
	<rect x="28" y="693" class="st6" width="137" height="59"/>
	<g>
		<text transform="matrix(1 0 0 1 58.54 730.5566)" class="st1 st3 st4 st5">集塵機</text>
	</g>
</g>
<g>
	<rect x="323.3" y="168.8" class="st1" width="4.1" height="33.4"/>
	<polygon class="st1" points="331,201.8 325.3,212.6 319.6,201.8 	"/>
</g>
<path class="st2" d="M384.3,502.5c0,35.4-29.1,64.5-64.5,64.5s-64.5-29.1-64.5-64.5s29.1-64.5,64.5-64.5c9,0,17.9,1.9,26.1,5.5"/>
<g>
	<text transform="matrix(1 0 0 1 309.8755 480.5566)" class="st1 st3 st4 st5">磁選</text>
</g>
<g>
	<text transform="matrix(1 0 0 1 210.8755 956.5566)" class="st1 st3 st4 st5">粗</text>
</g>
<g>
	<text transform="matrix(1 0 0 1 335.8755 1021.5566)" class="st1 st3 st4 st5">細</text>
</g>
<g>
	<rect x="323.3" y="376.8" class="st1" width="4.1" height="33.4"/>
	<polygon class="st1" points="331,409.8 325.3,420.6 319.6,409.8 	"/>
</g>
<path class="st2" d="M384.3,714.5c0,35.4-29.1,64.5-64.5,64.5s-64.5-29.1-64.5-64.5s29.1-64.5,64.5-64.5c9,0,17.9,1.9,26.1,5.5"/>
<g>
	<text transform="matrix(1 0 0 1 301.8755 692.5566)" class="st1 st3 st4 st5">鎚磨機#1</text>
</g>
<g>
	<text transform="matrix(1 0 0 1 452.8755 511.5566)" class="st1 st3 st4 st5">鎳,鐵</text>
</g>
<g>
	<rect x="323.3" y="588.8" class="st1" width="4.1" height="33.4"/>
	<polygon class="st1" points="331,621.8 325.3,632.6 319.6,621.8 	"/>
</g>
<path class="st2" d="M384.3,922.5c0,35.4-29.1,64.5-64.5,64.5s-64.5-29.1-64.5-64.5s29.1-64.5,64.5-64.5c9,0,17.9,1.9,26.1,5.5"/>
<g>
	<text transform="matrix(1 0 0 1 301.8755 900.5566)" class="st1 st3 st4 st5">震動篩選機</text>
</g>
<path class="st2" d="M161.3,922.5c0,35.4-29.1,64.5-64.5,64.5s-64.5-29.1-64.5-64.5S61.4,858,96.8,858c9,0,17.9,1.9,26.1,5.5"/>
<g>
	<text transform="matrix(1 0 0 1 78.8755 900.5566)" class="st1 st3 st4 st5">鎚磨機#2</text>
</g>
<path class="st2" d="M200.3,1340.5c0,35.4-29.1,64.5-64.5,64.5s-64.5-29.1-64.5-64.5c0-35.4,29.1-64.5,64.5-64.5
	c9,0,17.9,1.9,26.1,5.5"/>
<g>
	<text transform="matrix(1 0 0 1 112.8755 1325.5566)"><tspan x="0" y="0" class="st1 st3 st4 st5">金屬物質</tspan><tspan x="0" y="37.4" class="st1 st3 st4 st5">銅</tspan></text>
</g>
<g>
	<text transform="matrix(1 0 0 1 471.8755 1329.5566)"><tspan x="0" y="0" class="st1 st3 st4 st5">非金屬物質</tspan><tspan x="0" y="37.4" class="st1 st3 st4 st5">玻璃纖維樹脂粉末</tspan></text>
</g>
<g>
	<rect x="323.3" y="796.8" class="st1" width="4.1" height="33.4"/>
	<polygon class="st1" points="331,829.8 325.3,840.6 319.6,829.8 	"/>
</g>
<path class="st7" d="M177.3,1614.7c-11.2,9.5-25.7,15.3-41.5,15.3c-35.4,0-64.5-29.1-64.5-64.5c0-35.4,29.1-64.5,64.5-64.5
	c9,0,17.9,1.9,26.1,5.5"/>
<path class="st7" d="M542.3,1614.7c-11.2,9.5-25.7,15.3-41.5,15.3c-35.4,0-64.5-29.1-64.5-64.5c0-35.4,29.1-64.5,64.5-64.5
	c9,0,17.9,1.9,26.1,5.5"/>
<path class="st2" d="M542.3,1389.7c-11.2,9.5-25.7,15.3-41.5,15.3c-35.4,0-64.5-29.1-64.5-64.5c0-35.4,29.1-64.5,64.5-64.5
	c9,0,17.9,1.9,26.1,5.5"/>
<g>
	<text transform="matrix(1 0 0 1 100.8755 1552.5566)"><tspan x="0" y="0" class="st8 st3 st4 st5">資源回收</tspan><tspan x="0" y="37.4" class="st8 st3 st4 st5">再利用系統</tspan></text>
</g>
<g>
	<rect x="139.3" y="1439.8" class="st1" width="4.1" height="33.4"/>
	<polygon class="st1" points="147,1472.8 141.3,1483.6 135.6,1472.8 	"/>
</g>
<g>
	<text transform="matrix(1 0 0 1 467.8755 1553.5566)"><tspan x="0" y="0" class="st8 st3 st4 st5">資源化人造</tspan><tspan x="0" y="37.4" class="st8 st3 st4 st5">建材及藝品</tspan></text>
</g>
<g>
	<rect x="498.3" y="1439.8" class="st1" width="4.1" height="33.4"/>
	<polygon class="st1" points="506,1472.8 500.3,1483.6 494.6,1472.8 	"/>
</g>
<path class="st2" d="M384.3,1125.5c0,35.4-29.1,64.5-64.5,64.5s-64.5-29.1-64.5-64.5c0-35.4,29.1-64.5,64.5-64.5
	c9,0,17.9,1.9,26.1,5.5"/>
<g>
	<text transform="matrix(1 0 0 1 301.8755 1103.5566)" class="st1 st3 st4 st5">靜電分選機#1,#2</text>
</g>
<g>
	<rect x="323.3" y="999.8" class="st1" width="4.1" height="33.4"/>
	<polygon class="st1" points="331,1032.8 325.3,1043.6 319.6,1032.8 	"/>
</g>
<g>
	
		<rect x="220.4" y="906.1" transform="matrix(-1.836970e-16 1 -1 -1.836970e-16 1145.2483 700.2278)" class="st1" width="4.1" height="33.4"/>
	<polygon class="st1" points="206.2,928.4 195.5,922.7 206.2,917 	"/>
</g>
<g>
	
		<rect x="235" y="1211.4" transform="matrix(0.7071 0.7071 -0.7071 0.7071 937.7898 192.0931)" class="st1" width="4.1" height="33.4"/>
	<polygon class="st1" points="229.5,1243.6 217.9,1247.2 221.4,1235.5 	"/>
</g>
<g>
	
		<rect x="408.1" y="1216.4" transform="matrix(-0.7071 0.7071 -0.7071 -0.7071 1572.0125 1814.9691)" class="st1" width="4.1" height="33.4"/>
	<polygon class="st1" points="417.7,1248.6 429.3,1252.2 425.7,1240.5 	"/>
</g>
<line class="st2" x1="383.9" y1="502.2" x2="445.5" y2="502.5"/>
<line class="st0" x1="255" y1="294" x2="96.5" y2="292.5"/>
<line class="st0" x1="164.5" y1="722.5" x2="255.5" y2="722.5"/>
<rect x="274" y="96" class="st1" width="21" height="21"/>
<rect x="302" y="112" class="st1" width="21" height="21"/>
<rect x="304" y="89" class="st1" width="14" height="14"/>
<rect x="326" y="100" class="st1" width="14" height="14"/>
<rect x="345" y="86" class="st1" width="21" height="21"/>
<path class="st1" d="M296,294h-23v7.1c7.5,2.6,15.2,5.1,23,7.3V294z"/>
<path class="st1" d="M319.6,314H303v5.1c5.4,1.9,11,3.7,16.6,5.2V314z"/>
<path class="st1" d="M341.6,309H325v5.1c5.4,1.9,11,3.7,16.6,5.2V309z"/>
<path class="st1" d="M273,309.1V325h23v-8.6C288.2,314.2,280.5,311.7,273,309.1z"/>
<path class="st1" d="M301,333v10h14.5v-5.4C310.6,336.2,305.7,334.6,301,333z"/>
<path class="st1" d="M348,319v10h14.5v-5.4C357.6,322.2,352.7,320.6,348,319z"/>
<path class="st1" d="M326,325v10h14.5v-5.4C335.6,328.2,330.7,326.6,326,325z"/>
<path class="st1" d="M348,304v10h14.5v-5.4C357.6,307.2,352.7,305.6,348,304z"/>
<rect x="264" y="507" class="st1" width="32" height="9"/>
<rect x="303.5" y="507" class="st1" width="32" height="9"/>
<rect x="343" y="507" class="st1" width="32" height="9"/>
<rect x="266" y="1125" class="st1" width="36" height="4"/>
<rect x="339" y="1125" class="st1" width="36" height="4"/>
<line class="st9" x1="289" y1="526" x2="289" y2="538"/>
<line class="st9" x1="299" y1="530" x2="299" y2="551"/>
<line class="st9" x1="316" y1="524" x2="316" y2="544"/>
<line class="st9" x1="335" y1="532" x2="335" y2="551"/>
<rect x="300.5" y="707.5" class="st1" width="29" height="29"/>
<rect x="332" y="717" class="st1" width="32" height="9"/>
<line class="st9" x1="280" y1="752" x2="364" y2="752"/>
<rect x="293" y="742" class="st1" width="8" height="8"/>
<rect x="285.7" y="938.5" transform="matrix(0.9162 -0.4008 0.4008 0.9162 -353.1602 196.647)" class="st1" width="15.6" height="8"/>
<rect x="308" y="926.6" transform="matrix(0.9162 -0.4008 0.4008 0.9162 -348.8726 203.5225)" class="st1" width="8" height="18.2"/>
<rect x="324.5" y="928.6" transform="matrix(-0.9472 -0.3206 0.3206 -0.9472 337.9255 1927.6534)" class="st1" width="6.2" height="14.8"/>
<rect x="337" y="927.6" transform="matrix(-0.9472 -0.3206 0.3206 -0.9472 363.7562 1933.2422)" class="st1" width="8" height="18.2"/>
<rect x="297" y="961" transform="matrix(0.9162 -0.4008 0.4008 0.9162 -361.5535 201.5546)" class="st1" width="8" height="8"/>
<rect x="314" y="962" transform="matrix(0.9162 -0.4008 0.4008 0.9162 -360.529 208.4524)" class="st1" width="8" height="8"/>
<rect x="330" y="965" transform="matrix(0.9162 -0.4008 0.4008 0.9162 -360.39 215.117)" class="st1" width="8" height="8"/>
<rect x="304" y="742" class="st1" width="8" height="8"/>
<rect x="316" y="742" class="st1" width="8" height="8"/>
<rect x="328" y="742" class="st1" width="8" height="8"/>
<rect x="75.5" y="913.5" class="st1" width="29" height="29"/>
<rect x="107" y="923" class="st1" width="32" height="9"/>
<line class="st9" x1="55" y1="958" x2="139" y2="958"/>
<rect x="281.5" y="921.5" class="st9" width="81" height="31"/>
<line class="st9" x1="272.5" y1="914.5" x2="272.5" y2="936.5"/>
<line class="st9" x1="263.5" y1="925.5" x2="263.5" y2="936.5"/>
<line class="st9" x1="369.5" y1="920.5" x2="369.5" y2="936.5"/>
<polygon class="st1" points="294,925.9 289.9,925.9 287.8,929.5 289.9,933 294,933 296,929.5 "/>
<polygon class="st1" points="354,942.9 349.9,942.9 347.8,946.5 349.9,950 354,950 356,946.5 "/>
<polygon class="st1" points="358,931.9 353.9,931.9 351.8,935.5 353.9,939 358,939 360,935.5 "/>
<line class="st9" x1="281" y1="1144" x2="304" y2="1144"/>
<line class="st9" x1="329" y1="1154.5" x2="357" y2="1154.5"/>
<rect x="308" y="1140" class="st1" width="12" height="12"/>
<rect x="266" y="1135" class="st1" width="12" height="12"/>
<rect x="286" y="1154" class="st1" width="12" height="12"/>
<rect x="308" y="1163" class="st1" width="12" height="12"/>
<circle class="st1" cx="339" cy="1166" r="6"/>
<circle class="st1" cx="333" cy="1145" r="6"/>
<circle class="st1" cx="325" cy="1129" r="6"/>
<circle class="st1" cx="364" cy="1149" r="6"/>
<g>
	<text transform="matrix(1 0 0 1 318.8755 66.5566)" class="st1 st3 st4 st5">電子廢料</text>
</g>
</svg>
