<?xml version="1.0" encoding="utf-8"?>
<!-- Generator: Adobe Illustrator 21.1.0, SVG Export Plug-In . SVG Version: 6.00 Build 0)  -->
<svg version="1.1" id="圖層_1" xmlns="http://www.w3.org/2000/svg" xmlns:xlink="http://www.w3.org/1999/xlink" x="0px" y="0px"
	 viewBox="0 0 1582 768" style="enable-background:new 0 0 1582 768;" xml:space="preserve">
<style type="text/css">
	.st0{fill:url(#SVGID_1_);}
	.st1{fill:url(#SVGID_2_);}
	.st2{fill:url(#SVGID_3_);}
	.st3{fill:url(#SVGID_4_);}
	.st4{fill:url(#SVGID_5_);}
	.st5{fill:url(#SVGID_6_);}
	.st6{fill:url(#SVGID_7_);}
	.st7{fill:url(#SVGID_8_);}
	.st8{fill:url(#SVGID_9_);}
	.st9{fill:url(#SVGID_10_);}
	.st10{fill:url(#SVGID_11_);}
	.st11{fill:url(#SVGID_12_);}
	.st12{fill:url(#SVGID_13_);}
	.st13{fill:url(#SVGID_14_);}
	.st14{fill:url(#SVGID_15_);}
	.st15{fill:url(#SVGID_16_);}
	.st16{fill:url(#SVGID_17_);}
	.st17{fill:url(#SVGID_18_);}
	.st18{fill:url(#SVGID_19_);}
	.st19{fill:url(#SVGID_20_);}
	.st20{fill:url(#SVGID_21_);}
	.st21{fill:url(#SVGID_22_);}
	.st22{fill:url(#SVGID_23_);}
	.st23{fill:url(#SVGID_24_);}
	.st24{fill:url(#SVGID_25_);}
	.st25{fill:url(#SVGID_26_);}
	.st26{fill:url(#SVGID_27_);}
	.st27{fill:url(#SVGID_28_);}
	.st28{fill:url(#SVGID_29_);}
	.st29{fill:url(#SVGID_30_);}
	.st30{fill:url(#SVGID_31_);}
	.st31{fill:url(#SVGID_32_);}
	.st32{fill:url(#SVGID_33_);}
	.st33{fill:url(#SVGID_34_);}
	.st34{fill:url(#SVGID_35_);}
	.st35{fill:url(#SVGID_36_);}
	.st36{fill:url(#SVGID_37_);}
	.st37{fill:url(#SVGID_38_);}
	.st38{fill:url(#SVGID_39_);}
	.st39{fill:url(#SVGID_40_);}
	.st40{fill:url(#SVGID_41_);}
	.st41{fill:url(#SVGID_42_);}
	.st42{fill:url(#SVGID_43_);}
	.st43{fill:url(#SVGID_44_);}
	.st44{fill:url(#SVGID_45_);}
	.st45{fill:url(#SVGID_46_);}
	.st46{fill:url(#SVGID_47_);}
	.st47{fill:url(#SVGID_48_);}
	.st48{fill:url(#SVGID_49_);}
	.st49{fill:url(#SVGID_50_);}
	.st50{fill:url(#SVGID_51_);}
	.st51{fill:url(#SVGID_52_);}
	.st52{fill:url(#SVGID_53_);}
	.st53{fill:url(#SVGID_54_);}
	.st54{fill:url(#SVGID_55_);}
	.st55{fill:url(#SVGID_56_);}
	.st56{fill:url(#SVGID_57_);}
	.st57{fill:url(#SVGID_58_);}
	.st58{fill:url(#SVGID_59_);}
	.st59{fill:url(#SVGID_60_);}
	.st60{fill:url(#SVGID_61_);}
	.st61{fill:#FFFFFF;}
	.st62{fill:none;stroke:#02599F;stroke-width:2;stroke-miterlimit:10;}
	.st63{fill:#02599F;}
	.st64{font-family:'微軟正黑體';font-weight:bold;}
	.st65{font-size:25px;}
	.st66{letter-spacing:2px;}
	.st67{fill:#595757;}
	.st68{font-family:'微軟正黑體';font-weight:bold;}
	.st69{font-size:20px;}
	.st70{font-size:28px;}
	.st71{font-size:24px;}
	.st72{fill:none;stroke:#02599F;stroke-width:3;stroke-miterlimit:10;}
	.st73{fill:#5D7AA6;}
	.st74{opacity:0.7;fill:#5D7AA6;}
	.st75{fill:#FB8B00;}
	.st76{opacity:0.7;fill:#FB8B00;}
</style>
<g>
	<g>
		<linearGradient id="SVGID_1_" gradientUnits="userSpaceOnUse" x1="1566.1736" y1="384.9447" x2="793.8898" y2="384.9447">
			<stop  offset="0" style="stop-color:#FFFFFF"/>
			<stop  offset="0.25" style="stop-color:#F6F1E9"/>
		</linearGradient>
		<circle class="st0" cx="790.2" cy="384.9" r="157.7"/>
		<linearGradient id="SVGID_2_" gradientUnits="userSpaceOnUse" x1="1566.1736" y1="397.8727" x2="793.8898" y2="397.8727">
			<stop  offset="0" style="stop-color:#FFFFFF"/>
			<stop  offset="0.25" style="stop-color:#F6F1E9"/>
		</linearGradient>
		<polygon class="st1" points="793.1,227.2 1571,86.2 1570.4,709.5 793.1,542.6 		"/>
	</g>
	<g>
		<linearGradient id="SVGID_3_" gradientUnits="userSpaceOnUse" x1="14.9955" y1="384.9447" x2="790.5845" y2="384.9447">
			<stop  offset="0" style="stop-color:#FFFFFF"/>
			<stop  offset="0.25" style="stop-color:#F3F6F8"/>
		</linearGradient>
		<circle class="st2" cx="795.8" cy="384.9" r="157.7"/>
		<linearGradient id="SVGID_4_" gradientUnits="userSpaceOnUse" x1="15.0091" y1="397.8727" x2="790.5981" y2="397.8727">
			<stop  offset="0" style="stop-color:#FFFFFF"/>
			<stop  offset="0.25" style="stop-color:#F3F6F8"/>
		</linearGradient>
		<polygon class="st3" points="793,227.2 15,86.2 15.6,709.5 793,542.6 		"/>
	</g>
	<g>
		<g>
			<g>
				<g>
					<linearGradient id="SVGID_5_" gradientUnits="userSpaceOnUse" x1="364.7236" y1="187.1737" x2="1219.3397" y2="187.1737">
						<stop  offset="0" style="stop-color:#F5F6F8"/>
						<stop  offset="0.5108" style="stop-color:#2B4163"/>
						<stop  offset="1" style="stop-color:#F4DDB8"/>
					</linearGradient>
					<polygon class="st4" points="368.1,188 364.6,187.5 364.8,186.4 368.2,186.8 					"/>
				</g>
				<g>
					<linearGradient id="SVGID_6_" gradientUnits="userSpaceOnUse" x1="364.7236" y1="215.9376" x2="1219.3397" y2="215.9376">
						<stop  offset="0" style="stop-color:#F5F6F8"/>
						<stop  offset="0.5108" style="stop-color:#2B4163"/>
						<stop  offset="1" style="stop-color:#F4DDB8"/>
					</linearGradient>
					<path class="st5" d="M792.9,245.2l-4-0.5l0.2-1.1l3.9,0.5l2.9-0.4l0.2,1.1L792.9,245.2z M802.9,243.9l-0.2-1.1l6.9-1l0.2,1.1
						L802.9,243.9z M782,243.8l-6.9-0.9l0.2-1.1l6.9,0.9L782,243.8z M816.7,242l-0.2-1.1l6.9-1l0.2,1.1L816.7,242z M768.2,241.9
						l-6.9-0.9l0.2-1.1l6.9,0.9L768.2,241.9z M830.5,240.1l-0.2-1.1l6.9-1l0.2,1.1L830.5,240.1z M754.4,240l-6.9-0.9l0.2-1.1
						l6.9,0.9L754.4,240z M740.6,238.2l-6.9-0.9l0.2-1.1l6.9,0.9L740.6,238.2z M844.2,238.2l-0.2-1.1l6.9-1l0.2,1.1L844.2,238.2z
						 M726.8,236.3l-6.9-0.9l0.2-1.1l6.9,0.9L726.8,236.3z M858,236.3l-0.2-1.1l6.9-1l0.2,1.1L858,236.3z M713,234.5l-6.9-0.9
						l0.2-1.1l6.9,0.9L713,234.5z M871.8,234.4l-0.2-1.1l6.9-1l0.2,1.1L871.8,234.4z M699.2,232.6l-6.9-0.9l0.2-1.1l6.9,0.9
						L699.2,232.6z M885.6,232.5l-0.2-1.1l6.9-1l0.2,1.1L885.6,232.5z M685.4,230.7l-6.9-0.9l0.2-1.1l6.9,0.9L685.4,230.7z
						 M899.4,230.6l-0.2-1.1l6.9-1l0.2,1.1L899.4,230.6z M671.6,228.9l-6.9-0.9l0.2-1.1l6.9,0.9L671.6,228.9z M913.2,228.7l-0.2-1.1
						l6.9-1l0.2,1.1L913.2,228.7z M657.8,227l-6.9-0.9l0.2-1.1l6.9,0.9L657.8,227z M927,226.8l-0.2-1.1l6.9-1l0.2,1.1L927,226.8z
						 M644,225.2l-6.9-0.9l0.2-1.1l6.9,0.9L644,225.2z M940.8,224.9l-0.2-1.1l6.9-1l0.2,1.1L940.8,224.9z M630.2,223.3l-6.9-0.9
						l0.2-1.1l6.9,0.9L630.2,223.3z M954.6,223l-0.2-1.1l6.9-1l0.2,1.1L954.6,223z M616.4,221.4l-6.9-0.9l0.2-1.1l6.9,0.9
						L616.4,221.4z M968.4,221.1l-0.2-1.1l6.9-1l0.2,1.1L968.4,221.1z M602.6,219.6l-6.9-0.9l0.2-1.1l6.9,0.9L602.6,219.6z
						 M982.2,219.2L982,218l6.9-1l0.2,1.1L982.2,219.2z M588.8,217.7l-6.9-0.9l0.2-1.1l6.9,0.9L588.8,217.7z M996,217.3l-0.2-1.1
						l6.9-1l0.2,1.1L996,217.3z M575,215.9l-6.9-0.9l0.2-1.1l6.9,0.9L575,215.9z M1009.8,215.3l-0.2-1.1l6.9-1l0.2,1.1L1009.8,215.3
						z M561.3,214l-6.9-0.9l0.2-1.1l6.9,0.9L561.3,214z M1023.5,213.4l-0.2-1.1l6.9-1l0.2,1.1L1023.5,213.4z M547.5,212.2l-6.9-0.9
						l0.2-1.1l6.9,0.9L547.5,212.2z M1037.3,211.5l-0.2-1.1l6.9-1l0.2,1.1L1037.3,211.5z M533.7,210.3l-6.9-0.9l0.2-1.1l6.9,0.9
						L533.7,210.3z M1051.1,209.6l-0.2-1.1l6.9-1l0.2,1.1L1051.1,209.6z M519.9,208.4l-6.9-0.9l0.2-1.1l6.9,0.9L519.9,208.4z
						 M1064.9,207.7l-0.2-1.1l6.9-1l0.2,1.1L1064.9,207.7z M506.1,206.6l-6.9-0.9l0.2-1.1l6.9,0.9L506.1,206.6z M1078.7,205.8
						l-0.2-1.1l6.9-1l0.2,1.1L1078.7,205.8z M492.3,204.7l-6.9-0.9l0.2-1.1l6.9,0.9L492.3,204.7z M1092.5,203.9l-0.2-1.1l6.9-1
						l0.2,1.1L1092.5,203.9z M478.5,202.9l-6.9-0.9l0.2-1.1l6.9,0.9L478.5,202.9z M1106.3,202l-0.2-1.1l6.9-0.9l0.2,1.1L1106.3,202z
						 M464.7,201l-6.9-0.9l0.2-1.1l6.9,0.9L464.7,201z M1120.1,200.1l-0.2-1.1l6.9-1l0.2,1.1L1120.1,200.1z M450.9,199.1l-6.9-0.9
						l0.2-1.1l6.9,0.9L450.9,199.1z M1133.9,198.2l-0.2-1.1l6.9-1l0.2,1.1L1133.9,198.2z M437.1,197.3l-6.9-0.9l0.2-1.1l6.9,0.9
						L437.1,197.3z M1147.7,196.3l-0.2-1.1l6.9-1l0.2,1.1L1147.7,196.3z M423.3,195.4l-6.9-0.9l0.2-1.1l6.9,0.9L423.3,195.4z
						 M1161.5,194.4l-0.2-1.1l6.9-1l0.2,1.1L1161.5,194.4z M409.5,193.6l-6.9-0.9l0.2-1.1l6.9,0.9L409.5,193.6z M1175.3,192.5
						l-0.2-1.1l6.9-1l0.2,1.1L1175.3,192.5z M395.7,191.7l-6.9-0.9l0.2-1.1l6.9,0.9L395.7,191.7z M1189.1,190.6l-0.2-1.1l6.9-1
						l0.2,1.1L1189.1,190.6z M381.9,189.8l-6.9-0.9l0.2-1.1l6.9,0.9L381.9,189.8z M1202.8,188.7l-0.2-1.1l6.9-1l0.2,1.1
						L1202.8,188.7z"/>
				</g>
				<g>
					<linearGradient id="SVGID_7_" gradientUnits="userSpaceOnUse" x1="364.7236" y1="186.0245" x2="1219.3397" y2="186.0245">
						<stop  offset="0" style="stop-color:#F5F6F8"/>
						<stop  offset="0.5108" style="stop-color:#2B4163"/>
						<stop  offset="1" style="stop-color:#F4DDB8"/>
					</linearGradient>
					<polygon class="st6" points="1216.6,186.8 1216.5,185.7 1219.9,185.2 1220.1,186.4 					"/>
				</g>
			</g>
			<g>
				<g>
					<linearGradient id="SVGID_8_" gradientUnits="userSpaceOnUse" x1="364.7236" y1="209.8473" x2="1219.3397" y2="209.8473">
						<stop  offset="0" style="stop-color:#F5F6F8"/>
						<stop  offset="0.5108" style="stop-color:#2B4163"/>
						<stop  offset="1" style="stop-color:#F4DDB8"/>
					</linearGradient>
					<polygon class="st7" points="367.7,210.6 364.3,210.2 364.4,209.1 367.8,209.5 					"/>
				</g>
				<g>
					<linearGradient id="SVGID_9_" gradientUnits="userSpaceOnUse" x1="364.7236" y1="235.3689" x2="1219.3397" y2="235.3689">
						<stop  offset="0" style="stop-color:#F5F6F8"/>
						<stop  offset="0.5108" style="stop-color:#2B4163"/>
						<stop  offset="1" style="stop-color:#F4DDB8"/>
					</linearGradient>
					<path class="st8" d="M792.8,261.5l-3.6-0.4l0.1-1.1l3.5,0.4l3.3-0.4l0.1,1.1L792.8,261.5z M782.2,260.3l-6.9-0.8l0.1-1.1
						l6.9,0.8L782.2,260.3z M803.1,260.3l-0.1-1.1l6.9-0.8l0.1,1.1L803.1,260.3z M768.4,258.6l-6.9-0.8l0.1-1.1l6.9,0.8L768.4,258.6
						z M816.9,258.6l-0.1-1.1l6.9-0.8l0.1,1.1L816.9,258.6z M754.6,256.9l-6.9-0.8l0.1-1.1l6.9,0.8L754.6,256.9z M830.7,256.9
						l-0.1-1.1l6.9-0.8l0.1,1.1L830.7,256.9z M740.8,255.3l-6.9-0.8l0.1-1.1l6.9,0.8L740.8,255.3z M844.5,255.2l-0.1-1.1l6.9-0.8
						l0.1,1.1L844.5,255.2z M727,253.6l-6.9-0.8l0.1-1.1l6.9,0.8L727,253.6z M858.4,253.5l-0.1-1.1l6.9-0.8l0.1,1.1L858.4,253.5z
						 M713.2,252l-6.9-0.8l0.1-1.1l6.9,0.8L713.2,252z M872.2,251.8l-0.1-1.1l6.9-0.8l0.1,1.1L872.2,251.8z M699.3,250.3l-6.9-0.8
						l0.1-1.1l6.9,0.8L699.3,250.3z M886,250.1l-0.1-1.1l6.9-0.8l0.1,1.1L886,250.1z M685.5,248.7l-6.9-0.8l0.1-1.1l6.9,0.8
						L685.5,248.7z M899.8,248.4l-0.1-1.1l6.9-0.8l0.1,1.1L899.8,248.4z M671.7,247l-6.9-0.8l0.1-1.1l6.9,0.8L671.7,247z
						 M913.6,246.7l-0.1-1.1l6.9-0.8l0.1,1.1L913.6,246.7z M657.9,245.4l-6.9-0.8l0.1-1.1l6.9,0.8L657.9,245.4z M927.4,245l-0.1-1.1
						l6.9-0.8l0.1,1.1L927.4,245z M644.1,243.7l-6.9-0.8l0.1-1.1l6.9,0.8L644.1,243.7z M941.2,243.3l-0.1-1.1l6.9-0.8l0.1,1.1
						L941.2,243.3z M630.2,242.1l-6.9-0.8l0.1-1.1l6.9,0.8L630.2,242.1z M955.1,241.7l-0.1-1.1l6.9-0.8l0.1,1.1L955.1,241.7z
						 M616.4,240.4l-6.9-0.8l0.1-1.1l6.9,0.8L616.4,240.4z M968.9,240l-0.1-1.1l6.9-0.8l0.1,1.1L968.9,240z M602.6,238.8l-6.9-0.8
						l0.1-1.1l6.9,0.8L602.6,238.8z M982.7,238.3l-0.1-1.1l6.9-0.8l0.1,1.1L982.7,238.3z M588.8,237.1l-6.9-0.8l0.1-1.1l6.9,0.8
						L588.8,237.1z M996.5,236.6l-0.1-1.1l6.9-0.8l0.1,1.1L996.5,236.6z M575,235.4l-6.9-0.8l0.1-1.1l6.9,0.8L575,235.4z
						 M1010.3,234.9l-0.1-1.1l6.9-0.8l0.1,1.1L1010.3,234.9z M561.2,233.8l-6.9-0.8l0.1-1.1l6.9,0.8L561.2,233.8z M1024.1,233.2
						l-0.1-1.1l6.9-0.8l0.1,1.1L1024.1,233.2z M547.3,232.1l-6.9-0.8l0.1-1.1l6.9,0.8L547.3,232.1z M1037.9,231.5l-0.1-1.1l6.9-0.8
						l0.1,1.1L1037.9,231.5z M533.5,230.5l-6.9-0.8l0.1-1.1l6.9,0.8L533.5,230.5z M1051.8,229.8l-0.1-1.1l6.9-0.8l0.1,1.1
						L1051.8,229.8z M519.7,228.8l-6.9-0.8l0.1-1.1l6.9,0.8L519.7,228.8z M1065.6,228.1l-0.1-1.1l6.9-0.8l0.1,1.1L1065.6,228.1z
						 M505.9,227.2l-6.9-0.8l0.1-1.1l6.9,0.8L505.9,227.2z M1079.4,226.4l-0.1-1.1l6.9-0.8l0.1,1.1L1079.4,226.4z M492.1,225.5
						l-6.9-0.8l0.1-1.1l6.9,0.8L492.1,225.5z M1093.2,224.7l-0.1-1.1l6.9-0.8l0.1,1.1L1093.2,224.7z M478.2,223.9l-6.9-0.8l0.1-1.1
						l6.9,0.8L478.2,223.9z M1107,223l-0.1-1.1l6.9-0.8l0.1,1.1L1107,223z M464.4,222.2l-6.9-0.8l0.1-1.1l6.9,0.8L464.4,222.2z
						 M1120.8,221.4l-0.1-1.1l6.9-0.8l0.1,1.1L1120.8,221.4z M450.6,220.6l-6.9-0.8l0.1-1.1l6.9,0.8L450.6,220.6z M1134.6,219.7
						l-0.1-1.1l6.9-0.8l0.1,1.1L1134.6,219.7z M436.8,218.9l-6.9-0.8l0.1-1.1l6.9,0.8L436.8,218.9z M1148.4,218l-0.1-1.1l6.9-0.8
						l0.1,1.1L1148.4,218z M423,217.2l-6.9-0.8l0.1-1.1l6.9,0.8L423,217.2z M1162.3,216.3l-0.1-1.1l6.9-0.8l0.1,1.1L1162.3,216.3z
						 M409.2,215.6l-6.9-0.8l0.1-1.1l6.9,0.8L409.2,215.6z M1176.1,214.6l-0.1-1.1l6.9-0.8l0.1,1.1L1176.1,214.6z M395.3,213.9
						l-6.9-0.8l0.1-1.1l6.9,0.8L395.3,213.9z M1189.9,212.9l-0.1-1.1l6.9-0.8l0.1,1.1L1189.9,212.9z M381.5,212.3l-6.9-0.8l0.1-1.1
						l6.9,0.8L381.5,212.3z M1203.7,211.2l-0.1-1.1l6.9-0.8l0.1,1.1L1203.7,211.2z"/>
				</g>
				<g>
					<linearGradient id="SVGID_10_" gradientUnits="userSpaceOnUse" x1="364.7236" y1="208.826" x2="1219.3397" y2="208.826">
						<stop  offset="0" style="stop-color:#F5F6F8"/>
						<stop  offset="0.5108" style="stop-color:#2B4163"/>
						<stop  offset="1" style="stop-color:#F4DDB8"/>
					</linearGradient>
					<polygon class="st9" points="1216.8,209.6 1216.6,208.5 1220.1,208 1220.2,209.2 					"/>
				</g>
			</g>
			<g>
				<g>
					<linearGradient id="SVGID_11_" gradientUnits="userSpaceOnUse" x1="364.7236" y1="232.5211" x2="1219.3397" y2="232.5211">
						<stop  offset="0" style="stop-color:#F5F6F8"/>
						<stop  offset="0.5108" style="stop-color:#2B4163"/>
						<stop  offset="1" style="stop-color:#F4DDB8"/>
					</linearGradient>
					<polygon class="st10" points="367.3,233.3 363.9,232.9 364,231.8 367.5,232.1 					"/>
				</g>
				<g>
					<linearGradient id="SVGID_12_" gradientUnits="userSpaceOnUse" x1="364.7236" y1="254.8211" x2="1219.3397" y2="254.8211">
						<stop  offset="0" style="stop-color:#F5F6F8"/>
						<stop  offset="0.5108" style="stop-color:#2B4163"/>
						<stop  offset="1" style="stop-color:#F4DDB8"/>
					</linearGradient>
					<path class="st11" d="M792.7,277.8l-3.4-0.4l0.1-1.1l3.2,0.3l3.6-0.4l0.1,1.1L792.7,277.8z M782.4,276.7l-6.9-0.7l0.1-1.1
						l6.9,0.7L782.4,276.7z M803.3,276.7l-0.1-1.1l6.9-0.7l0.1,1.1L803.3,276.7z M768.5,275.3l-6.9-0.7l0.1-1.1l6.9,0.7L768.5,275.3
						z M817.1,275.2L817,274l6.9-0.7l0.1,1.1L817.1,275.2z M754.7,273.8l-6.9-0.7l0.1-1.1l6.9,0.7L754.7,273.8z M830.9,273.7
						l-0.1-1.1l6.9-0.7l0.1,1.1L830.9,273.7z M740.9,272.4l-6.9-0.7l0.1-1.1l6.9,0.7L740.9,272.4z M844.7,272.2l-0.1-1.1l6.9-0.7
						l0.1,1.1L844.7,272.2z M727,270.9l-6.9-0.7l0.1-1.1l6.9,0.7L727,270.9z M858.6,270.7l-0.1-1.1l6.9-0.7l0.1,1.1L858.6,270.7z
						 M713.2,269.5l-6.9-0.7l0.1-1.1l6.9,0.7L713.2,269.5z M872.4,269.3l-0.1-1.1l6.9-0.7l0.1,1.1L872.4,269.3z M699.4,268l-6.9-0.7
						l0.1-1.1l6.9,0.7L699.4,268z M886.2,267.8l-0.1-1.1l6.9-0.7l0.1,1.1L886.2,267.8z M685.5,266.6l-6.9-0.7l0.1-1.1l6.9,0.7
						L685.5,266.6z M900.1,266.3l-0.1-1.1l6.9-0.7l0.1,1.1L900.1,266.3z M671.7,265.1l-6.9-0.7l0.1-1.1l6.9,0.7L671.7,265.1z
						 M913.9,264.8l-0.1-1.1l6.9-0.7l0.1,1.1L913.9,264.8z M657.9,263.7l-6.9-0.7l0.1-1.1l6.9,0.7L657.9,263.7z M927.7,263.3
						l-0.1-1.1l6.9-0.7l0.1,1.1L927.7,263.3z M644,262.2l-6.9-0.7l0.1-1.1l6.9,0.7L644,262.2z M941.6,261.9l-0.1-1.1l6.9-0.7
						l0.1,1.1L941.6,261.9z M630.2,260.8l-6.9-0.7l0.1-1.1l6.9,0.7L630.2,260.8z M955.4,260.4l-0.1-1.1l6.9-0.7l0.1,1.1L955.4,260.4
						z M616.4,259.3l-6.9-0.7l0.1-1.1l6.9,0.7L616.4,259.3z M969.2,258.9l-0.1-1.1l6.9-0.7l0.1,1.1L969.2,258.9z M602.5,257.9
						l-6.9-0.7l0.1-1.1l6.9,0.7L602.5,257.9z M983.1,257.4l-0.1-1.1l6.9-0.7l0.1,1.1L983.1,257.4z M588.7,256.5l-6.9-0.7l0.1-1.1
						l6.9,0.7L588.7,256.5z M996.9,255.9l-0.1-1.1l6.9-0.7l0.1,1.1L996.9,255.9z M574.9,255l-6.9-0.7l0.1-1.1l6.9,0.7L574.9,255z
						 M1010.7,254.5l-0.1-1.1l6.9-0.7l0.1,1.1L1010.7,254.5z M561,253.6l-6.9-0.7l0.1-1.1l6.9,0.7L561,253.6z M1024.6,253l-0.1-1.1
						l6.9-0.7l0.1,1.1L1024.6,253z M547.2,252.1l-6.9-0.7l0.1-1.1l6.9,0.7L547.2,252.1z M1038.4,251.5l-0.1-1.1l6.9-0.7l0.1,1.1
						L1038.4,251.5z M533.3,250.7l-6.9-0.7l0.1-1.1l6.9,0.7L533.3,250.7z M1052.2,250l-0.1-1.1l6.9-0.7l0.1,1.1L1052.2,250z
						 M519.5,249.2l-6.9-0.7l0.1-1.1l6.9,0.7L519.5,249.2z M1066.1,248.5l-0.1-1.1l6.9-0.7l0.1,1.1L1066.1,248.5z M505.7,247.8
						l-6.9-0.7l0.1-1.1l6.9,0.7L505.7,247.8z M1079.9,247.1l-0.1-1.1l6.9-0.7l0.1,1.1L1079.9,247.1z M491.8,246.3l-6.9-0.7l0.1-1.1
						l6.9,0.7L491.8,246.3z M1093.7,245.6l-0.1-1.1l6.9-0.7l0.1,1.1L1093.7,245.6z M478,244.9l-6.9-0.7l0.1-1.1l6.9,0.7L478,244.9z
						 M1107.6,244.1l-0.1-1.1l6.9-0.7l0.1,1.1L1107.6,244.1z M464.2,243.4l-6.9-0.7l0.1-1.1l6.9,0.7L464.2,243.4z M1121.4,242.6
						l-0.1-1.1l6.9-0.7l0.1,1.1L1121.4,242.6z M450.3,242l-6.9-0.7l0.1-1.1l6.9,0.7L450.3,242z M1135.2,241.1l-0.1-1.1l6.9-0.7
						l0.1,1.1L1135.2,241.1z M436.5,240.5l-6.9-0.7l0.1-1.1l6.9,0.7L436.5,240.5z M1149,239.6l-0.1-1.1l6.9-0.7l0.1,1.1L1149,239.6z
						 M422.7,239.1l-6.9-0.7l0.1-1.1l6.9,0.7L422.7,239.1z M1162.9,238.2l-0.1-1.1l6.9-0.7l0.1,1.1L1162.9,238.2z M408.8,237.6
						l-6.9-0.7l0.1-1.1l6.9,0.7L408.8,237.6z M1176.7,236.7l-0.1-1.1l6.9-0.7l0.1,1.1L1176.7,236.7z M395,236.2l-6.9-0.7l0.1-1.1
						l6.9,0.7L395,236.2z M1190.5,235.2l-0.1-1.1l6.9-0.7l0.1,1.1L1190.5,235.2z M381.2,234.7l-6.9-0.7l0.1-1.1l6.9,0.7L381.2,234.7
						z M1204.4,233.7l-0.1-1.1l6.9-0.7l0.1,1.1L1204.4,233.7z"/>
				</g>
				<g>
					<linearGradient id="SVGID_13_" gradientUnits="userSpaceOnUse" x1="364.7236" y1="231.6273" x2="1219.3397" y2="231.6273">
						<stop  offset="0" style="stop-color:#F5F6F8"/>
						<stop  offset="0.5108" style="stop-color:#2B4163"/>
						<stop  offset="1" style="stop-color:#F4DDB8"/>
					</linearGradient>
					<polygon class="st12" points="1216.9,232.4 1216.8,231.2 1220.2,230.9 1220.3,232 					"/>
				</g>
			</g>
			<g>
				<g>
					<linearGradient id="SVGID_14_" gradientUnits="userSpaceOnUse" x1="364.7236" y1="255.1947" x2="1219.3397" y2="255.1947">
						<stop  offset="0" style="stop-color:#F5F6F8"/>
						<stop  offset="0.5108" style="stop-color:#2B4163"/>
						<stop  offset="1" style="stop-color:#F4DDB8"/>
					</linearGradient>
					<polygon class="st13" points="367,255.9 363.5,255.6 363.6,254.5 367.1,254.8 					"/>
				</g>
				<g>
					<linearGradient id="SVGID_15_" gradientUnits="userSpaceOnUse" x1="364.7236" y1="274.289" x2="1219.3397" y2="274.289">
						<stop  offset="0" style="stop-color:#F5F6F8"/>
						<stop  offset="0.5108" style="stop-color:#2B4163"/>
						<stop  offset="1" style="stop-color:#F4DDB8"/>
					</linearGradient>
					<path class="st14" d="M792.6,294.1l-3.2-0.3l0.1-1.1l3.1,0.3l3.7-0.3l0.1,1.1L792.6,294.1z M782.4,293.2l-6.9-0.6l0.1-1.1
						l6.9,0.6L782.4,293.2z M803.3,293.1l-0.1-1.1l6.9-0.6l0.1,1.1L803.3,293.1z M768.6,291.9l-6.9-0.6l0.1-1.1l6.9,0.6L768.6,291.9
						z M817.2,291.8l-0.1-1.1l6.9-0.6l0.1,1.1L817.2,291.8z M754.7,290.7l-6.9-0.6l0.1-1.1l6.9,0.6L754.7,290.7z M831,290.6
						l-0.1-1.1l6.9-0.6l0.1,1.1L831,290.6z M740.9,289.5l-6.9-0.6l0.1-1.1l6.9,0.6L740.9,289.5z M844.8,289.3l-0.1-1.1l6.9-0.6
						l0.1,1.1L844.8,289.3z M727,288.2l-6.9-0.6l0.1-1.1l6.9,0.6L727,288.2z M858.7,288l-0.1-1.1l6.9-0.6l0.1,1.1L858.7,288z
						 M713.2,287l-6.9-0.6l0.1-1.1l6.9,0.6L713.2,287z M872.5,286.8l-0.1-1.1l6.9-0.6l0.1,1.1L872.5,286.8z M699.3,285.7l-6.9-0.6
						l0.1-1.1l6.9,0.6L699.3,285.7z M886.4,285.5l-0.1-1.1l6.9-0.6l0.1,1.1L886.4,285.5z M685.5,284.5l-6.9-0.6l0.1-1.1l6.9,0.6
						L685.5,284.5z M900.2,284.2l-0.1-1.1l6.9-0.6l0.1,1.1L900.2,284.2z M671.6,283.3l-6.9-0.6l0.1-1.1l6.9,0.6L671.6,283.3z
						 M914.1,282.9l-0.1-1.1l6.9-0.6l0.1,1.1L914.1,282.9z M657.8,282l-6.9-0.6l0.1-1.1l6.9,0.6L657.8,282z M927.9,281.7l-0.1-1.1
						l6.9-0.6l0.1,1.1L927.9,281.7z M643.9,280.8l-6.9-0.6l0.1-1.1l6.9,0.6L643.9,280.8z M941.8,280.4l-0.1-1.1l6.9-0.6l0.1,1.1
						L941.8,280.4z M630.1,279.5l-6.9-0.6l0.1-1.1l6.9,0.6L630.1,279.5z M955.6,279.1l-0.1-1.1l6.9-0.6l0.1,1.1L955.6,279.1z
						 M616.2,278.3l-6.9-0.6l0.1-1.1l6.9,0.6L616.2,278.3z M969.5,277.9l-0.1-1.1l6.9-0.6l0.1,1.1L969.5,277.9z M602.4,277l-6.9-0.6
						l0.1-1.1l6.9,0.6L602.4,277z M983.3,276.6l-0.1-1.1l6.9-0.6l0.1,1.1L983.3,276.6z M588.5,275.8l-6.9-0.6l0.1-1.1l6.9,0.6
						L588.5,275.8z M997.2,275.3l-0.1-1.1l6.9-0.6l0.1,1.1L997.2,275.3z M574.7,274.6l-6.9-0.6l0.1-1.1l6.9,0.6L574.7,274.6z
						 M1011,274.1l-0.1-1.1l6.9-0.6l0.1,1.1L1011,274.1z M560.8,273.3l-6.9-0.6l0.1-1.1l6.9,0.6L560.8,273.3z M1024.9,272.8
						l-0.1-1.1l6.9-0.6l0.1,1.1L1024.9,272.8z M547,272.1l-6.9-0.6l0.1-1.1l6.9,0.6L547,272.1z M1038.7,271.5l-0.1-1.1l6.9-0.6
						l0.1,1.1L1038.7,271.5z M533.1,270.8l-6.9-0.6l0.1-1.1l6.9,0.6L533.1,270.8z M1052.5,270.2l-0.1-1.1l6.9-0.6l0.1,1.1
						L1052.5,270.2z M519.3,269.6l-6.9-0.6l0.1-1.1l6.9,0.6L519.3,269.6z M1066.4,269l-0.1-1.1l6.9-0.6l0.1,1.1L1066.4,269z
						 M505.4,268.3l-6.9-0.6l0.1-1.1l6.9,0.6L505.4,268.3z M1080.2,267.7l-0.1-1.1l6.9-0.6l0.1,1.1L1080.2,267.7z M491.6,267.1
						l-6.9-0.6l0.1-1.1l6.9,0.6L491.6,267.1z M1094.1,266.4l-0.1-1.1l6.9-0.6l0.1,1.1L1094.1,266.4z M477.7,265.9l-6.9-0.6l0.1-1.1
						l6.9,0.6L477.7,265.9z M1107.9,265.2l-0.1-1.1l6.9-0.6l0.1,1.1L1107.9,265.2z M463.9,264.6L457,264l0.1-1.1l6.9,0.6
						L463.9,264.6z M1121.8,263.9l-0.1-1.1l6.9-0.6l0.1,1.1L1121.8,263.9z M450,263.4l-6.9-0.6l0.1-1.1l6.9,0.6L450,263.4z
						 M1135.6,262.6l-0.1-1.1l6.9-0.6l0.1,1.1L1135.6,262.6z M436.2,262.1l-6.9-0.6l0.1-1.1l6.9,0.6L436.2,262.1z M1149.5,261.4
						l-0.1-1.1l6.9-0.6l0.1,1.1L1149.5,261.4z M422.3,260.9l-6.9-0.6l0.1-1.1l6.9,0.6L422.3,260.9z M1163.3,260.1l-0.1-1.1l6.9-0.6
						l0.1,1.1L1163.3,260.1z M408.5,259.6l-6.9-0.6l0.1-1.1l6.9,0.6L408.5,259.6z M1177.2,258.8l-0.1-1.1l6.9-0.6l0.1,1.1
						L1177.2,258.8z M394.6,258.4l-6.9-0.6l0.1-1.1l6.9,0.6L394.6,258.4z M1191,257.5l-0.1-1.1l6.9-0.6l0.1,1.1L1191,257.5z
						 M380.8,257.2l-6.9-0.6l0.1-1.1l6.9,0.6L380.8,257.2z M1204.9,256.3l-0.1-1.1l6.9-0.6l0.1,1.1L1204.9,256.3z"/>
				</g>
				<g>
					<linearGradient id="SVGID_16_" gradientUnits="userSpaceOnUse" x1="364.7236" y1="254.4288" x2="1219.3397" y2="254.4288">
						<stop  offset="0" style="stop-color:#F5F6F8"/>
						<stop  offset="0.5108" style="stop-color:#2B4163"/>
						<stop  offset="1" style="stop-color:#F4DDB8"/>
					</linearGradient>
					<polygon class="st15" points="1217,255.2 1216.9,254 1220.3,253.7 1220.4,254.8 					"/>
				</g>
			</g>
			<g>
				<g>
					<linearGradient id="SVGID_17_" gradientUnits="userSpaceOnUse" x1="364.7236" y1="277.8683" x2="1219.3397" y2="277.8683">
						<stop  offset="0" style="stop-color:#F5F6F8"/>
						<stop  offset="0.5108" style="stop-color:#2B4163"/>
						<stop  offset="1" style="stop-color:#F4DDB8"/>
					</linearGradient>
					<polygon class="st16" points="366.6,278.6 363.1,278.3 363.2,277.2 366.7,277.4 					"/>
				</g>
				<g>
					<linearGradient id="SVGID_18_" gradientUnits="userSpaceOnUse" x1="364.7236" y1="293.7728" x2="1219.3397" y2="293.7728">
						<stop  offset="0" style="stop-color:#F5F6F8"/>
						<stop  offset="0.5108" style="stop-color:#2B4163"/>
						<stop  offset="1" style="stop-color:#F4DDB8"/>
					</linearGradient>
					<path class="st17" d="M792.4,310.4l-3.1-0.2l0.1-1.2l3,0.2l3.8-0.3l0.1,1.2L792.4,310.4z M782.4,309.6l-6.9-0.5l0.1-1.2
						l6.9,0.5L782.4,309.6z M803.3,309.5l-0.1-1.2l6.9-0.5l0.1,1.2L803.3,309.5z M768.5,308.6l-6.9-0.5l0.1-1.2l6.9,0.5L768.5,308.6
						z M817.1,308.5l-0.1-1.2l6.9-0.5l0.1,1.2L817.1,308.5z M754.7,307.6l-6.9-0.5l0.1-1.2l6.9,0.5L754.7,307.6z M831,307.4
						l-0.1-1.2l6.9-0.5l0.1,1.2L831,307.4z M740.8,306.5l-6.9-0.5l0.1-1.2l6.9,0.5L740.8,306.5z M844.8,306.4l-0.1-1.2l6.9-0.5
						l0.1,1.2L844.8,306.4z M726.9,305.5L720,305l0.1-1.2l6.9,0.5L726.9,305.5z M858.7,305.3l-0.1-1.2l6.9-0.5l0.1,1.2L858.7,305.3z
						 M713.1,304.5l-6.9-0.5l0.1-1.2l6.9,0.5L713.1,304.5z M872.6,304.3l-0.1-1.2l6.9-0.5l0.1,1.2L872.6,304.3z M699.2,303.4
						l-6.9-0.5l0.1-1.2l6.9,0.5L699.2,303.4z M886.4,303.2l-0.1-1.2l6.9-0.5l0.1,1.2L886.4,303.2z M685.4,302.4l-6.9-0.5l0.1-1.2
						l6.9,0.5L685.4,302.4z M900.3,302.1l-0.1-1.2l6.9-0.5l0.1,1.2L900.3,302.1z M671.5,301.4l-6.9-0.5l0.1-1.2l6.9,0.5L671.5,301.4
						z M914.1,301.1l-0.1-1.2l6.9-0.5l0.1,1.2L914.1,301.1z M657.6,300.3l-6.9-0.5l0.1-1.2l6.9,0.5L657.6,300.3z M928,300l-0.1-1.2
						l6.9-0.5l0.1,1.2L928,300z M643.8,299.3l-6.9-0.5l0.1-1.2l6.9,0.5L643.8,299.3z M941.8,299l-0.1-1.2l6.9-0.5l0.1,1.2L941.8,299
						z M629.9,298.2l-6.9-0.5l0.1-1.2l6.9,0.5L629.9,298.2z M955.7,297.9l-0.1-1.2l6.9-0.5l0.1,1.2L955.7,297.9z M616.1,297.2
						l-6.9-0.5l0.1-1.2l6.9,0.5L616.1,297.2z M969.6,296.8l-0.1-1.2l6.9-0.5l0.1,1.2L969.6,296.8z M602.2,296.2l-6.9-0.5l0.1-1.2
						l6.9,0.5L602.2,296.2z M983.4,295.8l-0.1-1.2l6.9-0.5l0.1,1.2L983.4,295.8z M588.3,295.1l-6.9-0.5l0.1-1.2l6.9,0.5L588.3,295.1
						z M997.3,294.7l-0.1-1.2l6.9-0.5l0.1,1.2L997.3,294.7z M574.5,294.1l-6.9-0.5l0.1-1.2l6.9,0.5L574.5,294.1z M1011.1,293.7
						l-0.1-1.2l6.9-0.5l0.1,1.2L1011.1,293.7z M560.6,293.1l-6.9-0.5l0.1-1.2l6.9,0.5L560.6,293.1z M1025,292.6l-0.1-1.2l6.9-0.5
						l0.1,1.2L1025,292.6z M546.8,292l-6.9-0.5l0.1-1.2l6.9,0.5L546.8,292z M1038.9,291.6l-0.1-1.2l6.9-0.5l0.1,1.2L1038.9,291.6z
						 M532.9,291l-6.9-0.5l0.1-1.2l6.9,0.5L532.9,291z M1052.7,290.5l-0.1-1.2l6.9-0.5l0.1,1.2L1052.7,290.5z M519,290l-6.9-0.5
						l0.1-1.2l6.9,0.5L519,290z M1066.6,289.4l-0.1-1.2l6.9-0.5l0.1,1.2L1066.6,289.4z M505.2,288.9l-6.9-0.5l0.1-1.2l6.9,0.5
						L505.2,288.9z M1080.4,288.4l-0.1-1.2l6.9-0.5l0.1,1.2L1080.4,288.4z M491.3,287.9l-6.9-0.5l0.1-1.2l6.9,0.5L491.3,287.9z
						 M1094.3,287.3l-0.1-1.2l6.9-0.5l0.1,1.2L1094.3,287.3z M477.5,286.9l-6.9-0.5l0.1-1.2l6.9,0.5L477.5,286.9z M1108.1,286.3
						l-0.1-1.2l6.9-0.5l0.1,1.2L1108.1,286.3z M463.6,285.8l-6.9-0.5l0.1-1.2l6.9,0.5L463.6,285.8z M1122,285.2l-0.1-1.2l6.9-0.5
						l0.1,1.2L1122,285.2z M449.7,284.8l-6.9-0.5l0.1-1.2l6.9,0.5L449.7,284.8z M1135.9,284.1l-0.1-1.2l6.9-0.5l0.1,1.2
						L1135.9,284.1z M435.9,283.7l-6.9-0.5l0.1-1.2l6.9,0.5L435.9,283.7z M1149.7,283.1l-0.1-1.2l6.9-0.5l0.1,1.2L1149.7,283.1z
						 M422,282.7l-6.9-0.5l0.1-1.2l6.9,0.5L422,282.7z M1163.6,282l-0.1-1.2l6.9-0.5l0.1,1.2L1163.6,282z M408.2,281.7l-6.9-0.5
						l0.1-1.2l6.9,0.5L408.2,281.7z M1177.4,281l-0.1-1.2l6.9-0.5l0.1,1.2L1177.4,281z M394.3,280.6l-6.9-0.5l0.1-1.2l6.9,0.5
						L394.3,280.6z M1191.3,279.9l-0.1-1.2l6.9-0.5l0.1,1.2L1191.3,279.9z M380.4,279.6l-6.9-0.5l0.1-1.2l6.9,0.5L380.4,279.6z
						 M1205.2,278.8l-0.1-1.2l6.9-0.5l0.1,1.2L1205.2,278.8z"/>
				</g>
				<g>
					<linearGradient id="SVGID_19_" gradientUnits="userSpaceOnUse" x1="364.7236" y1="277.2303" x2="1219.3397" y2="277.2303">
						<stop  offset="0" style="stop-color:#F5F6F8"/>
						<stop  offset="0.5108" style="stop-color:#2B4163"/>
						<stop  offset="1" style="stop-color:#F4DDB8"/>
					</linearGradient>
					<polygon class="st18" points="1217.1,277.9 1217,276.8 1220.5,276.5 1220.5,277.7 					"/>
				</g>
			</g>
			<g>
				<g>
					<linearGradient id="SVGID_20_" gradientUnits="userSpaceOnUse" x1="364.7236" y1="300.5422" x2="1219.3397" y2="300.5422">
						<stop  offset="0" style="stop-color:#F5F6F8"/>
						<stop  offset="0.5108" style="stop-color:#2B4163"/>
						<stop  offset="1" style="stop-color:#F4DDB8"/>
					</linearGradient>
					<polygon class="st19" points="366.2,301.2 362.8,301 362.8,299.9 366.3,300.1 					"/>
				</g>
				<g>
					<linearGradient id="SVGID_21_" gradientUnits="userSpaceOnUse" x1="364.7236" y1="313.2658" x2="1219.3397" y2="313.2658">
						<stop  offset="0" style="stop-color:#F5F6F8"/>
						<stop  offset="0.5108" style="stop-color:#2B4163"/>
						<stop  offset="1" style="stop-color:#F4DDB8"/>
					</linearGradient>
					<path class="st20" d="M792.3,326.7l-3.1-0.2l0.1-1.2l3,0.2l3.9-0.2l0.1,1.2L792.3,326.7z M782.2,326.1l-6.9-0.4l0.1-1.2
						l6.9,0.4L782.2,326.1z M803.1,326l-0.1-1.2l6.9-0.4l0.1,1.2L803.1,326z M768.4,325.2l-6.9-0.4l0.1-1.2l6.9,0.4L768.4,325.2z
						 M817,325.2l-0.1-1.2l6.9-0.4l0.1,1.2L817,325.2z M754.5,324.4l-6.9-0.4l0.1-1.2l6.9,0.4L754.5,324.4z M830.9,324.3l-0.1-1.2
						l6.9-0.4l0.1,1.2L830.9,324.3z M740.6,323.6l-6.9-0.4l0.1-1.2l6.9,0.4L740.6,323.6z M844.7,323.5l-0.1-1.2l6.9-0.4l0.1,1.2
						L844.7,323.5z M726.8,322.8l-6.9-0.4l0.1-1.2l6.9,0.4L726.8,322.8z M858.6,322.6l-0.1-1.2l6.9-0.4l0.1,1.2L858.6,322.6z
						 M712.9,321.9l-6.9-0.4l0.1-1.2l6.9,0.4L712.9,321.9z M872.5,321.8l-0.1-1.2l6.9-0.4l0.1,1.2L872.5,321.8z M699,321.1l-6.9-0.4
						l0.1-1.2l6.9,0.4L699,321.1z M886.3,320.9l-0.1-1.2l6.9-0.4l0.1,1.2L886.3,320.9z M685.2,320.3l-6.9-0.4l0.1-1.2l6.9,0.4
						L685.2,320.3z M900.2,320.1l-0.1-1.2l6.9-0.4l0.1,1.2L900.2,320.1z M671.3,319.4l-6.9-0.4l0.1-1.2l6.9,0.4L671.3,319.4z
						 M914.1,319.2l-0.1-1.2l6.9-0.4l0.1,1.2L914.1,319.2z M657.4,318.6l-6.9-0.4l0.1-1.2l6.9,0.4L657.4,318.6z M927.9,318.4
						l-0.1-1.2l6.9-0.4l0.1,1.2L927.9,318.4z M643.6,317.8l-6.9-0.4l0.1-1.2l6.9,0.4L643.6,317.8z M941.8,317.5l-0.1-1.2l6.9-0.4
						l0.1,1.2L941.8,317.5z M629.7,317l-6.9-0.4l0.1-1.2l6.9,0.4L629.7,317z M955.7,316.7l-0.1-1.2l6.9-0.4l0.1,1.2L955.7,316.7z
						 M615.8,316.1l-6.9-0.4l0.1-1.2l6.9,0.4L615.8,316.1z M969.5,315.8l-0.1-1.2l6.9-0.4l0.1,1.2L969.5,315.8z M602,315.3l-6.9-0.4
						l0.1-1.2l6.9,0.4L602,315.3z M983.4,315l-0.1-1.2l6.9-0.4l0.1,1.2L983.4,315z M588.1,314.5l-6.9-0.4l0.1-1.2l6.9,0.4
						L588.1,314.5z M997.3,314.1l-0.1-1.2l6.9-0.4l0.1,1.2L997.3,314.1z M574.2,313.6l-6.9-0.4l0.1-1.2l6.9,0.4L574.2,313.6z
						 M1011.1,313.3l-0.1-1.2l6.9-0.4l0.1,1.2L1011.1,313.3z M560.4,312.8l-6.9-0.4l0.1-1.2l6.9,0.4L560.4,312.8z M1025,312.5
						l-0.1-1.2l6.9-0.4l0.1,1.2L1025,312.5z M546.5,312l-6.9-0.4l0.1-1.2l6.9,0.4L546.5,312z M1038.9,311.6l-0.1-1.2l6.9-0.4
						l0.1,1.2L1038.9,311.6z M532.6,311.2l-6.9-0.4l0.1-1.2l6.9,0.4L532.6,311.2z M1052.7,310.8l-0.1-1.2l6.9-0.4l0.1,1.2
						L1052.7,310.8z M518.8,310.3l-6.9-0.4l0.1-1.2l6.9,0.4L518.8,310.3z M1066.6,309.9l-0.1-1.2l6.9-0.4l0.1,1.2L1066.6,309.9z
						 M504.9,309.5l-6.9-0.4l0.1-1.2l6.9,0.4L504.9,309.5z M1080.5,309.1l-0.1-1.2l6.9-0.4l0.1,1.2L1080.5,309.1z M491,308.7
						l-6.9-0.4l0.1-1.2l6.9,0.4L491,308.7z M1094.3,308.2l-0.1-1.2l6.9-0.4l0.1,1.2L1094.3,308.2z M477.1,307.8l-6.9-0.4l0.1-1.2
						l6.9,0.4L477.1,307.8z M1108.2,307.4l-0.1-1.2l6.9-0.4l0.1,1.2L1108.2,307.4z M463.3,307l-6.9-0.4l0.1-1.2l6.9,0.4L463.3,307z
						 M1122.1,306.5l-0.1-1.2l6.9-0.4l0.1,1.2L1122.1,306.5z M449.4,306.2l-6.9-0.4l0.1-1.2l6.9,0.4L449.4,306.2z M1135.9,305.7
						l-0.1-1.2l6.9-0.4l0.1,1.2L1135.9,305.7z M435.5,305.4l-6.9-0.4l0.1-1.2l6.9,0.4L435.5,305.4z M1149.8,304.8l-0.1-1.2l6.9-0.4
						l0.1,1.2L1149.8,304.8z M421.7,304.5l-6.9-0.4l0.1-1.2l6.9,0.4L421.7,304.5z M1163.7,304l-0.1-1.2l6.9-0.4l0.1,1.2L1163.7,304z
						 M407.8,303.7l-6.9-0.4l0.1-1.2l6.9,0.4L407.8,303.7z M1177.5,303.1l-0.1-1.2l6.9-0.4l0.1,1.2L1177.5,303.1z M393.9,302.9
						l-6.9-0.4l0.1-1.2l6.9,0.4L393.9,302.9z M1191.4,302.3l-0.1-1.2l6.9-0.4l0.1,1.2L1191.4,302.3z M380.1,302l-6.9-0.4l0.1-1.2
						l6.9,0.4L380.1,302z M1205.3,301.4l-0.1-1.2l6.9-0.4l0.1,1.2L1205.3,301.4z"/>
				</g>
				<g>
					<linearGradient id="SVGID_22_" gradientUnits="userSpaceOnUse" x1="364.7236" y1="300.0313" x2="1219.3397" y2="300.0313">
						<stop  offset="0" style="stop-color:#F5F6F8"/>
						<stop  offset="0.5108" style="stop-color:#2B4163"/>
						<stop  offset="1" style="stop-color:#F4DDB8"/>
					</linearGradient>
					<polygon class="st21" points="1217.2,300.7 1217.2,299.6 1220.6,299.4 1220.7,300.5 					"/>
				</g>
			</g>
			<g>
				<g>
					<linearGradient id="SVGID_23_" gradientUnits="userSpaceOnUse" x1="364.7236" y1="323.2161" x2="1219.3397" y2="323.2161">
						<stop  offset="0" style="stop-color:#F5F6F8"/>
						<stop  offset="0.5108" style="stop-color:#2B4163"/>
						<stop  offset="1" style="stop-color:#F4DDB8"/>
					</linearGradient>
					<polygon class="st22" points="365.8,323.9 362.4,323.7 362.4,322.6 365.9,322.7 					"/>
				</g>
				<g>
					<linearGradient id="SVGID_24_" gradientUnits="userSpaceOnUse" x1="364.7236" y1="332.7628" x2="1219.3397" y2="332.7628">
						<stop  offset="0" style="stop-color:#F5F6F8"/>
						<stop  offset="0.5108" style="stop-color:#2B4163"/>
						<stop  offset="1" style="stop-color:#F4DDB8"/>
					</linearGradient>
					<path class="st23" d="M792.1,343l-3.1-0.1l0.1-1.2l3.1,0.1l3.8-0.2l0.1,1.2L792.1,343z M782,342.5l-6.9-0.3l0.1-1.2l6.9,0.3
						L782,342.5z M802.9,342.5l-0.1-1.2l6.9-0.3l0.1,1.2L802.9,342.5z M768.2,341.9l-6.9-0.3l0.1-1.2l6.9,0.3L768.2,341.9z
						 M816.8,341.8l-0.1-1.2l6.9-0.3l0.1,1.2L816.8,341.8z M754.3,341.3l-6.9-0.3l0.1-1.2l6.9,0.3L754.3,341.3z M830.6,341.2
						l-0.1-1.2l6.9-0.3l0.1,1.2L830.6,341.2z M740.4,340.6l-6.9-0.3l0.1-1.2l6.9,0.3L740.4,340.6z M844.5,340.6l-0.1-1.2l6.9-0.3
						l0.1,1.2L844.5,340.6z M726.5,340l-6.9-0.3l0.1-1.2l6.9,0.3L726.5,340z M858.4,339.9l-0.1-1.2l6.9-0.3l0.1,1.2L858.4,339.9z
						 M712.7,339.4l-6.9-0.3l0.1-1.2l6.9,0.3L712.7,339.4z M872.2,339.3l-0.1-1.2l6.9-0.3l0.1,1.2L872.2,339.3z M698.8,338.8
						l-6.9-0.3l0.1-1.2l6.9,0.3L698.8,338.8z M886.1,338.6l-0.1-1.2l6.9-0.3l0.1,1.2L886.1,338.6z M684.9,338.2l-6.9-0.3l0.1-1.2
						l6.9,0.3L684.9,338.2z M900,338l-0.1-1.2l6.9-0.3l0.1,1.2L900,338z M671,337.5l-6.9-0.3l0.1-1.2l6.9,0.3L671,337.5z
						 M913.9,337.4l-0.1-1.2l6.9-0.3l0.1,1.2L913.9,337.4z M657.2,336.9l-6.9-0.3l0.1-1.2l6.9,0.3L657.2,336.9z M927.7,336.7
						l-0.1-1.2l6.9-0.3l0.1,1.2L927.7,336.7z M643.3,336.3l-6.9-0.3l0.1-1.2l6.9,0.3L643.3,336.3z M941.6,336.1l-0.1-1.2l6.9-0.3
						l0.1,1.2L941.6,336.1z M629.4,335.7l-6.9-0.3l0.1-1.2l6.9,0.3L629.4,335.7z M955.5,335.5l-0.1-1.2l6.9-0.3l0.1,1.2L955.5,335.5
						z M615.5,335l-6.9-0.3l0.1-1.2l6.9,0.3L615.5,335z M969.4,334.8l-0.1-1.2l6.9-0.3l0.1,1.2L969.4,334.8z M601.7,334.4l-6.9-0.3
						l0.1-1.2l6.9,0.3L601.7,334.4z M983.2,334.2l-0.1-1.2l6.9-0.3l0.1,1.2L983.2,334.2z M587.8,333.8l-6.9-0.3l0.1-1.2l6.9,0.3
						L587.8,333.8z M997.1,333.6l-0.1-1.2l6.9-0.3l0.1,1.2L997.1,333.6z M573.9,333.2l-6.9-0.3l0.1-1.2l6.9,0.3L573.9,333.2z
						 M1011,332.9l-0.1-1.2l6.9-0.3l0.1,1.2L1011,332.9z M560.1,332.6l-6.9-0.3l0.1-1.2l6.9,0.3L560.1,332.6z M1024.8,332.3
						l-0.1-1.2l6.9-0.3l0.1,1.2L1024.8,332.3z M546.2,331.9l-6.9-0.3l0.1-1.2l6.9,0.3L546.2,331.9z M1038.7,331.7l-0.1-1.2l6.9-0.3
						l0.1,1.2L1038.7,331.7z M532.3,331.3l-6.9-0.3l0.1-1.2l6.9,0.3L532.3,331.3z M1052.6,331l-0.1-1.2l6.9-0.3l0.1,1.2L1052.6,331z
						 M518.4,330.7l-6.9-0.3l0.1-1.2l6.9,0.3L518.4,330.7z M1066.5,330.4l-0.1-1.2l6.9-0.3l0.1,1.2L1066.5,330.4z M504.6,330.1
						l-6.9-0.3l0.1-1.2l6.9,0.3L504.6,330.1z M1080.3,329.8l-0.1-1.2l6.9-0.3l0.1,1.2L1080.3,329.8z M490.7,329.5l-6.9-0.3l0.1-1.2
						l6.9,0.3L490.7,329.5z M1094.2,329.1l-0.1-1.2l6.9-0.3l0.1,1.2L1094.2,329.1z M476.8,328.8l-6.9-0.3l0.1-1.2l6.9,0.3
						L476.8,328.8z M1108.1,328.5l-0.1-1.2l6.9-0.3l0.1,1.2L1108.1,328.5z M462.9,328.2l-6.9-0.3l0.1-1.2l6.9,0.3L462.9,328.2z
						 M1122,327.9l-0.1-1.2l6.9-0.3l0.1,1.2L1122,327.9z M449.1,327.6l-6.9-0.3l0.1-1.2l6.9,0.3L449.1,327.6z M1135.8,327.2
						l-0.1-1.2l6.9-0.3l0.1,1.2L1135.8,327.2z M435.2,327l-6.9-0.3l0.1-1.2l6.9,0.3L435.2,327z M1149.7,326.6l-0.1-1.2l6.9-0.3
						l0.1,1.2L1149.7,326.6z M421.3,326.4l-6.9-0.3l0.1-1.2l6.9,0.3L421.3,326.4z M1163.6,325.9l-0.1-1.2l6.9-0.3l0.1,1.2
						L1163.6,325.9z M407.4,325.7l-6.9-0.3l0.1-1.2l6.9,0.3L407.4,325.7z M1177.4,325.3l-0.1-1.2l6.9-0.3l0.1,1.2L1177.4,325.3z
						 M393.6,325.1l-6.9-0.3l0.1-1.2l6.9,0.3L393.6,325.1z M1191.3,324.7l-0.1-1.2l6.9-0.3l0.1,1.2L1191.3,324.7z M379.7,324.5
						l-6.9-0.3l0.1-1.2l6.9,0.3L379.7,324.5z M1205.2,324l-0.1-1.2l6.9-0.3l0.1,1.2L1205.2,324z"/>
				</g>
				<g>
					<linearGradient id="SVGID_25_" gradientUnits="userSpaceOnUse" x1="364.7236" y1="322.8329" x2="1219.3397" y2="322.8329">
						<stop  offset="0" style="stop-color:#F5F6F8"/>
						<stop  offset="0.5108" style="stop-color:#2B4163"/>
						<stop  offset="1" style="stop-color:#F4DDB8"/>
					</linearGradient>
					<polygon class="st24" points="1217.3,323.5 1217.3,322.3 1220.7,322.2 1220.8,323.3 					"/>
				</g>
			</g>
			<g>
				<g>
					<linearGradient id="SVGID_26_" gradientUnits="userSpaceOnUse" x1="364.7236" y1="345.8897" x2="1219.3397" y2="345.8897">
						<stop  offset="0" style="stop-color:#F5F6F8"/>
						<stop  offset="0.5108" style="stop-color:#2B4163"/>
						<stop  offset="1" style="stop-color:#F4DDB8"/>
					</linearGradient>
					<polygon class="st25" points="365.5,346.5 362,346.4 362,345.3 365.5,345.4 					"/>
				</g>
				<g>
					<linearGradient id="SVGID_27_" gradientUnits="userSpaceOnUse" x1="364.7236" y1="352.2601" x2="1219.3397" y2="352.2601">
						<stop  offset="0" style="stop-color:#F5F6F8"/>
						<stop  offset="0.5108" style="stop-color:#2B4163"/>
						<stop  offset="1" style="stop-color:#F4DDB8"/>
					</linearGradient>
					<path class="st26" d="M792,359.2l-3.3-0.1l0-1.2l3.3,0.1l3.6-0.1l0,1.2L792,359.2z M781.7,358.9l-6.9-0.2l0-1.2l6.9,0.2
						L781.7,358.9z M802.6,358.9l0-1.2l6.9-0.2l0,1.2L802.6,358.9z M767.8,358.5l-6.9-0.2l0-1.2l6.9,0.2L767.8,358.5z M816.4,358.5
						l0-1.2l6.9-0.2l0,1.2L816.4,358.5z M754,358.1l-6.9-0.2l0-1.2l6.9,0.2L754,358.1z M830.3,358.1l0-1.2l6.9-0.2l0,1.2
						L830.3,358.1z M740.1,357.7l-6.9-0.2l0-1.2l6.9,0.2L740.1,357.7z M844.2,357.6l0-1.2l6.9-0.2l0,1.2L844.2,357.6z M726.2,357.3
						l-6.9-0.2l0-1.2l6.9,0.2L726.2,357.3z M858.1,357.2l0-1.2l6.9-0.2l0,1.2L858.1,357.2z M712.3,356.9l-6.9-0.2l0-1.2l6.9,0.2
						L712.3,356.9z M871.9,356.8l0-1.2l6.9-0.2l0,1.2L871.9,356.8z M698.5,356.5l-6.9-0.2l0-1.2l6.9,0.2L698.5,356.5z M885.8,356.4
						l0-1.2l6.9-0.2l0,1.2L885.8,356.4z M684.6,356l-6.9-0.2l0-1.2l6.9,0.2L684.6,356z M899.7,356l0-1.2l6.9-0.2l0,1.2L899.7,356z
						 M670.7,355.6l-6.9-0.2l0-1.2l6.9,0.2L670.7,355.6z M913.6,355.5l0-1.2l6.9-0.2l0,1.2L913.6,355.5z M656.8,355.2l-6.9-0.2
						l0-1.2l6.9,0.2L656.8,355.2z M927.4,355.1l0-1.2l6.9-0.2l0,1.2L927.4,355.1z M643,354.8l-6.9-0.2l0-1.2l6.9,0.2L643,354.8z
						 M941.3,354.7l0-1.2l6.9-0.2l0,1.2L941.3,354.7z M629.1,354.4l-6.9-0.2l0-1.2l6.9,0.2L629.1,354.4z M955.2,354.3l0-1.2l6.9-0.2
						l0,1.2L955.2,354.3z M615.2,354l-6.9-0.2l0-1.2l6.9,0.2L615.2,354z M969.1,353.8l0-1.2l6.9-0.2l0,1.2L969.1,353.8z
						 M601.3,353.6l-6.9-0.2l0-1.2l6.9,0.2L601.3,353.6z M982.9,353.4l0-1.2l6.9-0.2l0,1.2L982.9,353.4z M587.5,353.1l-6.9-0.2
						l0-1.2l6.9,0.2L587.5,353.1z M996.8,353l0-1.2l6.9-0.2l0,1.2L996.8,353z M573.6,352.7l-6.9-0.2l0-1.2l6.9,0.2L573.6,352.7z
						 M1010.7,352.6l0-1.2l6.9-0.2l0,1.2L1010.7,352.6z M559.7,352.3l-6.9-0.2l0-1.2l6.9,0.2L559.7,352.3z M1024.6,352.1l0-1.2
						l6.9-0.2l0,1.2L1024.6,352.1z M545.8,351.9l-6.9-0.2l0-1.2l6.9,0.2L545.8,351.9z M1038.4,351.7l0-1.2l6.9-0.2l0,1.2
						L1038.4,351.7z M532,351.5l-6.9-0.2l0-1.2l6.9,0.2L532,351.5z M1052.3,351.3l0-1.2l6.9-0.2l0,1.2L1052.3,351.3z M518.1,351.1
						l-6.9-0.2l0-1.2l6.9,0.2L518.1,351.1z M1066.2,350.9l0-1.2l6.9-0.2l0,1.2L1066.2,350.9z M504.2,350.7l-6.9-0.2l0-1.2l6.9,0.2
						L504.2,350.7z M1080,350.5l0-1.2l6.9-0.2l0,1.2L1080,350.5z M490.3,350.2l-6.9-0.2l0-1.2l6.9,0.2L490.3,350.2z M1093.9,350
						l0-1.2l6.9-0.2l0,1.2L1093.9,350z M476.5,349.8l-6.9-0.2l0-1.2l6.9,0.2L476.5,349.8z M1107.8,349.6l0-1.2l6.9-0.2l0,1.2
						L1107.8,349.6z M462.6,349.4l-6.9-0.2l0-1.2l6.9,0.2L462.6,349.4z M1121.7,349.2l0-1.2l6.9-0.2l0,1.2L1121.7,349.2z M448.7,349
						l-6.9-0.2l0-1.2l6.9,0.2L448.7,349z M1135.5,348.8l0-1.2l6.9-0.2l0,1.2L1135.5,348.8z M434.8,348.6l-6.9-0.2l0-1.2l6.9,0.2
						L434.8,348.6z M1149.4,348.3l0-1.2l6.9-0.2l0,1.2L1149.4,348.3z M421,348.2L414,348l0-1.2l6.9,0.2L421,348.2z M1163.3,347.9
						l0-1.2l6.9-0.2l0,1.2L1163.3,347.9z M407.1,347.8l-6.9-0.2l0-1.2l6.9,0.2L407.1,347.8z M1177.2,347.5l0-1.2l6.9-0.2l0,1.2
						L1177.2,347.5z M393.2,347.3l-6.9-0.2l0-1.2l6.9,0.2L393.2,347.3z M1191,347.1l0-1.2l6.9-0.2l0,1.2L1191,347.1z M379.3,346.9
						l-6.9-0.2l0-1.2l6.9,0.2L379.3,346.9z M1204.9,346.6l0-1.2l6.9-0.2l0,1.2L1204.9,346.6z"/>
				</g>
				<g>
					<linearGradient id="SVGID_28_" gradientUnits="userSpaceOnUse" x1="364.7236" y1="345.6344" x2="1219.3397" y2="345.6344">
						<stop  offset="0" style="stop-color:#F5F6F8"/>
						<stop  offset="0.5108" style="stop-color:#2B4163"/>
						<stop  offset="1" style="stop-color:#F4DDB8"/>
					</linearGradient>
					<polygon class="st27" points="1217.5,346.3 1217.4,345.1 1220.9,345 1220.9,346.2 					"/>
				</g>
			</g>
			<g>
				<g>
					<linearGradient id="SVGID_29_" gradientUnits="userSpaceOnUse" x1="364.7236" y1="368.5635" x2="1219.3397" y2="368.5635">
						<stop  offset="0" style="stop-color:#F5F6F8"/>
						<stop  offset="0.5108" style="stop-color:#2B4163"/>
						<stop  offset="1" style="stop-color:#F4DDB8"/>
					</linearGradient>
					<polygon class="st28" points="365.1,369.2 361.6,369.1 361.7,368 365.1,368 					"/>
				</g>
				<g>
					<linearGradient id="SVGID_30_" gradientUnits="userSpaceOnUse" x1="364.7236" y1="371.7528" x2="1219.3397" y2="371.7528">
						<stop  offset="0" style="stop-color:#F5F6F8"/>
						<stop  offset="0.5108" style="stop-color:#2B4163"/>
						<stop  offset="1" style="stop-color:#F4DDB8"/>
					</linearGradient>
					<path class="st29" d="M791.8,375.5l-3.6-0.1l0-1.2l3.6,0.1l3.4-0.1l0,1.2L791.8,375.5z M781.3,375.4l-6.9-0.1l0-1.2l6.9,0.1
						L781.3,375.4z M802.1,375.4l0-1.2l6.9-0.1l0,1.2L802.1,375.4z M767.4,375.2l-6.9-0.1l0-1.2l6.9,0.1L767.4,375.2z M816,375.2
						l0-1.2l6.9-0.1l0,1.2L816,375.2z M753.6,375l-6.9-0.1l0-1.2l6.9,0.1L753.6,375z M829.9,374.9l0-1.2l6.9-0.1l0,1.2L829.9,374.9z
						 M739.7,374.8l-6.9-0.1l0-1.2l6.9,0.1L739.7,374.8z M843.7,374.7l0-1.2l6.9-0.1l0,1.2L843.7,374.7z M725.8,374.5l-6.9-0.1
						l0-1.2l6.9,0.1L725.8,374.5z M857.6,374.5l0-1.2l6.9-0.1l0,1.2L857.6,374.5z M711.9,374.3l-6.9-0.1l0-1.2l6.9,0.1L711.9,374.3z
						 M871.5,374.3l0-1.2l6.9-0.1l0,1.2L871.5,374.3z M698.1,374.1l-6.9-0.1l0-1.2l6.9,0.1L698.1,374.1z M885.4,374.1l0-1.2l6.9-0.1
						l0,1.2L885.4,374.1z M684.2,373.9l-6.9-0.1l0-1.2l6.9,0.1L684.2,373.9z M899.2,373.9l0-1.2l6.9-0.1l0,1.2L899.2,373.9z
						 M670.3,373.7l-6.9-0.1l0-1.2l6.9,0.1L670.3,373.7z M913.1,373.7l0-1.2l6.9-0.1l0,1.2L913.1,373.7z M656.4,373.5l-6.9-0.1
						l0-1.2l6.9,0.1L656.4,373.5z M927,373.5l0-1.2l6.9-0.1l0,1.2L927,373.5z M642.6,373.3l-6.9-0.1l0-1.2l6.9,0.1L642.6,373.3z
						 M940.9,373.3l0-1.2l6.9-0.1l0,1.2L940.9,373.3z M628.7,373.1l-6.9-0.1l0-1.2l6.9,0.1L628.7,373.1z M954.7,373l0-1.2l6.9-0.1
						l0,1.2L954.7,373z M614.8,372.9l-6.9-0.1l0-1.2l6.9,0.1L614.8,372.9z M968.6,372.8l0-1.2l6.9-0.1l0,1.2L968.6,372.8z
						 M600.9,372.7l-6.9-0.1l0-1.2l6.9,0.1L600.9,372.7z M982.5,372.6l0-1.2l6.9-0.1l0,1.2L982.5,372.6z M587.1,372.5l-6.9-0.1
						l0-1.2l6.9,0.1L587.1,372.5z M996.4,372.4l0-1.2l6.9-0.1l0,1.2L996.4,372.4z M573.2,372.3l-6.9-0.1l0-1.2l6.9,0.1L573.2,372.3z
						 M1010.2,372.2l0-1.2l6.9-0.1l0,1.2L1010.2,372.2z M559.3,372.1l-6.9-0.1l0-1.2l6.9,0.1L559.3,372.1z M1024.1,372l0-1.2
						l6.9-0.1l0,1.2L1024.1,372z M545.4,371.9l-6.9-0.1l0-1.2l6.9,0.1L545.4,371.9z M1038,371.8l0-1.2l6.9-0.1l0,1.2L1038,371.8z
						 M531.6,371.6l-6.9-0.1l0-1.2l6.9,0.1L531.6,371.6z M1051.9,371.6l0-1.2l6.9-0.1l0,1.2L1051.9,371.6z M517.7,371.4l-6.9-0.1
						l0-1.2l6.9,0.1L517.7,371.4z M1065.7,371.4l0-1.2l6.9-0.1l0,1.2L1065.7,371.4z M503.8,371.2l-6.9-0.1l0-1.2l6.9,0.1
						L503.8,371.2z M1079.6,371.1l0-1.2l6.9-0.1l0,1.2L1079.6,371.1z M490,371l-6.9-0.1l0-1.2l6.9,0.1L490,371z M1093.5,370.9l0-1.2
						l6.9-0.1l0,1.2L1093.5,370.9z M476.1,370.8l-6.9-0.1l0-1.2l6.9,0.1L476.1,370.8z M1107.3,370.7l0-1.2l6.9-0.1l0,1.2
						L1107.3,370.7z M462.2,370.6l-6.9-0.1l0-1.2l6.9,0.1L462.2,370.6z M1121.2,370.5l0-1.2l6.9-0.1l0,1.2L1121.2,370.5z
						 M448.3,370.4l-6.9-0.1l0-1.2l6.9,0.1L448.3,370.4z M1135.1,370.3l0-1.2l6.9-0.1l0,1.2L1135.1,370.3z M434.5,370.2l-6.9-0.1
						l0-1.2l6.9,0.1L434.5,370.2z M1149,370.1l0-1.2l6.9-0.1l0,1.2L1149,370.1z M420.6,370l-6.9-0.1l0-1.2l6.9,0.1L420.6,370z
						 M1162.8,369.9l0-1.2l6.9-0.1l0,1.2L1162.8,369.9z M406.7,369.8l-6.9-0.1l0-1.2l6.9,0.1L406.7,369.8z M1176.7,369.7l0-1.2
						l6.9-0.1l0,1.2L1176.7,369.7z M392.8,369.6l-6.9-0.1l0-1.2l6.9,0.1L392.8,369.6z M1190.6,369.5l0-1.2l6.9-0.1l0,1.2
						L1190.6,369.5z M379,369.4l-6.9-0.1l0-1.2l6.9,0.1L379,369.4z M1204.5,369.2l0-1.2l6.9-0.1l0,1.2L1204.5,369.2z"/>
				</g>
				<g>
					<linearGradient id="SVGID_31_" gradientUnits="userSpaceOnUse" x1="364.7236" y1="368.4356" x2="1219.3397" y2="368.4356">
						<stop  offset="0" style="stop-color:#F5F6F8"/>
						<stop  offset="0.5108" style="stop-color:#2B4163"/>
						<stop  offset="1" style="stop-color:#F4DDB8"/>
					</linearGradient>
					<polygon class="st30" points="1217.6,369 1217.5,367.9 1221,367.8 1221,369 					"/>
				</g>
			</g>
			<g>
				<g>
					<linearGradient id="SVGID_32_" gradientUnits="userSpaceOnUse" x1="364.7236" y1="391.2372" x2="1219.3397" y2="391.2372">
						<stop  offset="0" style="stop-color:#F5F6F8"/>
						<stop  offset="0.5108" style="stop-color:#2B4163"/>
						<stop  offset="1" style="stop-color:#F4DDB8"/>
					</linearGradient>
					<rect x="361.3" y="390.7" class="st31" width="3.5" height="1.2"/>
				</g>
				<g>
					<linearGradient id="SVGID_33_" gradientUnits="userSpaceOnUse" x1="364.7236" y1="391.2372" x2="1219.3397" y2="391.2372">
						<stop  offset="0" style="stop-color:#F5F6F8"/>
						<stop  offset="0.5108" style="stop-color:#2B4163"/>
						<stop  offset="1" style="stop-color:#F4DDB8"/>
					</linearGradient>
					<path class="st32" d="M1210.7,391.8h-6.9v-1.2h6.9V391.8z M1196.9,391.8h-6.9v-1.2h6.9V391.8z M1183,391.8h-6.9v-1.2h6.9V391.8
						z M1169.1,391.8h-6.9v-1.2h6.9V391.8z M1155.3,391.8h-6.9v-1.2h6.9V391.8z M1141.4,391.8h-6.9v-1.2h6.9V391.8z M1127.5,391.8
						h-6.9v-1.2h6.9V391.8z M1113.7,391.8h-6.9v-1.2h6.9V391.8z M1099.8,391.8h-6.9v-1.2h6.9V391.8z M1085.9,391.8h-6.9v-1.2h6.9
						V391.8z M1072.1,391.8h-6.9v-1.2h6.9V391.8z M1058.2,391.8h-6.9v-1.2h6.9V391.8z M1044.3,391.8h-6.9v-1.2h6.9V391.8z
						 M1030.4,391.8h-6.9v-1.2h6.9V391.8z M1016.6,391.8h-6.9v-1.2h6.9V391.8z M1002.7,391.8h-6.9v-1.2h6.9V391.8z M988.8,391.8
						h-6.9v-1.2h6.9V391.8z M975,391.8H968v-1.2h6.9V391.8z M961.1,391.8h-6.9v-1.2h6.9V391.8z M947.2,391.8h-6.9v-1.2h6.9V391.8z
						 M933.4,391.8h-6.9v-1.2h6.9V391.8z M919.5,391.8h-6.9v-1.2h6.9V391.8z M905.6,391.8h-6.9v-1.2h6.9V391.8z M891.8,391.8h-6.9
						v-1.2h6.9V391.8z M877.9,391.8H871v-1.2h6.9V391.8z M864,391.8h-6.9v-1.2h6.9V391.8z M850.1,391.8h-6.9v-1.2h6.9V391.8z
						 M836.3,391.8h-6.9v-1.2h6.9V391.8z M822.4,391.8h-6.9v-1.2h6.9V391.8z M808.5,391.8h-6.9v-1.2h6.9V391.8z M794.7,391.8h-6.9
						v-1.2h6.9V391.8z M780.8,391.8h-6.9v-1.2h6.9V391.8z M766.9,391.8H760v-1.2h6.9V391.8z M753.1,391.8h-6.9v-1.2h6.9V391.8z
						 M739.2,391.8h-6.9v-1.2h6.9V391.8z M725.3,391.8h-6.9v-1.2h6.9V391.8z M711.5,391.8h-6.9v-1.2h6.9V391.8z M697.6,391.8h-6.9
						v-1.2h6.9V391.8z M683.7,391.8h-6.9v-1.2h6.9V391.8z M669.8,391.8h-6.9v-1.2h6.9V391.8z M656,391.8H649v-1.2h6.9V391.8z
						 M642.1,391.8h-6.9v-1.2h6.9V391.8z M628.2,391.8h-6.9v-1.2h6.9V391.8z M614.4,391.8h-6.9v-1.2h6.9V391.8z M600.5,391.8h-6.9
						v-1.2h6.9V391.8z M586.6,391.8h-6.9v-1.2h6.9V391.8z M572.8,391.8h-6.9v-1.2h6.9V391.8z M558.9,391.8H552v-1.2h6.9V391.8z
						 M545,391.8h-6.9v-1.2h6.9V391.8z M531.2,391.8h-6.9v-1.2h6.9V391.8z M517.3,391.8h-6.9v-1.2h6.9V391.8z M503.4,391.8h-6.9
						v-1.2h6.9V391.8z M489.5,391.8h-6.9v-1.2h6.9V391.8z M475.7,391.8h-6.9v-1.2h6.9V391.8z M461.8,391.8h-6.9v-1.2h6.9V391.8z
						 M447.9,391.8H441v-1.2h6.9V391.8z M434.1,391.8h-6.9v-1.2h6.9V391.8z M420.2,391.8h-6.9v-1.2h6.9V391.8z M406.3,391.8h-6.9
						v-1.2h6.9V391.8z M392.5,391.8h-6.9v-1.2h6.9V391.8z M378.6,391.8h-6.9v-1.2h6.9V391.8z"/>
				</g>
				<g>
					<linearGradient id="SVGID_34_" gradientUnits="userSpaceOnUse" x1="364.7236" y1="391.2372" x2="1219.3397" y2="391.2372">
						<stop  offset="0" style="stop-color:#F5F6F8"/>
						<stop  offset="0.5108" style="stop-color:#2B4163"/>
						<stop  offset="1" style="stop-color:#F4DDB8"/>
					</linearGradient>
					<rect x="1217.7" y="390.7" class="st33" width="3.5" height="1.2"/>
				</g>
			</g>
		</g>
		<g>
			<g>
				<g>
					<linearGradient id="SVGID_35_" gradientUnits="userSpaceOnUse" x1="364.7236" y1="595.3009" x2="1219.3397" y2="595.3009">
						<stop  offset="0" style="stop-color:#F5F6F8"/>
						<stop  offset="0.5108" style="stop-color:#2B4163"/>
						<stop  offset="1" style="stop-color:#F4DDB8"/>
					</linearGradient>
					<polygon class="st34" points="364.8,596.1 364.6,595 368.1,594.5 368.2,595.6 					"/>
				</g>
				<g>
					<linearGradient id="SVGID_36_" gradientUnits="userSpaceOnUse" x1="364.7236" y1="566.5364" x2="1219.3397" y2="566.5364">
						<stop  offset="0" style="stop-color:#F5F6F8"/>
						<stop  offset="0.5108" style="stop-color:#2B4163"/>
						<stop  offset="1" style="stop-color:#F4DDB8"/>
					</linearGradient>
					<path class="st35" d="M1209.6,595.8l-6.9-1l0.2-1.1l6.9,1L1209.6,595.8z M375.1,594.7l-0.2-1.1l6.9-0.9l0.2,1.1L375.1,594.7z
						 M1195.8,593.9l-6.9-1l0.2-1.1l6.9,1L1195.8,593.9z M388.9,592.9l-0.2-1.1l6.9-0.9l0.2,1.1L388.9,592.9z M1182,592l-6.9-1
						l0.2-1.1l6.9,1L1182,592z M402.7,591l-0.2-1.1l6.9-0.9l0.2,1.1L402.7,591z M1168.2,590.1l-6.9-1l0.2-1.1l6.9,1L1168.2,590.1z
						 M416.5,589.1l-0.2-1.1l6.9-0.9l0.2,1.1L416.5,589.1z M1154.4,588.2l-6.9-1l0.2-1.1l6.9,1L1154.4,588.2z M430.3,587.3l-0.2-1.1
						l6.9-0.9l0.2,1.1L430.3,587.3z M1140.6,586.3l-6.9-1l0.2-1.1l6.9,1L1140.6,586.3z M444.1,585.4l-0.2-1.1l6.9-0.9l0.2,1.1
						L444.1,585.4z M1126.8,584.4l-6.9-1l0.2-1.1l6.9,1L1126.8,584.4z M457.9,583.6l-0.2-1.1l6.9-0.9l0.2,1.1L457.9,583.6z
						 M1113,582.5l-6.9-1l0.2-1.1l6.9,1L1113,582.5z M471.7,581.7l-0.2-1.1l6.9-0.9l0.2,1.1L471.7,581.7z M1099.2,580.6l-6.9-1
						l0.2-1.1l6.9,1L1099.2,580.6z M485.5,579.8l-0.2-1.1l6.9-0.9l0.2,1.1L485.5,579.8z M1085.5,578.7l-6.9-1l0.2-1.1l6.9,1
						L1085.5,578.7z M499.3,578l-0.2-1.1l6.9-0.9l0.2,1.1L499.3,578z M1071.7,576.8l-6.9-1l0.2-1.1l6.9,1L1071.7,576.8z
						 M513.1,576.1L513,575l6.9-0.9l0.2,1.1L513.1,576.1z M1057.9,574.9l-6.9-1l0.2-1.1l6.9,1L1057.9,574.9z M526.9,574.3l-0.2-1.1
						l6.9-0.9l0.2,1.1L526.9,574.3z M1044.1,573l-6.9-1l0.2-1.1l6.9,1L1044.1,573z M540.7,572.4l-0.2-1.1l6.9-0.9l0.2,1.1
						L540.7,572.4z M1030.3,571.1l-6.9-1l0.2-1.1l6.9,1L1030.3,571.1z M554.5,570.5l-0.2-1.1l6.9-0.9l0.2,1.1L554.5,570.5z
						 M1016.5,569.2l-6.9-1l0.2-1.1l6.9,1L1016.5,569.2z M568.3,568.7l-0.2-1.1l6.9-0.9l0.2,1.1L568.3,568.7z M1002.7,567.3l-6.9-1
						l0.2-1.1l6.9,1L1002.7,567.3z M582.1,566.8l-0.2-1.1l6.9-0.9l0.2,1.1L582.1,566.8z M988.9,565.4l-6.9-1l0.2-1.1l6.9,1
						L988.9,565.4z M595.9,565l-0.2-1.1l6.9-0.9l0.2,1.1L595.9,565z M975.1,563.5l-6.9-1l0.2-1.1l6.9,1L975.1,563.5z M609.7,563.1
						l-0.2-1.1l6.9-0.9l0.2,1.1L609.7,563.1z M961.3,561.6l-6.9-1l0.2-1.1l6.9,1L961.3,561.6z M623.5,561.2l-0.2-1.1l6.9-0.9
						l0.2,1.1L623.5,561.2z M947.5,559.7l-6.9-1l0.2-1.1l6.9,1L947.5,559.7z M637.3,559.4l-0.2-1.1l6.9-0.9l0.2,1.1L637.3,559.4z
						 M933.7,557.8l-6.9-1l0.2-1.1l6.9,1L933.7,557.8z M651.1,557.5l-0.2-1.1l6.9-0.9l0.2,1.1L651.1,557.5z M919.9,555.9l-6.9-1
						l0.2-1.1l6.9,1L919.9,555.9z M664.9,555.7l-0.2-1.1l6.9-0.9l0.2,1.1L664.9,555.7z M906.2,554l-6.9-1l0.2-1.1l6.9,1L906.2,554z
						 M678.7,553.8l-0.2-1.1l6.9-0.9l0.2,1.1L678.7,553.8z M892.4,552.1l-6.9-1l0.2-1.1l6.9,1L892.4,552.1z M692.5,551.9l-0.2-1.1
						l6.9-0.9l0.2,1.1L692.5,551.9z M878.6,550.2l-6.9-1l0.2-1.1l6.9,1L878.6,550.2z M706.3,550.1l-0.2-1.1l6.9-0.9l0.2,1.1
						L706.3,550.1z M864.8,548.3l-6.9-1l0.2-1.1l6.9,1L864.8,548.3z M720.1,548.2l-0.2-1.1l6.9-0.9l0.2,1.1L720.1,548.2z M851,546.4
						l-6.9-1l0.2-1.1l6.9,1L851,546.4z M733.9,546.4l-0.2-1.1l6.9-0.9l0.2,1.1L733.9,546.4z M837.2,544.5l-6.9-1l0.2-1.1l6.9,1
						L837.2,544.5z M747.7,544.5l-0.2-1.1l6.9-0.9l0.2,1.1L747.7,544.5z M761.5,542.6l-0.2-1.1l6.9-0.9l0.2,1.1L761.5,542.6z
						 M823.4,542.6l-6.9-1l0.2-1.1l6.9,1L823.4,542.6z M775.3,540.8l-0.2-1.1l6.9-0.9l0.2,1.1L775.3,540.8z M809.6,540.7l-6.9-1
						l0.2-1.1l6.9,1L809.6,540.7z M789.1,538.9l-0.2-1.1l4-0.5l3,0.4l-0.2,1.1l-2.9-0.4L789.1,538.9z"/>
				</g>
				<g>
					<linearGradient id="SVGID_37_" gradientUnits="userSpaceOnUse" x1="364.7236" y1="596.45" x2="1219.3397" y2="596.45">
						<stop  offset="0" style="stop-color:#F5F6F8"/>
						<stop  offset="0.5108" style="stop-color:#2B4163"/>
						<stop  offset="1" style="stop-color:#F4DDB8"/>
					</linearGradient>
					<polygon class="st36" points="1219.9,597.3 1216.5,596.8 1216.6,595.6 1220.1,596.1 					"/>
				</g>
			</g>
			<g>
				<g>
					<linearGradient id="SVGID_38_" gradientUnits="userSpaceOnUse" x1="364.7236" y1="572.627" x2="1219.3397" y2="572.627">
						<stop  offset="0" style="stop-color:#F5F6F8"/>
						<stop  offset="0.5108" style="stop-color:#2B4163"/>
						<stop  offset="1" style="stop-color:#F4DDB8"/>
					</linearGradient>
					<polygon class="st37" points="364.4,573.4 364.3,572.3 367.7,571.8 367.8,573 					"/>
				</g>
				<g>
					<linearGradient id="SVGID_39_" gradientUnits="userSpaceOnUse" x1="364.7236" y1="547.1054" x2="1219.3397" y2="547.1054">
						<stop  offset="0" style="stop-color:#F5F6F8"/>
						<stop  offset="0.5108" style="stop-color:#2B4163"/>
						<stop  offset="1" style="stop-color:#F4DDB8"/>
					</linearGradient>
					<path class="st38" d="M1210.5,573.3l-6.9-0.8l0.1-1.1l6.9,0.8L1210.5,573.3z M374.7,572.2l-0.1-1.1l6.9-0.8l0.1,1.1
						L374.7,572.2z M1196.7,571.6l-6.9-0.8l0.1-1.1l6.9,0.8L1196.7,571.6z M388.6,570.5l-0.1-1.1l6.9-0.8l0.1,1.1L388.6,570.5z
						 M1182.8,569.9l-6.9-0.8l0.1-1.1l6.9,0.8L1182.8,569.9z M402.4,568.9l-0.1-1.1l6.9-0.8l0.1,1.1L402.4,568.9z M1169,568.2
						l-6.9-0.8l0.1-1.1l6.9,0.8L1169,568.2z M416.2,567.2l-0.1-1.1l6.9-0.8l0.1,1.1L416.2,567.2z M1155.2,566.5l-6.9-0.8l0.1-1.1
						l6.9,0.8L1155.2,566.5z M430,565.5l-0.1-1.1l6.9-0.8l0.1,1.1L430,565.5z M1141.4,564.8l-6.9-0.8l0.1-1.1l6.9,0.8L1141.4,564.8z
						 M443.8,563.9l-0.1-1.1l6.9-0.8l0.1,1.1L443.8,563.9z M1127.6,563.1l-6.9-0.8l0.1-1.1l6.9,0.8L1127.6,563.1z M457.7,562.2
						l-0.1-1.1l6.9-0.8l0.1,1.1L457.7,562.2z M1113.8,561.4l-6.9-0.8l0.1-1.1l6.9,0.8L1113.8,561.4z M471.5,560.6l-0.1-1.1l6.9-0.8
						l0.1,1.1L471.5,560.6z M1100,559.7l-6.9-0.8l0.1-1.1l6.9,0.8L1100,559.7z M485.3,558.9l-0.1-1.1l6.9-0.8l0.1,1.1L485.3,558.9z
						 M1086.1,558l-6.9-0.8l0.1-1.1l6.9,0.8L1086.1,558z M499.1,557.3l-0.1-1.1l6.9-0.8l0.1,1.1L499.1,557.3z M1072.3,556.3
						l-6.9-0.8l0.1-1.1l6.9,0.8L1072.3,556.3z M512.9,555.6l-0.1-1.1l6.9-0.8l0.1,1.1L512.9,555.6z M1058.5,554.7l-6.9-0.8l0.1-1.1
						l6.9,0.8L1058.5,554.7z M526.7,554l-0.1-1.1l6.9-0.8l0.1,1.1L526.7,554z M1044.7,553l-6.9-0.8l0.1-1.1l6.9,0.8L1044.7,553z
						 M540.6,552.3l-0.1-1.1l6.9-0.8l0.1,1.1L540.6,552.3z M1030.9,551.3l-6.9-0.8l0.1-1.1l6.9,0.8L1030.9,551.3z M554.4,550.7
						l-0.1-1.1l6.9-0.8l0.1,1.1L554.4,550.7z M1017.1,549.6l-6.9-0.8l0.1-1.1l6.9,0.8L1017.1,549.6z M568.2,549l-0.1-1.1l6.9-0.8
						l0.1,1.1L568.2,549z M1003.3,547.9l-6.9-0.8l0.1-1.1l6.9,0.8L1003.3,547.9z M582,547.4l-0.1-1.1l6.9-0.8l0.1,1.1L582,547.4z
						 M989.5,546.2l-6.9-0.8l0.1-1.1l6.9,0.8L989.5,546.2z M595.8,545.7l-0.1-1.1l6.9-0.8l0.1,1.1L595.8,545.7z M975.6,544.5
						l-6.9-0.8l0.1-1.1l6.9,0.8L975.6,544.5z M609.7,544l-0.1-1.1l6.9-0.8l0.1,1.1L609.7,544z M961.8,542.8l-6.9-0.8l0.1-1.1
						l6.9,0.8L961.8,542.8z M623.5,542.4l-0.1-1.1l6.9-0.8l0.1,1.1L623.5,542.4z M948,541.1l-6.9-0.8l0.1-1.1l6.9,0.8L948,541.1z
						 M637.3,540.7l-0.1-1.1l6.9-0.8l0.1,1.1L637.3,540.7z M934.2,539.4l-6.9-0.8l0.1-1.1l6.9,0.8L934.2,539.4z M651.1,539.1
						l-0.1-1.1l6.9-0.8l0.1,1.1L651.1,539.1z M920.4,537.7l-6.9-0.8l0.1-1.1l6.9,0.8L920.4,537.7z M664.9,537.4l-0.1-1.1l6.9-0.8
						l0.1,1.1L664.9,537.4z M906.6,536l-6.9-0.8l0.1-1.1l6.9,0.8L906.6,536z M678.7,535.8l-0.1-1.1l6.9-0.8l0.1,1.1L678.7,535.8z
						 M892.8,534.4l-6.9-0.8l0.1-1.1l6.9,0.8L892.8,534.4z M692.6,534.1l-0.1-1.1l6.9-0.8l0.1,1.1L692.6,534.1z M878.9,532.7
						l-6.9-0.8l0.1-1.1l6.9,0.8L878.9,532.7z M706.4,532.5l-0.1-1.1l6.9-0.8l0.1,1.1L706.4,532.5z M865.1,531l-6.9-0.8l0.1-1.1
						l6.9,0.8L865.1,531z M720.2,530.8l-0.1-1.1l6.9-0.8l0.1,1.1L720.2,530.8z M851.3,529.3l-6.9-0.8l0.1-1.1l6.9,0.8L851.3,529.3z
						 M734,529.2l-0.1-1.1l6.9-0.8l0.1,1.1L734,529.2z M837.5,527.6l-6.9-0.8l0.1-1.1l6.9,0.8L837.5,527.6z M747.8,527.5l-0.1-1.1
						l6.9-0.8l0.1,1.1L747.8,527.5z M823.7,525.9l-6.9-0.8l0.1-1.1l6.9,0.8L823.7,525.9z M761.7,525.8l-0.1-1.1l6.9-0.8l0.1,1.1
						L761.7,525.8z M809.9,524.2l-6.9-0.8l0.1-1.1l6.9,0.8L809.9,524.2z M775.5,524.2l-0.1-1.1l6.9-0.8l0.1,1.1L775.5,524.2z
						 M789.3,522.5l-0.1-1.1l3.6-0.4l3.4,0.4l-0.1,1.1l-3.3-0.4L789.3,522.5z"/>
				</g>
				<g>
					<linearGradient id="SVGID_40_" gradientUnits="userSpaceOnUse" x1="364.7236" y1="573.6488" x2="1219.3397" y2="573.6488">
						<stop  offset="0" style="stop-color:#F5F6F8"/>
						<stop  offset="0.5108" style="stop-color:#2B4163"/>
						<stop  offset="1" style="stop-color:#F4DDB8"/>
					</linearGradient>
					<polygon class="st39" points="1220.1,574.4 1216.6,574 1216.8,572.9 1220.2,573.3 					"/>
				</g>
			</g>
			<g>
				<g>
					<linearGradient id="SVGID_41_" gradientUnits="userSpaceOnUse" x1="364.7236" y1="549.9537" x2="1219.3397" y2="549.9537">
						<stop  offset="0" style="stop-color:#F5F6F8"/>
						<stop  offset="0.5108" style="stop-color:#2B4163"/>
						<stop  offset="1" style="stop-color:#F4DDB8"/>
					</linearGradient>
					<polygon class="st40" points="364,550.7 363.9,549.6 367.3,549.2 367.5,550.3 					"/>
				</g>
				<g>
					<linearGradient id="SVGID_42_" gradientUnits="userSpaceOnUse" x1="364.7236" y1="527.653" x2="1219.3397" y2="527.653">
						<stop  offset="0" style="stop-color:#F5F6F8"/>
						<stop  offset="0.5108" style="stop-color:#2B4163"/>
						<stop  offset="1" style="stop-color:#F4DDB8"/>
					</linearGradient>
					<path class="st41" d="M1211.2,550.6l-6.9-0.7l0.1-1.1l6.9,0.7L1211.2,550.6z M374.4,549.6l-0.1-1.1l6.9-0.7l0.1,1.1
						L374.4,549.6z M1197.3,549.2l-6.9-0.7l0.1-1.1l6.9,0.7L1197.3,549.2z M388.2,548.2l-0.1-1.1l6.9-0.7l0.1,1.1L388.2,548.2z
						 M1183.5,547.7l-6.9-0.7l0.1-1.1l6.9,0.7L1183.5,547.7z M402,546.7l-0.1-1.1l6.9-0.7l0.1,1.1L402,546.7z M1169.7,546.2
						l-6.9-0.7l0.1-1.1l6.9,0.7L1169.7,546.2z M415.9,545.3l-0.1-1.1l6.9-0.7l0.1,1.1L415.9,545.3z M1155.8,544.7l-6.9-0.7l0.1-1.1
						l6.9,0.7L1155.8,544.7z M429.7,543.8l-0.1-1.1l6.9-0.7l0.1,1.1L429.7,543.8z M1142,543.2l-6.9-0.7l0.1-1.1l6.9,0.7L1142,543.2z
						 M443.5,542.4l-0.1-1.1l6.9-0.7l0.1,1.1L443.5,542.4z M1128.2,541.8l-6.9-0.7l0.1-1.1l6.9,0.7L1128.2,541.8z M457.4,540.9
						l-0.1-1.1l6.9-0.7l0.1,1.1L457.4,540.9z M1114.3,540.3l-6.9-0.7l0.1-1.1l6.9,0.7L1114.3,540.3z M471.2,539.5l-0.1-1.1l6.9-0.7
						l0.1,1.1L471.2,539.5z M1100.5,538.8l-6.9-0.7l0.1-1.1l6.9,0.7L1100.5,538.8z M485,538l-0.1-1.1l6.9-0.7l0.1,1.1L485,538z
						 M1086.7,537.3l-6.9-0.7l0.1-1.1l6.9,0.7L1086.7,537.3z M498.9,536.6l-0.1-1.1l6.9-0.7l0.1,1.1L498.9,536.6z M1072.8,535.8
						l-6.9-0.7l0.1-1.1l6.9,0.7L1072.8,535.8z M512.7,535.1l-0.1-1.1l6.9-0.7l0.1,1.1L512.7,535.1z M1059,534.3l-6.9-0.7l0.1-1.1
						l6.9,0.7L1059,534.3z M526.5,533.7l-0.1-1.1l6.9-0.7l0.1,1.1L526.5,533.7z M1045.2,532.9l-6.9-0.7l0.1-1.1l6.9,0.7
						L1045.2,532.9z M540.4,532.2l-0.1-1.1l6.9-0.7l0.1,1.1L540.4,532.2z M1031.4,531.4l-6.9-0.7l0.1-1.1l6.9,0.7L1031.4,531.4z
						 M554.2,530.8l-0.1-1.1l6.9-0.7l0.1,1.1L554.2,530.8z M1017.5,529.9l-6.9-0.7l0.1-1.1l6.9,0.7L1017.5,529.9z M568.1,529.3
						l-0.1-1.1l6.9-0.7l0.1,1.1L568.1,529.3z M1003.7,528.4l-6.9-0.7l0.1-1.1l6.9,0.7L1003.7,528.4z M581.9,527.9l-0.1-1.1l6.9-0.7
						l0.1,1.1L581.9,527.9z M989.9,526.9l-6.9-0.7l0.1-1.1l6.9,0.7L989.9,526.9z M595.7,526.4l-0.1-1.1l6.9-0.7l0.1,1.1L595.7,526.4
						z M976,525.5l-6.9-0.7l0.1-1.1l6.9,0.7L976,525.5z M609.6,525l-0.1-1.1l6.9-0.7l0.1,1.1L609.6,525z M962.2,524l-6.9-0.7
						l0.1-1.1l6.9,0.7L962.2,524z M623.4,523.5l-0.1-1.1l6.9-0.7l0.1,1.1L623.4,523.5z M948.4,522.5l-6.9-0.7l0.1-1.1l6.9,0.7
						L948.4,522.5z M637.2,522.1l-0.1-1.1l6.9-0.7l0.1,1.1L637.2,522.1z M934.5,521l-6.9-0.7l0.1-1.1l6.9,0.7L934.5,521z
						 M651.1,520.7l-0.1-1.1l6.9-0.7l0.1,1.1L651.1,520.7z M920.7,519.5l-6.9-0.7l0.1-1.1l6.9,0.7L920.7,519.5z M664.9,519.2
						l-0.1-1.1l6.9-0.7l0.1,1.1L664.9,519.2z M906.9,518.1l-6.9-0.7l0.1-1.1l6.9,0.7L906.9,518.1z M678.7,517.8l-0.1-1.1l6.9-0.7
						l0.1,1.1L678.7,517.8z M893,516.6l-6.9-0.7l0.1-1.1l6.9,0.7L893,516.6z M692.6,516.3l-0.1-1.1l6.9-0.7l0.1,1.1L692.6,516.3z
						 M879.2,515.1l-6.9-0.7l0.1-1.1l6.9,0.7L879.2,515.1z M706.4,514.9l-0.1-1.1l6.9-0.7l0.1,1.1L706.4,514.9z M865.4,513.6
						l-6.9-0.7l0.1-1.1l6.9,0.7L865.4,513.6z M720.2,513.4l-0.1-1.1l6.9-0.7l0.1,1.1L720.2,513.4z M851.5,512.1l-6.9-0.7l0.1-1.1
						l6.9,0.7L851.5,512.1z M734.1,512l-0.1-1.1l6.9-0.7l0.1,1.1L734.1,512z M837.7,510.7l-6.9-0.7l0.1-1.1l6.9,0.7L837.7,510.7z
						 M747.9,510.5l-0.1-1.1l6.9-0.7l0.1,1.1L747.9,510.5z M823.9,509.2l-6.9-0.7l0.1-1.1l6.9,0.7L823.9,509.2z M761.7,509.1
						l-0.1-1.1l6.9-0.7l0.1,1.1L761.7,509.1z M810,507.7l-6.9-0.7l0.1-1.1l6.9,0.7L810,507.7z M775.6,507.6l-0.1-1.1l6.9-0.7
						l0.1,1.1L775.6,507.6z M796.2,506.2l-3.6-0.4l-3.2,0.3l-0.1-1.1l3.4-0.4l3.7,0.4L796.2,506.2z"/>
				</g>
				<g>
					<linearGradient id="SVGID_43_" gradientUnits="userSpaceOnUse" x1="364.7236" y1="550.847" x2="1219.3397" y2="550.847">
						<stop  offset="0" style="stop-color:#F5F6F8"/>
						<stop  offset="0.5108" style="stop-color:#2B4163"/>
						<stop  offset="1" style="stop-color:#F4DDB8"/>
					</linearGradient>
					<polygon class="st42" points="1220.2,551.6 1216.8,551.2 1216.9,550.1 1220.3,550.5 					"/>
				</g>
			</g>
			<g>
				<g>
					<linearGradient id="SVGID_44_" gradientUnits="userSpaceOnUse" x1="364.7236" y1="527.2793" x2="1219.3397" y2="527.2793">
						<stop  offset="0" style="stop-color:#F5F6F8"/>
						<stop  offset="0.5108" style="stop-color:#2B4163"/>
						<stop  offset="1" style="stop-color:#F4DDB8"/>
					</linearGradient>
					<polygon class="st43" points="363.6,528 363.5,526.9 367,526.5 367.1,527.7 					"/>
				</g>
				<g>
					<linearGradient id="SVGID_45_" gradientUnits="userSpaceOnUse" x1="364.7236" y1="508.1858" x2="1219.3397" y2="508.1858">
						<stop  offset="0" style="stop-color:#F5F6F8"/>
						<stop  offset="0.5108" style="stop-color:#2B4163"/>
						<stop  offset="1" style="stop-color:#F4DDB8"/>
					</linearGradient>
					<path class="st44" d="M1211.7,528l-6.9-0.6l0.1-1.1l6.9,0.6L1211.7,528z M374,527.1l-0.1-1.1l6.9-0.6l0.1,1.1L374,527.1z
						 M1197.8,526.7l-6.9-0.6l0.1-1.1l6.9,0.6L1197.8,526.7z M387.8,525.8l-0.1-1.1l6.9-0.6l0.1,1.1L387.8,525.8z M1184,525.4
						l-6.9-0.6l0.1-1.1l6.9,0.6L1184,525.4z M401.7,524.6l-0.1-1.1l6.9-0.6l0.1,1.1L401.7,524.6z M1170.1,524.2l-6.9-0.6l0.1-1.1
						l6.9,0.6L1170.1,524.2z M415.5,523.4l-0.1-1.1l6.9-0.6l0.1,1.1L415.5,523.4z M1156.3,522.9l-6.9-0.6l0.1-1.1l6.9,0.6
						L1156.3,522.9z M429.4,522.1l-0.1-1.1l6.9-0.6l0.1,1.1L429.4,522.1z M1142.4,521.6l-6.9-0.6l0.1-1.1l6.9,0.6L1142.4,521.6z
						 M443.2,520.9l-0.1-1.1l6.9-0.6l0.1,1.1L443.2,520.9z M1128.6,520.4l-6.9-0.6l0.1-1.1l6.9,0.6L1128.6,520.4z M457.1,519.6
						l-0.1-1.1l6.9-0.6l0.1,1.1L457.1,519.6z M1114.8,519.1l-6.9-0.6l0.1-1.1l6.9,0.6L1114.8,519.1z M470.9,518.4l-0.1-1.1l6.9-0.6
						l0.1,1.1L470.9,518.4z M1100.9,517.8l-6.9-0.6l0.1-1.1l6.9,0.6L1100.9,517.8z M484.8,517.1l-0.1-1.1l6.9-0.6l0.1,1.1
						L484.8,517.1z M1087.1,516.6l-6.9-0.6l0.1-1.1l6.9,0.6L1087.1,516.6z M498.6,515.9l-0.1-1.1l6.9-0.6l0.1,1.1L498.6,515.9z
						 M1073.2,515.3l-6.9-0.6l0.1-1.1l6.9,0.6L1073.2,515.3z M512.5,514.7l-0.1-1.1l6.9-0.6l0.1,1.1L512.5,514.7z M1059.4,514
						l-6.9-0.6l0.1-1.1l6.9,0.6L1059.4,514z M526.3,513.4l-0.1-1.1l6.9-0.6l0.1,1.1L526.3,513.4z M1045.5,512.7l-6.9-0.6l0.1-1.1
						l6.9,0.6L1045.5,512.7z M540.2,512.2l-0.1-1.1l6.9-0.6l0.1,1.1L540.2,512.2z M1031.7,511.5l-6.9-0.6l0.1-1.1l6.9,0.6
						L1031.7,511.5z M554,510.9l-0.1-1.1l6.9-0.6l0.1,1.1L554,510.9z M1017.8,510.2l-6.9-0.6l0.1-1.1l6.9,0.6L1017.8,510.2z
						 M567.9,509.7l-0.1-1.1l6.9-0.6l0.1,1.1L567.9,509.7z M1004,508.9l-6.9-0.6l0.1-1.1l6.9,0.6L1004,508.9z M581.7,508.4l-0.1-1.1
						l6.9-0.6l0.1,1.1L581.7,508.4z M990.1,507.7l-6.9-0.6l0.1-1.1l6.9,0.6L990.1,507.7z M595.6,507.2l-0.1-1.1l6.9-0.6l0.1,1.1
						L595.6,507.2z M976.3,506.4l-6.9-0.6l0.1-1.1l6.9,0.6L976.3,506.4z M609.4,506l-0.1-1.1l6.9-0.6l0.1,1.1L609.4,506z
						 M962.4,505.1l-6.9-0.6l0.1-1.1l6.9,0.6L962.4,505.1z M623.3,504.7l-0.1-1.1l6.9-0.6l0.1,1.1L623.3,504.7z M948.6,503.9
						l-6.9-0.6l0.1-1.1l6.9,0.6L948.6,503.9z M637.1,503.5l-0.1-1.1l6.9-0.6l0.1,1.1L637.1,503.5z M934.7,502.6l-6.9-0.6l0.1-1.1
						l6.9,0.6L934.7,502.6z M651,502.2l-0.1-1.1l6.9-0.6l0.1,1.1L651,502.2z M920.9,501.3l-6.9-0.6l0.1-1.1l6.9,0.6L920.9,501.3z
						 M664.8,501l-0.1-1.1l6.9-0.6l0.1,1.1L664.8,501z M907,500l-6.9-0.6l0.1-1.1l6.9,0.6L907,500z M678.7,499.8l-0.1-1.1l6.9-0.6
						l0.1,1.1L678.7,499.8z M893.2,498.8l-6.9-0.6l0.1-1.1l6.9,0.6L893.2,498.8z M692.5,498.5l-0.1-1.1l6.9-0.6l0.1,1.1L692.5,498.5
						z M879.4,497.5l-6.9-0.6l0.1-1.1l6.9,0.6L879.4,497.5z M706.4,497.3l-0.1-1.1l6.9-0.6l0.1,1.1L706.4,497.3z M865.5,496.2
						l-6.9-0.6l0.1-1.1l6.9,0.6L865.5,496.2z M720.2,496l-0.1-1.1l6.9-0.6l0.1,1.1L720.2,496z M851.7,495l-6.9-0.6l0.1-1.1l6.9,0.6
						L851.7,495z M734.1,494.8l-0.1-1.1l6.9-0.6l0.1,1.1L734.1,494.8z M837.8,493.7l-6.9-0.6l0.1-1.1l6.9,0.6L837.8,493.7z
						 M747.9,493.5l-0.1-1.1l6.9-0.6l0.1,1.1L747.9,493.5z M824,492.4l-6.9-0.6l0.1-1.1l6.9,0.6L824,492.4z M761.8,492.3l-0.1-1.1
						l6.9-0.6l0.1,1.1L761.8,492.3z M810.1,491.2l-6.9-0.6l0.1-1.1l6.9,0.6L810.1,491.2z M775.6,491.1l-0.1-1.1l6.9-0.6l0.1,1.1
						L775.6,491.1z M796.3,489.9l-3.8-0.4l-3,0.3l-0.1-1.1l3.1-0.3l3.9,0.4L796.3,489.9z"/>
				</g>
				<g>
					<linearGradient id="SVGID_46_" gradientUnits="userSpaceOnUse" x1="364.7236" y1="528.0457" x2="1219.3397" y2="528.0457">
						<stop  offset="0" style="stop-color:#F5F6F8"/>
						<stop  offset="0.5108" style="stop-color:#2B4163"/>
						<stop  offset="1" style="stop-color:#F4DDB8"/>
					</linearGradient>
					<polygon class="st45" points="1220.3,528.8 1216.9,528.5 1217,527.3 1220.4,527.6 					"/>
				</g>
			</g>
			<g>
				<g>
					<linearGradient id="SVGID_47_" gradientUnits="userSpaceOnUse" x1="364.7236" y1="504.6054" x2="1219.3397" y2="504.6054">
						<stop  offset="0" style="stop-color:#F5F6F8"/>
						<stop  offset="0.5108" style="stop-color:#2B4163"/>
						<stop  offset="1" style="stop-color:#F4DDB8"/>
					</linearGradient>
					<polygon class="st46" points="363.2,505.3 363.1,504.2 366.6,503.9 366.7,505.1 					"/>
				</g>
				<g>
					<linearGradient id="SVGID_48_" gradientUnits="userSpaceOnUse" x1="364.7236" y1="488.7012" x2="1219.3397" y2="488.7012">
						<stop  offset="0" style="stop-color:#F5F6F8"/>
						<stop  offset="0.5108" style="stop-color:#2B4163"/>
						<stop  offset="1" style="stop-color:#F4DDB8"/>
					</linearGradient>
					<path class="st47" d="M1212,505.3l-6.9-0.5l0.1-1.2l6.9,0.5L1212,505.3z M373.6,504.5l-0.1-1.2l6.9-0.5l0.1,1.2L373.6,504.5z
						 M1198.1,504.2l-6.9-0.5l0.1-1.2l6.9,0.5L1198.1,504.2z M387.4,503.5l-0.1-1.2l6.9-0.5l0.1,1.2L387.4,503.5z M1184.3,503.2
						l-6.9-0.5l0.1-1.2l6.9,0.5L1184.3,503.2z M401.3,502.5l-0.1-1.2l6.9-0.5l0.1,1.2L401.3,502.5z M1170.4,502.1l-6.9-0.5l0.1-1.2
						l6.9,0.5L1170.4,502.1z M415.2,501.4l-0.1-1.2l6.9-0.5l0.1,1.2L415.2,501.4z M1156.6,501.1l-6.9-0.5l0.1-1.2l6.9,0.5
						L1156.6,501.1z M429,500.4l-0.1-1.2l6.9-0.5l0.1,1.2L429,500.4z M1142.7,500l-6.9-0.5l0.1-1.2l6.9,0.5L1142.7,500z
						 M442.9,499.4l-0.1-1.2l6.9-0.5l0.1,1.2L442.9,499.4z M1128.8,499l-6.9-0.5l0.1-1.2l6.9,0.5L1128.8,499z M456.7,498.3l-0.1-1.2
						l6.9-0.5l0.1,1.2L456.7,498.3z M1115,497.9l-6.9-0.5l0.1-1.2l6.9,0.5L1115,497.9z M470.6,497.3l-0.1-1.2l6.9-0.5l0.1,1.2
						L470.6,497.3z M1101.1,496.8l-6.9-0.5l0.1-1.2l6.9,0.5L1101.1,496.8z M484.5,496.3l-0.1-1.2l6.9-0.5l0.1,1.2L484.5,496.3z
						 M1087.3,495.8l-6.9-0.5l0.1-1.2l6.9,0.5L1087.3,495.8z M498.3,495.2l-0.1-1.2l6.9-0.5l0.1,1.2L498.3,495.2z M1073.4,494.7
						l-6.9-0.5l0.1-1.2l6.9,0.5L1073.4,494.7z M512.2,494.2l-0.1-1.2l6.9-0.5l0.1,1.2L512.2,494.2z M1059.6,493.7l-6.9-0.5l0.1-1.2
						l6.9,0.5L1059.6,493.7z M526.1,493.1L526,492l6.9-0.5l0.1,1.2L526.1,493.1z M1045.7,492.6l-6.9-0.5l0.1-1.2l6.9,0.5
						L1045.7,492.6z M539.9,492.1l-0.1-1.2l6.9-0.5l0.1,1.2L539.9,492.1z M1031.8,491.5l-6.9-0.5l0.1-1.2l6.9,0.5L1031.8,491.5z
						 M553.8,491.1l-0.1-1.2l6.9-0.5l0.1,1.2L553.8,491.1z M1018,490.5l-6.9-0.5l0.1-1.2l6.9,0.5L1018,490.5z M567.6,490l-0.1-1.2
						l6.9-0.5l0.1,1.2L567.6,490z M1004.1,489.4l-6.9-0.5l0.1-1.2l6.9,0.5L1004.1,489.4z M581.5,489l-0.1-1.2l6.9-0.5l0.1,1.2
						L581.5,489z M990.3,488.4l-6.9-0.5l0.1-1.2l6.9,0.5L990.3,488.4z M595.4,488l-0.1-1.2l6.9-0.5l0.1,1.2L595.4,488z M976.4,487.3
						l-6.9-0.5l0.1-1.2l6.9,0.5L976.4,487.3z M609.2,486.9l-0.1-1.2l6.9-0.5l0.1,1.2L609.2,486.9z M962.5,486.3l-6.9-0.5l0.1-1.2
						l6.9,0.5L962.5,486.3z M623.1,485.9l-0.1-1.2l6.9-0.5l0.1,1.2L623.1,485.9z M948.7,485.2l-6.9-0.5l0.1-1.2l6.9,0.5L948.7,485.2
						z M636.9,484.9l-0.1-1.2l6.9-0.5l0.1,1.2L636.9,484.9z M934.8,484.1l-6.9-0.5l0.1-1.2l6.9,0.5L934.8,484.1z M650.8,483.8
						l-0.1-1.2l6.9-0.5l0.1,1.2L650.8,483.8z M921,483.1l-6.9-0.5l0.1-1.2l6.9,0.5L921,483.1z M664.7,482.8l-0.1-1.2l6.9-0.5
						l0.1,1.2L664.7,482.8z M907.1,482l-6.9-0.5l0.1-1.2l6.9,0.5L907.1,482z M678.5,481.8l-0.1-1.2l6.9-0.5l0.1,1.2L678.5,481.8z
						 M893.3,481l-6.9-0.5l0.1-1.2l6.9,0.5L893.3,481z M692.4,480.7l-0.1-1.2l6.9-0.5l0.1,1.2L692.4,480.7z M879.4,479.9l-6.9-0.5
						l0.1-1.2l6.9,0.5L879.4,479.9z M706.2,479.7l-0.1-1.2l6.9-0.5l0.1,1.2L706.2,479.7z M865.5,478.8l-6.9-0.5l0.1-1.2l6.9,0.5
						L865.5,478.8z M720.1,478.7l-0.1-1.2l6.9-0.5l0.1,1.2L720.1,478.7z M851.7,477.8l-6.9-0.5l0.1-1.2l6.9,0.5L851.7,477.8z
						 M734,477.6l-0.1-1.2l6.9-0.5l0.1,1.2L734,477.6z M837.8,476.7l-6.9-0.5l0.1-1.2l6.9,0.5L837.8,476.7z M747.8,476.6l-0.1-1.2
						l6.9-0.5l0.1,1.2L747.8,476.6z M824,475.7l-6.9-0.5l0.1-1.2l6.9,0.5L824,475.7z M761.7,475.5l-0.1-1.2l6.9-0.5l0.1,1.2
						L761.7,475.5z M810.1,474.6l-6.9-0.5l0.1-1.2l6.9,0.5L810.1,474.6z M775.5,474.5l-0.1-1.2l6.9-0.5l0.1,1.2L775.5,474.5z
						 M796.2,473.5l-3.9-0.3l-2.9,0.2l-0.1-1.2l3-0.2l4,0.3L796.2,473.5z"/>
				</g>
				<g>
					<linearGradient id="SVGID_49_" gradientUnits="userSpaceOnUse" x1="364.7236" y1="505.2439" x2="1219.3397" y2="505.2439">
						<stop  offset="0" style="stop-color:#F5F6F8"/>
						<stop  offset="0.5108" style="stop-color:#2B4163"/>
						<stop  offset="1" style="stop-color:#F4DDB8"/>
					</linearGradient>
					<polygon class="st48" points="1220.5,506 1217,505.7 1217.1,504.5 1220.5,504.8 					"/>
				</g>
			</g>
			<g>
				<g>
					<linearGradient id="SVGID_50_" gradientUnits="userSpaceOnUse" x1="364.7236" y1="481.9321" x2="1219.3397" y2="481.9321">
						<stop  offset="0" style="stop-color:#F5F6F8"/>
						<stop  offset="0.5108" style="stop-color:#2B4163"/>
						<stop  offset="1" style="stop-color:#F4DDB8"/>
					</linearGradient>
					<polygon class="st49" points="362.8,482.6 362.8,481.5 366.2,481.3 366.3,482.4 					"/>
				</g>
				<g>
					<linearGradient id="SVGID_51_" gradientUnits="userSpaceOnUse" x1="364.7236" y1="469.2087" x2="1219.3397" y2="469.2087">
						<stop  offset="0" style="stop-color:#F5F6F8"/>
						<stop  offset="0.5108" style="stop-color:#2B4163"/>
						<stop  offset="1" style="stop-color:#F4DDB8"/>
					</linearGradient>
					<path class="st50" d="M1212.1,482.6l-6.9-0.4l0.1-1.2l6.9,0.4L1212.1,482.6z M373.2,482l-0.1-1.2l6.9-0.4l0.1,1.2L373.2,482z
						 M1198.3,481.8l-6.9-0.4l0.1-1.2l6.9,0.4L1198.3,481.8z M387.1,481.2L387,480l6.9-0.4l0.1,1.2L387.1,481.2z M1184.4,480.9
						l-6.9-0.4l0.1-1.2l6.9,0.4L1184.4,480.9z M400.9,480.3l-0.1-1.2l6.9-0.4l0.1,1.2L400.9,480.3z M1170.5,480.1l-6.9-0.4l0.1-1.2
						l6.9,0.4L1170.5,480.1z M414.8,479.5l-0.1-1.2l6.9-0.4l0.1,1.2L414.8,479.5z M1156.7,479.2l-6.9-0.4l0.1-1.2l6.9,0.4
						L1156.7,479.2z M428.7,478.7l-0.1-1.2l6.9-0.4l0.1,1.2L428.7,478.7z M1142.8,478.4l-6.9-0.4l0.1-1.2l6.9,0.4L1142.8,478.4z
						 M442.5,477.9l-0.1-1.2l6.9-0.4l0.1,1.2L442.5,477.9z M1128.9,477.5l-6.9-0.4l0.1-1.2l6.9,0.4L1128.9,477.5z M456.4,477
						l-0.1-1.2l6.9-0.4l0.1,1.2L456.4,477z M1115.1,476.7l-6.9-0.4l0.1-1.2l6.9,0.4L1115.1,476.7z M470.3,476.2l-0.1-1.2l6.9-0.4
						l0.1,1.2L470.3,476.2z M1101.2,475.8l-6.9-0.4l0.1-1.2l6.9,0.4L1101.2,475.8z M484.1,475.4l-0.1-1.2l6.9-0.4l0.1,1.2
						L484.1,475.4z M1087.3,475l-6.9-0.4l0.1-1.2l6.9,0.4L1087.3,475z M498,474.5l-0.1-1.2l6.9-0.4l0.1,1.2L498,474.5z
						 M1073.5,474.1l-6.9-0.4l0.1-1.2l6.9,0.4L1073.5,474.1z M511.9,473.7l-0.1-1.2l6.9-0.4l0.1,1.2L511.9,473.7z M1059.6,473.3
						l-6.9-0.4l0.1-1.2l6.9,0.4L1059.6,473.3z M525.8,472.9l-0.1-1.2l6.9-0.4l0.1,1.2L525.8,472.9z M1045.7,472.4l-6.9-0.4l0.1-1.2
						l6.9,0.4L1045.7,472.4z M539.6,472.1l-0.1-1.2l6.9-0.4l0.1,1.2L539.6,472.1z M1031.9,471.6l-6.9-0.4l0.1-1.2l6.9,0.4
						L1031.9,471.6z M553.5,471.2l-0.1-1.2l6.9-0.4l0.1,1.2L553.5,471.2z M1018,470.8l-6.9-0.4l0.1-1.2l6.9,0.4L1018,470.8z
						 M567.4,470.4l-0.1-1.2l6.9-0.4l0.1,1.2L567.4,470.4z M1004.1,469.9l-6.9-0.4l0.1-1.2l6.9,0.4L1004.1,469.9z M581.2,469.6
						l-0.1-1.2l6.9-0.4l0.1,1.2L581.2,469.6z M990.3,469.1l-6.9-0.4l0.1-1.2l6.9,0.4L990.3,469.1z M595.1,468.7l-0.1-1.2l6.9-0.4
						l0.1,1.2L595.1,468.7z M976.4,468.2l-6.9-0.4l0.1-1.2l6.9,0.4L976.4,468.2z M609,467.9l-0.1-1.2l6.9-0.4l0.1,1.2L609,467.9z
						 M962.5,467.4l-6.9-0.4l0.1-1.2l6.9,0.4L962.5,467.4z M622.8,467.1l-0.1-1.2l6.9-0.4l0.1,1.2L622.8,467.1z M948.7,466.5
						l-6.9-0.4l0.1-1.2l6.9,0.4L948.7,466.5z M636.7,466.3l-0.1-1.2l6.9-0.4l0.1,1.2L636.7,466.3z M934.8,465.7l-6.9-0.4l0.1-1.2
						l6.9,0.4L934.8,465.7z M650.6,465.4l-0.1-1.2l6.9-0.4l0.1,1.2L650.6,465.4z M920.9,464.8l-6.9-0.4l0.1-1.2l6.9,0.4L920.9,464.8
						z M664.4,464.6l-0.1-1.2l6.9-0.4l0.1,1.2L664.4,464.6z M907.1,464l-6.9-0.4l0.1-1.2l6.9,0.4L907.1,464z M678.3,463.8l-0.1-1.2
						l6.9-0.4l0.1,1.2L678.3,463.8z M893.2,463.1l-6.9-0.4l0.1-1.2l6.9,0.4L893.2,463.1z M692.2,462.9l-0.1-1.2l6.9-0.4l0.1,1.2
						L692.2,462.9z M879.3,462.3l-6.9-0.4l0.1-1.2l6.9,0.4L879.3,462.3z M706,462.1L706,461l6.9-0.4l0.1,1.2L706,462.1z
						 M865.5,461.4l-6.9-0.4l0.1-1.2l6.9,0.4L865.5,461.4z M719.9,461.3l-0.1-1.2l6.9-0.4l0.1,1.2L719.9,461.3z M851.6,460.6
						l-6.9-0.4l0.1-1.2l6.9,0.4L851.6,460.6z M733.8,460.5l-0.1-1.2l6.9-0.4l0.1,1.2L733.8,460.5z M837.7,459.7l-6.9-0.4l0.1-1.2
						l6.9,0.4L837.7,459.7z M747.6,459.6l-0.1-1.2l6.9-0.4l0.1,1.2L747.6,459.6z M823.9,458.9l-6.9-0.4l0.1-1.2l6.9,0.4L823.9,458.9
						z M761.5,458.8l-0.1-1.2l6.9-0.4l0.1,1.2L761.5,458.8z M810,458l-6.9-0.4l0.1-1.2l6.9,0.4L810,458z M775.4,458l-0.1-1.2
						l6.9-0.4l0.1,1.2L775.4,458z M796.1,457.2l-3.9-0.2l-2.9,0.2l-0.1-1.2l3-0.2l4,0.2L796.1,457.2z"/>
				</g>
				<g>
					<linearGradient id="SVGID_52_" gradientUnits="userSpaceOnUse" x1="364.7236" y1="482.4427" x2="1219.3397" y2="482.4427">
						<stop  offset="0" style="stop-color:#F5F6F8"/>
						<stop  offset="0.5108" style="stop-color:#2B4163"/>
						<stop  offset="1" style="stop-color:#F4DDB8"/>
					</linearGradient>
					<polygon class="st51" points="1220.6,483.1 1217.2,482.9 1217.2,481.8 1220.7,482 					"/>
				</g>
			</g>
			<g>
				<g>
					<linearGradient id="SVGID_53_" gradientUnits="userSpaceOnUse" x1="364.7236" y1="459.2582" x2="1219.3397" y2="459.2582">
						<stop  offset="0" style="stop-color:#F5F6F8"/>
						<stop  offset="0.5108" style="stop-color:#2B4163"/>
						<stop  offset="1" style="stop-color:#F4DDB8"/>
					</linearGradient>
					<polygon class="st52" points="362.4,459.9 362.4,458.8 365.8,458.6 365.9,459.8 					"/>
				</g>
				<g>
					<linearGradient id="SVGID_54_" gradientUnits="userSpaceOnUse" x1="364.7236" y1="449.7106" x2="1219.3397" y2="449.7106">
						<stop  offset="0" style="stop-color:#F5F6F8"/>
						<stop  offset="0.5108" style="stop-color:#2B4163"/>
						<stop  offset="1" style="stop-color:#F4DDB8"/>
					</linearGradient>
					<path class="st53" d="M1212.1,459.9l-6.9-0.3l0.1-1.2l6.9,0.3L1212.1,459.9z M372.8,459.4l-0.1-1.2l6.9-0.3l0.1,1.2
						L372.8,459.4z M1198.2,459.3l-6.9-0.3l0.1-1.2l6.9,0.3L1198.2,459.3z M386.7,458.8l-0.1-1.2l6.9-0.3l0.1,1.2L386.7,458.8z
						 M1184.3,458.6l-6.9-0.3l0.1-1.2l6.9,0.3L1184.3,458.6z M400.6,458.2l-0.1-1.2l6.9-0.3l0.1,1.2L400.6,458.2z M1170.5,458
						l-6.9-0.3l0.1-1.2l6.9,0.3L1170.5,458z M414.4,457.6l-0.1-1.2l6.9-0.3l0.1,1.2L414.4,457.6z M1156.6,457.4l-6.9-0.3l0.1-1.2
						l6.9,0.3L1156.6,457.4z M428.3,457l-0.1-1.2l6.9-0.3l0.1,1.2L428.3,457z M1142.7,456.7l-6.9-0.3l0.1-1.2l6.9,0.3L1142.7,456.7z
						 M442.2,456.3l-0.1-1.2l6.9-0.3l0.1,1.2L442.2,456.3z M1128.8,456.1l-6.9-0.3l0.1-1.2l6.9,0.3L1128.8,456.1z M456.1,455.7
						l-0.1-1.2l6.9-0.3l0.1,1.2L456.1,455.7z M1115,455.5l-6.9-0.3l0.1-1.2l6.9,0.3L1115,455.5z M469.9,455.1l-0.1-1.2l6.9-0.3
						l0.1,1.2L469.9,455.1z M1101.1,454.8l-6.9-0.3l0.1-1.2l6.9,0.3L1101.1,454.8z M483.8,454.5l-0.1-1.2l6.9-0.3l0.1,1.2
						L483.8,454.5z M1087.2,454.2l-6.9-0.3l0.1-1.2l6.9,0.3L1087.2,454.2z M497.7,453.9l-0.1-1.2l6.9-0.3l0.1,1.2L497.7,453.9z
						 M1073.3,453.5l-6.9-0.3l0.1-1.2l6.9,0.3L1073.3,453.5z M511.5,453.2l-0.1-1.2l6.9-0.3l0.1,1.2L511.5,453.2z M1059.5,452.9
						l-6.9-0.3l0.1-1.2l6.9,0.3L1059.5,452.9z M525.4,452.6l-0.1-1.2l6.9-0.3l0.1,1.2L525.4,452.6z M1045.6,452.3l-6.9-0.3l0.1-1.2
						l6.9,0.3L1045.6,452.3z M539.3,452l-0.1-1.2l6.9-0.3l0.1,1.2L539.3,452z M1031.7,451.6l-6.9-0.3l0.1-1.2l6.9,0.3L1031.7,451.6z
						 M553.2,451.4l-0.1-1.2l6.9-0.3l0.1,1.2L553.2,451.4z M1017.9,451l-6.9-0.3l0.1-1.2l6.9,0.3L1017.9,451z M567,450.8l-0.1-1.2
						l6.9-0.3l0.1,1.2L567,450.8z M1004,450.4l-6.9-0.3l0.1-1.2l6.9,0.3L1004,450.4z M580.9,450.1l-0.1-1.2l6.9-0.3l0.1,1.2
						L580.9,450.1z M990.1,449.7l-6.9-0.3l0.1-1.2l6.9,0.3L990.1,449.7z M594.8,449.5l-0.1-1.2l6.9-0.3l0.1,1.2L594.8,449.5z
						 M976.2,449.1l-6.9-0.3l0.1-1.2l6.9,0.3L976.2,449.1z M608.7,448.9l-0.1-1.2l6.9-0.3l0.1,1.2L608.7,448.9z M962.4,448.5
						l-6.9-0.3l0.1-1.2l6.9,0.3L962.4,448.5z M622.5,448.3l-0.1-1.2l6.9-0.3l0.1,1.2L622.5,448.3z M948.5,447.8l-6.9-0.3l0.1-1.2
						l6.9,0.3L948.5,447.8z M636.4,447.6l-0.1-1.2l6.9-0.3l0.1,1.2L636.4,447.6z M934.6,447.2l-6.9-0.3l0.1-1.2l6.9,0.3L934.6,447.2
						z M650.3,447l-0.1-1.2l6.9-0.3l0.1,1.2L650.3,447z M920.8,446.6l-6.9-0.3l0.1-1.2l6.9,0.3L920.8,446.6z M664.2,446.4l-0.1-1.2
						l6.9-0.3l0.1,1.2L664.2,446.4z M906.9,445.9l-6.9-0.3l0.1-1.2l6.9,0.3L906.9,445.9z M678,445.8l-0.1-1.2l6.9-0.3l0.1,1.2
						L678,445.8z M893,445.3l-6.9-0.3l0.1-1.2l6.9,0.3L893,445.3z M691.9,445.2l-0.1-1.2l6.9-0.3l0.1,1.2L691.9,445.2z M879.1,444.7
						l-6.9-0.3l0.1-1.2l6.9,0.3L879.1,444.7z M705.8,444.5l-0.1-1.2l6.9-0.3l0.1,1.2L705.8,444.5z M865.3,444l-6.9-0.3l0.1-1.2
						l6.9,0.3L865.3,444z M719.6,443.9l-0.1-1.2l6.9-0.3l0.1,1.2L719.6,443.9z M851.4,443.4l-6.9-0.3l0.1-1.2l6.9,0.3L851.4,443.4z
						 M733.5,443.3l-0.1-1.2l6.9-0.3l0.1,1.2L733.5,443.3z M837.5,442.8l-6.9-0.3l0.1-1.2l6.9,0.3L837.5,442.8z M747.4,442.7
						l-0.1-1.2l6.9-0.3l0.1,1.2L747.4,442.7z M823.6,442.1l-6.9-0.3l0.1-1.2l6.9,0.3L823.6,442.1z M761.3,442.1l-0.1-1.2l6.9-0.3
						l0.1,1.2L761.3,442.1z M809.8,441.5l-6.9-0.3l0.1-1.2l6.9,0.3L809.8,441.5z M775.1,441.4l-0.1-1.2l6.9-0.3l0.1,1.2L775.1,441.4
						z M795.9,440.9l-3.8-0.2l-3,0.1l-0.1-1.2l3.1-0.1l3.9,0.2L795.9,440.9z"/>
				</g>
				<g>
					<linearGradient id="SVGID_55_" gradientUnits="userSpaceOnUse" x1="364.7236" y1="459.6414" x2="1219.3397" y2="459.6414">
						<stop  offset="0" style="stop-color:#F5F6F8"/>
						<stop  offset="0.5108" style="stop-color:#2B4163"/>
						<stop  offset="1" style="stop-color:#F4DDB8"/>
					</linearGradient>
					<polygon class="st54" points="1220.7,460.3 1217.3,460.1 1217.3,459 1220.8,459.1 					"/>
				</g>
			</g>
			<g>
				<g>
					<linearGradient id="SVGID_56_" gradientUnits="userSpaceOnUse" x1="364.7236" y1="436.5843" x2="1219.3397" y2="436.5843">
						<stop  offset="0" style="stop-color:#F5F6F8"/>
						<stop  offset="0.5108" style="stop-color:#2B4163"/>
						<stop  offset="1" style="stop-color:#F4DDB8"/>
					</linearGradient>
					<polygon class="st55" points="362,437.2 362,436.1 365.5,436 365.5,437.1 					"/>
				</g>
				<g>
					<linearGradient id="SVGID_57_" gradientUnits="userSpaceOnUse" x1="364.7236" y1="430.2142" x2="1219.3397" y2="430.2142">
						<stop  offset="0" style="stop-color:#F5F6F8"/>
						<stop  offset="0.5108" style="stop-color:#2B4163"/>
						<stop  offset="1" style="stop-color:#F4DDB8"/>
					</linearGradient>
					<path class="st56" d="M1211.8,437.2l-6.9-0.2l0-1.2l6.9,0.2L1211.8,437.2z M372.4,436.9l0-1.2l6.9-0.2l0,1.2L372.4,436.9z
						 M1197.9,436.8l-6.9-0.2l0-1.2l6.9,0.2L1197.9,436.8z M386.3,436.5l0-1.2l6.9-0.2l0,1.2L386.3,436.5z M1184.1,436.3l-6.9-0.2
						l0-1.2l6.9,0.2L1184.1,436.3z M400.2,436.1l0-1.2l6.9-0.2l0,1.2L400.2,436.1z M1170.2,435.9l-6.9-0.2l0-1.2l6.9,0.2
						L1170.2,435.9z M414.1,435.7l0-1.2l6.9-0.2l0,1.2L414.1,435.7z M1156.3,435.5l-6.9-0.2l0-1.2l6.9,0.2L1156.3,435.5z
						 M427.9,435.2l0-1.2l6.9-0.2l0,1.2L427.9,435.2z M1142.5,435.1l-6.9-0.2l0-1.2l6.9,0.2L1142.5,435.1z M441.8,434.8l0-1.2
						l6.9-0.2l0,1.2L441.8,434.8z M1128.6,434.7l-6.9-0.2l0-1.2l6.9,0.2L1128.6,434.7z M455.7,434.4l0-1.2l6.9-0.2l0,1.2
						L455.7,434.4z M1114.7,434.2l-6.9-0.2l0-1.2l6.9,0.2L1114.7,434.2z M469.6,434l0-1.2l6.9-0.2l0,1.2L469.6,434z M1100.8,433.8
						l-6.9-0.2l0-1.2l6.9,0.2L1100.8,433.8z M483.4,433.6l0-1.2l6.9-0.2l0,1.2L483.4,433.6z M1087,433.4l-6.9-0.2l0-1.2l6.9,0.2
						L1087,433.4z M497.3,433.2l0-1.2l6.9-0.2l0,1.2L497.3,433.2z M1073.1,433l-6.9-0.2l0-1.2l6.9,0.2L1073.1,433z M511.2,432.8
						l0-1.2l6.9-0.2l0,1.2L511.2,432.8z M1059.2,432.5l-6.9-0.2l0-1.2l6.9,0.2L1059.2,432.5z M525.1,432.4l0-1.2l6.9-0.2l0,1.2
						L525.1,432.4z M1045.3,432.1l-6.9-0.2l0-1.2l6.9,0.2L1045.3,432.1z M538.9,431.9l0-1.2l6.9-0.2l0,1.2L538.9,431.9z
						 M1031.5,431.7l-6.9-0.2l0-1.2l6.9,0.2L1031.5,431.7z M552.8,431.5l0-1.2l6.9-0.2l0,1.2L552.8,431.5z M1017.6,431.3l-6.9-0.2
						l0-1.2l6.9,0.2L1017.6,431.3z M566.7,431.1l0-1.2l6.9-0.2l0,1.2L566.7,431.1z M1003.7,430.8l-6.9-0.2l0-1.2l6.9,0.2
						L1003.7,430.8z M580.6,430.7l0-1.2l6.9-0.2l0,1.2L580.6,430.7z M989.8,430.4l-6.9-0.2l0-1.2l6.9,0.2L989.8,430.4z M594.4,430.3
						l0-1.2l6.9-0.2l0,1.2L594.4,430.3z M976,430l-6.9-0.2l0-1.2l6.9,0.2L976,430z M608.3,429.9l0-1.2l6.9-0.2l0,1.2L608.3,429.9z
						 M962.1,429.6l-6.9-0.2l0-1.2l6.9,0.2L962.1,429.6z M622.2,429.5l0-1.2l6.9-0.2l0,1.2L622.2,429.5z M948.2,429.2l-6.9-0.2
						l0-1.2l6.9,0.2L948.2,429.2z M636.1,429l0-1.2l6.9-0.2l0,1.2L636.1,429z M934.3,428.7l-6.9-0.2l0-1.2l6.9,0.2L934.3,428.7z
						 M649.9,428.6l0-1.2l6.9-0.2l0,1.2L649.9,428.6z M920.5,428.3l-6.9-0.2l0-1.2l6.9,0.2L920.5,428.3z M663.8,428.2l0-1.2l6.9-0.2
						l0,1.2L663.8,428.2z M906.6,427.9l-6.9-0.2l0-1.2l6.9,0.2L906.6,427.9z M677.7,427.8l0-1.2l6.9-0.2l0,1.2L677.7,427.8z
						 M892.7,427.5l-6.9-0.2l0-1.2l6.9,0.2L892.7,427.5z M691.6,427.4l0-1.2l6.9-0.2l0,1.2L691.6,427.4z M878.8,427l-6.9-0.2l0-1.2
						l6.9,0.2L878.8,427z M705.4,427l0-1.2l6.9-0.2l0,1.2L705.4,427z M865,426.6l-6.9-0.2l0-1.2l6.9,0.2L865,426.6z M719.3,426.6
						l0-1.2l6.9-0.2l0,1.2L719.3,426.6z M851.1,426.2l-6.9-0.2l0-1.2l6.9,0.2L851.1,426.2z M733.2,426.1l0-1.2l6.9-0.2l0,1.2
						L733.2,426.1z M837.2,425.8l-6.9-0.2l0-1.2l6.9,0.2L837.2,425.8z M747.1,425.7l0-1.2l6.9-0.2l0,1.2L747.1,425.7z M823.3,425.3
						l-6.9-0.2l0-1.2l6.9,0.2L823.3,425.3z M760.9,425.3l0-1.2l6.9-0.2l0,1.2L760.9,425.3z M809.5,424.9l-6.9-0.2l0-1.2l6.9,0.2
						L809.5,424.9z M774.8,424.9l0-1.2l6.9-0.2l0,1.2L774.8,424.9z M795.6,424.5l-3.7-0.1l-3.2,0.1l0-1.2l3.3-0.1l3.7,0.1
						L795.6,424.5z"/>
				</g>
				<g>
					<linearGradient id="SVGID_58_" gradientUnits="userSpaceOnUse" x1="364.7236" y1="436.8402" x2="1219.3397" y2="436.8402">
						<stop  offset="0" style="stop-color:#F5F6F8"/>
						<stop  offset="0.5108" style="stop-color:#2B4163"/>
						<stop  offset="1" style="stop-color:#F4DDB8"/>
					</linearGradient>
					<polygon class="st57" points="1220.9,437.5 1217.4,437.4 1217.5,436.2 1220.9,436.3 					"/>
				</g>
			</g>
			<g>
				<g>
					<linearGradient id="SVGID_59_" gradientUnits="userSpaceOnUse" x1="364.7236" y1="413.911" x2="1219.3397" y2="413.911">
						<stop  offset="0" style="stop-color:#F5F6F8"/>
						<stop  offset="0.5108" style="stop-color:#2B4163"/>
						<stop  offset="1" style="stop-color:#F4DDB8"/>
					</linearGradient>
					<polygon class="st58" points="361.7,414.5 361.6,413.4 365.1,413.3 365.1,414.5 					"/>
				</g>
				<g>
					<linearGradient id="SVGID_60_" gradientUnits="userSpaceOnUse" x1="364.7236" y1="410.7212" x2="1219.3397" y2="410.7212">
						<stop  offset="0" style="stop-color:#F5F6F8"/>
						<stop  offset="0.5108" style="stop-color:#2B4163"/>
						<stop  offset="1" style="stop-color:#F4DDB8"/>
					</linearGradient>
					<path class="st59" d="M1211.4,414.5l-6.9-0.1l0-1.2l6.9,0.1L1211.4,414.5z M372,414.4l0-1.2l6.9-0.1l0,1.2L372,414.4z
						 M1197.5,414.3l-6.9-0.1l0-1.2l6.9,0.1L1197.5,414.3z M385.9,414.2l0-1.2l6.9-0.1l0,1.2L385.9,414.2z M1183.6,414.1l-6.9-0.1
						l0-1.2l6.9,0.1L1183.6,414.1z M399.8,413.9l0-1.2l6.9-0.1l0,1.2L399.8,413.9z M1169.8,413.9l-6.9-0.1l0-1.2l6.9,0.1
						L1169.8,413.9z M413.7,413.7l0-1.2l6.9-0.1l0,1.2L413.7,413.7z M1155.9,413.6l-6.9-0.1l0-1.2l6.9,0.1L1155.9,413.6z
						 M427.5,413.5l0-1.2l6.9-0.1l0,1.2L427.5,413.5z M1142,413.4l-6.9-0.1l0-1.2l6.9,0.1L1142,413.4z M441.4,413.3l0-1.2l6.9-0.1
						l0,1.2L441.4,413.3z M1128.1,413.2l-6.9-0.1l0-1.2l6.9,0.1L1128.1,413.2z M455.3,413.1l0-1.2l6.9-0.1l0,1.2L455.3,413.1z
						 M1114.3,413l-6.9-0.1l0-1.2l6.9,0.1L1114.3,413z M469.2,412.9l0-1.2l6.9-0.1l0,1.2L469.2,412.9z M1100.4,412.8l-6.9-0.1l0-1.2
						l6.9,0.1L1100.4,412.8z M483,412.7l0-1.2l6.9-0.1l0,1.2L483,412.7z M1086.5,412.6l-6.9-0.1l0-1.2l6.9,0.1L1086.5,412.6z
						 M496.9,412.5l0-1.2l6.9-0.1l0,1.2L496.9,412.5z M1072.6,412.4l-6.9-0.1l0-1.2l6.9,0.1L1072.6,412.4z M510.8,412.3l0-1.2
						l6.9-0.1l0,1.2L510.8,412.3z M1058.8,412.2l-6.9-0.1l0-1.2l6.9,0.1L1058.8,412.2z M524.7,412.1l0-1.2l6.9-0.1l0,1.2
						L524.7,412.1z M1044.9,412l-6.9-0.1l0-1.2l6.9,0.1L1044.9,412z M538.5,411.9l0-1.2l6.9-0.1l0,1.2L538.5,411.9z M1031,411.7
						l-6.9-0.1l0-1.2l6.9,0.1L1031,411.7z M552.4,411.7l0-1.2l6.9-0.1l0,1.2L552.4,411.7z M1017.2,411.5l-6.9-0.1l0-1.2l6.9,0.1
						L1017.2,411.5z M566.3,411.5l0-1.2l6.9-0.1l0,1.2L566.3,411.5z M1003.3,411.3l-6.9-0.1l0-1.2l6.9,0.1L1003.3,411.3z
						 M580.1,411.3l0-1.2l6.9-0.1l0,1.2L580.1,411.3z M989.4,411.1l-6.9-0.1l0-1.2l6.9,0.1L989.4,411.1z M594,411.1l0-1.2l6.9-0.1
						l0,1.2L594,411.1z M975.5,410.9l-6.9-0.1l0-1.2l6.9,0.1L975.5,410.9z M607.9,410.8l0-1.2l6.9-0.1l0,1.2L607.9,410.8z
						 M961.7,410.7l-6.9-0.1l0-1.2l6.9,0.1L961.7,410.7z M621.8,410.6l0-1.2l6.9-0.1l0,1.2L621.8,410.6z M947.8,410.5l-6.9-0.1
						l0-1.2l6.9,0.1L947.8,410.5z M635.6,410.4l0-1.2l6.9-0.1l0,1.2L635.6,410.4z M933.9,410.3l-6.9-0.1l0-1.2l6.9,0.1L933.9,410.3z
						 M649.5,410.2l0-1.2l6.9-0.1l0,1.2L649.5,410.2z M920,410.1l-6.9-0.1l0-1.2l6.9,0.1L920,410.1z M663.4,410l0-1.2l6.9-0.1l0,1.2
						L663.4,410z M906.2,409.8l-6.9-0.1l0-1.2l6.9,0.1L906.2,409.8z M677.3,409.8l0-1.2l6.9-0.1l0,1.2L677.3,409.8z M892.3,409.6
						l-6.9-0.1l0-1.2l6.9,0.1L892.3,409.6z M691.1,409.6l0-1.2l6.9-0.1l0,1.2L691.1,409.6z M878.4,409.4l-6.9-0.1l0-1.2l6.9,0.1
						L878.4,409.4z M705,409.4l0-1.2l6.9-0.1l0,1.2L705,409.4z M864.5,409.2l-6.9-0.1l0-1.2l6.9,0.1L864.5,409.2z M718.9,409.2
						l0-1.2l6.9-0.1l0,1.2L718.9,409.2z M850.7,409l-6.9-0.1l0-1.2l6.9,0.1L850.7,409z M732.8,409l0-1.2l6.9-0.1l0,1.2L732.8,409z
						 M836.8,408.8l-6.9-0.1l0-1.2l6.9,0.1L836.8,408.8z M746.6,408.8l0-1.2l6.9-0.1l0,1.2L746.6,408.8z M822.9,408.6l-6.9-0.1
						l0-1.2l6.9,0.1L822.9,408.6z M760.5,408.6l0-1.2l6.9-0.1l0,1.2L760.5,408.6z M809,408.4l-6.9-0.1l0-1.2l6.9,0.1L809,408.4z
						 M774.4,408.4l0-1.2l6.9-0.1l0,1.2L774.4,408.4z M788.3,408.2l0-1.2l3.6-0.1l3.4,0.1l0,1.2l-3.4-0.1L788.3,408.2z"/>
				</g>
				<g>
					<linearGradient id="SVGID_61_" gradientUnits="userSpaceOnUse" x1="364.7236" y1="414.0384" x2="1219.3397" y2="414.0384">
						<stop  offset="0" style="stop-color:#F5F6F8"/>
						<stop  offset="0.5108" style="stop-color:#2B4163"/>
						<stop  offset="1" style="stop-color:#F4DDB8"/>
					</linearGradient>
					<polygon class="st60" points="1221,414.6 1217.5,414.6 1217.6,413.4 1221,413.5 					"/>
				</g>
			</g>
		</g>
	</g>
	<circle class="st61" cx="585.2" cy="186.7" r="61.2"/>
	<circle class="st61" cx="507.8" cy="385.8" r="61.2"/>
	<circle class="st61" cx="603.1" cy="597.1" r="60.6"/>
	<circle class="st61" cx="791.2" cy="669.2" r="60.6"/>
	<circle class="st61" cx="992" cy="581.5" r="60.6"/>
	<circle class="st61" cx="1080.3" cy="387.6" r="60.6"/>
	<circle class="st61" cx="992" cy="182.1" r="60.6"/>
	<circle class="st61" cx="792.9" cy="99.6" r="60.6"/>
	<circle class="st62" cx="992" cy="182.7" r="59.4"/>
	<circle class="st61" cx="791.8" cy="384.8" r="174.3"/>
	<g>
		<line class="st62" x1="792.8" y1="387" x2="792.8" y2="176.7"/>
		<polygon class="st63" points="791.6,176.7 783,189.6 791.6,189.6 		"/>
	</g>
	<g>
		<line class="st62" x1="792" y1="387.8" x2="940.6" y2="239.1"/>
		<polygon class="st63" points="939.8,238.3 924.6,241.3 930.7,247.4 		"/>
	</g>
	<g>
		<line class="st62" x1="790.8" y1="387.8" x2="1001.1" y2="387.8"/>
		<polygon class="st63" points="1001.1,386.6 988.2,378 988.2,386.6 		"/>
	</g>
	<g>
		<line class="st62" x1="790" y1="387" x2="938.7" y2="535.6"/>
		<polygon class="st63" points="939.5,534.8 936.5,519.6 930.4,525.7 		"/>
	</g>
	<g>
		<line class="st62" x1="790" y1="385.8" x2="790" y2="596.1"/>
		<polygon class="st63" points="791.2,596.1 799.8,583.2 791.2,583.2 		"/>
	</g>
	<g>
		<line class="st62" x1="790.8" y1="385" x2="642.2" y2="533.7"/>
		<polygon class="st63" points="643,534.5 658.2,531.5 652.1,525.4 		"/>
	</g>
	<g>
		<line class="st62" x1="792" y1="385" x2="581.7" y2="385"/>
		<polygon class="st63" points="581.7,386.2 594.6,394.9 594.6,386.2 		"/>
	</g>
	<g>
		<line class="st62" x1="792.8" y1="385.9" x2="644.1" y2="237.2"/>
		<polygon class="st63" points="643.3,238 646.3,253.2 652.4,247.1 		"/>
	</g>
	<g>
		<text transform="matrix(1 0 0 1 764.7856 90.54)" class="st63 st64 st65 st66">社區</text>
	</g>
	<g>
		<text transform="matrix(1 0 0 1 751.1655 119.3945)" class="st67 st68 st69">當地需求</text>
	</g>
	<circle class="st63" cx="792.3" cy="384.1" r="109.1"/>
	<text transform="matrix(1 0 0 1 729.4248 371.9863)"><tspan x="0" y="0" class="st61 st64 st70 st66">佳龍CSR</tspan><tspan x="-12.7" y="26" class="st61 st64 st71 st66">企業社會責任</tspan></text>
	<circle class="st72" cx="791.8" cy="384.8" r="174.3"/>
	<circle class="st62" cx="792.7" cy="100.4" r="59.4"/>
	<g>
		<text transform="matrix(1 0 0 1 964.0791 172.873)" class="st63 st64 st65 st66">媒體</text>
	</g>
	<g>
		<text transform="matrix(1 0 0 1 950.46 201.7285)" class="st67 st68 st69">公共關係</text>
	</g>
	<circle class="st62" cx="992" cy="581.3" r="59.4"/>
	<g>
		<text transform="matrix(1 0 0 1 964.0791 571.46)" class="st63 st64 st65 st66">員工</text>
	</g>
	<g>
		<text transform="matrix(1 0 0 1 950.46 600.3145)" class="st67 st68 st69">吸引人才</text>
	</g>
	<circle class="st62" cx="791.6" cy="668.2" r="59.4"/>
	<g>
		<text transform="matrix(1 0 0 1 763.6313 658.4102)" class="st63 st64 st65 st66">競爭</text>
	</g>
	<g>
		<text transform="matrix(1 0 0 1 750.0112 687.2656)" class="st67 st68 st69">同業競爭</text>
	</g>
	<circle class="st62" cx="507.6" cy="385.5" r="59.4"/>
	<g>
		<text transform="matrix(1 0 0 1 479.6958 375.6289)" class="st63 st64 st65 st66">環境</text>
	</g>
	<g>
		<text transform="matrix(1 0 0 1 466.0767 404.4844)" class="st67 st68 st69">回收利用</text>
	</g>
	<circle class="st62" cx="585.3" cy="186.2" r="59.4"/>
	<g>
		<text transform="matrix(1 0 0 1 557.4126 176.3359)" class="st63 st64 st65 st66">政府</text>
	</g>
	<g>
		<text transform="matrix(1 0 0 1 534.5591 205.1914)" class="st67 st68 st69">法規及法律</text>
	</g>
	<path class="st62" d="M562.3,552.7c10.6-9.6,24.6-15.5,40-15.5c32.8,0,59.4,26.6,59.4,59.4s-26.6,59.4-59.4,59.4
		c-22.4,0-41.9-12.4-52-30.7"/>
	<g>
		<text transform="matrix(1 0 0 1 504.3198 586.8496)" class="st63 st64 st65 st66">客戶與合作</text>
	</g>
	<g>
		<text transform="matrix(1 0 0 1 516.0923 615.7041)" class="st67 st68 st69">需求及供應鏈</text>
	</g>
	<path class="st62" d="M1134.5,410.5c-9,21.3-30.1,36.3-54.8,36.3c-32.8,0-59.4-26.6-59.4-59.4s26.6-59.4,59.4-59.4
		c18.8,0,35.5,8.7,46.4,22.3"/>
	<g>
		<text transform="matrix(1 0 0 1 1041.0264 377.5527)" class="st63 st64 st65 st66">投資人/股東</text>
	</g>
	<g>
		<text transform="matrix(1 0 0 1 1041.2578 406.4082)" class="st67 st68 st69">成長獲利</text>
	</g>
	<g>
		<g>
			<g>
				<text transform="matrix(1 0 0 1 68.7798 394.5029)"><tspan x="0" y="0" class="st73 st64 st69">電子廢棄物產量不斷增加</tspan><tspan x="21.3" y="46.2" class="st73 st64 st69">亞洲市場潛力持續成長</tspan><tspan x="0" y="92.3" class="st73 st64 st69">處理廢棄的方式高度複雜</tspan><tspan x="63.9" y="138.5" class="st73 st64 st69">西方產源尋求去化</tspan><tspan x="42.6" y="184.7" class="st73 st64 st69">法規趨向循環經濟化</tspan></text>
			</g>
		</g>
		<g>
			<polygon class="st74" points="326.4,388.9 320.3,385.3 320.3,392.4 			"/>
			<polygon class="st74" points="326.4,435 320.3,431.5 320.3,438.6 			"/>
			<polygon class="st74" points="326.4,481.2 320.3,477.6 320.3,484.7 			"/>
			<polygon class="st74" points="326.4,527.4 320.3,523.8 320.3,530.9 			"/>
			<polygon class="st74" points="326.4,573.5 320.3,570 320.3,577.1 			"/>
		</g>
	</g>
	<text transform="matrix(1 0 0 1 1279.9238 401.4287)"><tspan x="0" y="0" class="st75 st64 st69">CSR資訊對外揭露</tspan><tspan x="0" y="46.2" class="st75 st64 st69">建立名聲與形象增加企業價值</tspan><tspan x="0" y="92.3" class="st75 st64 st69">提升競爭優勢與獲利</tspan><tspan x="0" y="138.5" class="st75 st64 st69">降低企業風險</tspan><tspan x="0" y="184.7" class="st75 st64 st69">公司治理評鑑加分</tspan></text>
	<g>
		<polygon class="st76" points="1262.4,395 1256.2,391.5 1256.2,398.6 		"/>
		<polygon class="st76" points="1262.4,441.2 1256.2,437.6 1256.2,444.7 		"/>
		<polygon class="st76" points="1262.4,487.3 1256.2,483.8 1256.2,490.9 		"/>
		<polygon class="st76" points="1262.4,533.5 1256.2,530 1256.2,537.1 		"/>
		<polygon class="st76" points="1262.4,579.7 1256.2,576.1 1256.2,583.2 		"/>
	</g>
	<circle class="st73" cx="198.8" cy="256.1" r="86.6"/>
	<text transform="matrix(1 0 0 1 142.1777 246.0996)"><tspan x="0" y="0" class="st61 st64 st70">解決現今</tspan><tspan x="-17.5" y="38.1" class="st61 st64 st70">3C垃圾問題</tspan></text>
	<circle class="st75" cx="1406.5" cy="256.1" r="86.6"/>
	<text transform="matrix(1 0 0 1 1349.8691 233.4033)"><tspan x="0" y="0" class="st61 st64 st70">促使企業</tspan><tspan x="0" y="40.4" class="st61 st64 st70">進步的驅</tspan><tspan x="28.1" y="80.8" class="st61 st64 st70">動力</tspan></text>
	<g>
		
			<rect x="318.5" y="224.8" transform="matrix(6.123234e-17 -1 1 6.123234e-17 60.3152 581.2085)" class="st73" width="4.5" height="71.3"/>
		<polygon class="st73" points="356,254.2 367.8,260.5 356,266.7 		"/>
	</g>
	<g>
		
			<rect x="1265.5" y="224.8" transform="matrix(6.123234e-17 -1 1 6.123234e-17 1007.2956 1528.1888)" class="st75" width="4.5" height="71.3"/>
		<polygon class="st75" points="1303,254.2 1314.8,260.5 1303,266.7 		"/>
	</g>
</g>
</svg>
