<?xml version="1.0" encoding="utf-8"?>
<!-- Generator: Adobe Illustrator 21.1.0, SVG Export Plug-In . SVG Version: 6.00 Build 0)  -->
<svg version="1.1" id="圖層_1" xmlns="http://www.w3.org/2000/svg" xmlns:xlink="http://www.w3.org/1999/xlink" x="0px" y="0px"
	 viewBox="0 0 577 721" style="enable-background:new 0 0 577 721;" xml:space="preserve">
<style type="text/css">
	.st0{fill:#F4F7FA;}
	.st1{fill:#045EAC;}
	.st2{font-family:'微軟正黑體';font-weight:bold;}
	.st3{font-size:24px;}
	.st4{letter-spacing:1px;}
	.st5{fill:#70C0C9;}
	.st6{font-size:30px;}
	.st7{fill:none;}
	.st8{fill:#434343;}
	.st9{font-size:18px;}
</style>
<rect x="16.5" y="243.9" class="st0" width="245.2" height="147.7"/>
<rect x="316.8" y="244.3" class="st0" width="245.2" height="147.7"/>
<rect x="135" y="75.7" class="st0" width="309.1" height="87.2"/>
<g>
	<text transform="matrix(1 0 0 1 68.6 288.0869)" class="st1 st2 st3 st4">化學處理程序</text>
</g>
<g>
	<text transform="matrix(1 0 0 1 192.8598 53.0869)" class="st5 st2 st6 st4">貴金屬回收製程</text>
</g>
<g>
	<text transform="matrix(1 0 0 1 267 552.2617)" class="st1 st2 st3">成品</text>
</g>
<g>
	<rect x="28.9" y="309.6" class="st7" width="219.7" height="57.6"/>
	<text transform="matrix(1 0 0 1 28.8721 324.7783)" class="st8 st2 st9 st4">溶蝕、剥離、化學還原、</text>
	<text transform="matrix(1 0 0 1 28.8721 357.4783)" class="st8 st2 st9 st4">電解、離子交換、熔煉等</text>
</g>
<g>
	<text transform="matrix(1 0 0 1 363.2999 288.0869)" class="st1 st2 st3 st4">物理處理程序</text>
</g>
<g>
	<rect x="329.6" y="309.6" class="st7" width="222.7" height="57.6"/>
	<text transform="matrix(1 0 0 1 329.5527 324.7783)" class="st8 st2 st9 st4">拆解、分類、破碎、研磨</text>
	<text transform="matrix(1 0 0 1 329.5527 357.4783)" class="st8 st2 st9 st4">、分選等</text>
</g>
<g>
	<rect x="139.5" y="401" class="st1" width="4.3" height="157.5"/>
	<polygon class="st1" points="149.2,558.4 141.7,572.6 134.1,558.4 	"/>
</g>
<g>
	<rect x="438" y="401" class="st1" width="4.3" height="157.5"/>
	<polygon class="st1" points="447.6,558.4 440.1,572.6 432.6,558.4 	"/>
</g>
<g>
	
		<rect x="149.2" y="195.8" transform="matrix(0.7071 -0.7071 0.7071 0.7071 -88.6936 181.7632)" class="st1" width="51.7" height="4.3"/>
	<polygon class="st1" points="162.1,221.6 146.7,226.4 151.4,211 	"/>
</g>
<g>
	
		<rect x="413.6" y="172.1" transform="matrix(0.7071 -0.7071 0.7071 0.7071 -18.1805 351.926)" class="st1" width="4.3" height="51.7"/>
	<polygon class="st1" points="439.3,211 444.1,226.3 428.7,221.6 	"/>
</g>
<polygon class="st1" points="450.6,675.9 125.1,675.9 129.4,663.5 454.9,663.5 "/>
<rect x="150.3" y="93" class="st7" width="293.7" height="58"/>
<text transform="matrix(1 0 0 1 150.3335 109.0555)"><tspan x="0" y="0" class="st8 st2 st9 st4">含貴金屬固體廢料、貴金屬廢液</tspan><tspan x="0" y="36" class="st8 st2 st9 st4">、混合電子廢料、廢資訊物品等</tspan></text>
<rect x="131.7" y="593.5" class="st7" width="321.3" height="58"/>
<text transform="matrix(1 0 0 1 131.6665 609.5392)"><tspan x="0" y="0" class="st8 st2 st9 st4">金、銀、鈀、鐵、銅、鋁、錫、塑、</tspan><tspan x="0" y="36" class="st8 st2 st9 st4">人造混擬土等</tspan></text>
</svg>
