<?xml version="1.0" encoding="utf-8"?>
<!-- Generator: Adobe Illustrator 21.1.0, SVG Export Plug-In . SVG Version: 6.00 Build 0)  -->
<svg version="1.1" id="圖層_1" xmlns="http://www.w3.org/2000/svg" xmlns:xlink="http://www.w3.org/1999/xlink" x="0px" y="0px"
	 viewBox="0 0 382 1679" style="enable-background:new 0 0 382 1679;" xml:space="preserve">
<style type="text/css">
	.st0{fill:#F3F6F9;}
	.st1{fill:#595757;}
	.st2{font-family:'微軟正黑體';font-weight:bold;}
	.st3{font-size:16px;}
	.st4{fill:#02599F;}
	.st5{font-size:24px;}
	.st6{fill:none;stroke:#02599F;stroke-width:2;stroke-miterlimit:10;}
	.st7{fill:none;stroke:#02599F;stroke-width:2.8;stroke-linejoin:round;stroke-miterlimit:10;}
	.st8{font-size:18px;}
	.st9{letter-spacing:2px;}
	.st10{font-family:'微軟正黑體';font-weight:bold;}
	.st11{font-size:16px;}
	.st12{fill:#02599F;stroke:#02599F;stroke-width:2;stroke-miterlimit:10;}
</style>
<circle class="st0" cx="192.2" cy="767" r="135.9"/>
<g>
	<text transform="matrix(1 0 0 1 187.6753 781.5166)"><tspan x="0" y="0" class="st1 st2 st3">預測/分析</tspan><tspan x="0" y="30" class="st1 st2 st3">感知/監控/警示</tspan><tspan x="0" y="60" class="st1 st2 st3">回饋</tspan></text>
</g>
<g>
	<text transform="matrix(1 0 0 1 186.4406 692.8685)"><tspan x="0" y="0" class="st4 st2 st5">SAP</tspan><tspan x="0" y="27" class="st4 st2 st5">Analytics</tspan><tspan x="0" y="54" class="st4 st2 st5">Cloud</tspan></text>
</g>
<g>
	<polyline class="st6" points="107.5,744.5 107.5,835.8 176.9,835.8 	"/>
	<polyline class="st6" points="122.2,744.5 122.2,805.8 176.9,805.8 	"/>
	<polyline class="st6" points="136.9,745.2 136.9,776.8 176.9,776.8 	"/>
</g>
<g>
	<polygon class="st4" points="193.5,972.9 201,954.9 193.5,954.9 	"/>
</g>
<polyline class="st6" points="27.8,507 27.8,545 357.8,545 357.8,507 "/>
<polyline class="st6" points="357.8,1029.5 357.8,991.5 27.8,991.5 27.8,1029.5 "/>
<g>
	<rect x="190.9" y="545.1" class="st4" width="3.9" height="31.8"/>
	<polygon class="st4" points="198.2,576.6 192.8,586.8 187.4,576.6 	"/>
</g>
<path class="st7" d="M208.7,917.2c75.7-8.2,134.6-72.3,134.6-150.1c0-83.4-67.6-151-151-151s-151,67.6-151,151s67.6,151,151,151
	l0.2-0.4v55.3"/>
<g>
	<g>
		<text transform="matrix(1 0 0 1 116.072 1277.293)"><tspan x="0" y="0" class="st4 st2 st8 st9">考慮維護和服務活動的</tspan><tspan x="0" y="26.3" class="st4 st2 st8 st9">優先順序</tspan></text>
	</g>
	<g>
		<path class="st4" d="M97.6,1276.6h-6.2v-2.2c0-0.6-0.5-1.1-1.1-1.1h-9.6c-0.6,0-1.1,0.5-1.1,1.1v6c0,0.6,0.5,1.1,1.1,1.1h7.1
			c0.6,0,1.1-0.5,1.1-1.1c0-0.6-0.5-1.1-1.1-1.1h-6v-3.7h7.3v2.2c0,0.6,0.5,1.1,1.1,1.1h6.2v23.3h-22v-23.3h1.8
			c0.6,0,1.1-0.5,1.1-1.1c0-0.6-0.5-1.1-1.1-1.1h-2.9c-0.6,0-1.1,0.5-1.1,1.1v25.6c0,0.6,0.5,1.1,1.1,1.1h24.3
			c0.6,0,1.1-0.5,1.1-1.1v-25.6C98.8,1277.1,98.2,1276.6,97.6,1276.6L97.6,1276.6z M97.6,1276.6"/>
		<path class="st4" d="M90.8,1287.1c-0.4-0.5-1.2-0.5-1.6,0l-5.4,5.3l-2-2c-0.4-0.5-1.2-0.5-1.6,0c-0.5,0.4-0.5,1.2,0,1.6l2.8,2.8
			c0.2,0.2,0.5,0.3,0.8,0.3c0.3,0,0.6-0.1,0.8-0.3l6.2-6.1C91.2,1288.3,91.2,1287.6,90.8,1287.1L90.8,1287.1z M90.8,1287.1"/>
	</g>
</g>
<g>
	<g>
		<text transform="matrix(1 0 0 1 116.072 1057.5146)" class="st4 st2 st8 st9">機器健康監測</text>
	</g>
	<g>
		<path class="st4" d="M97.2,1071.6c0-2.3-1.8-4.1-4.1-4.1c-2.3,0-4.1,1.8-4.1,4.1c0,1.9,1.3,3.5,3.1,4v4.6c0,2.6-2.1,4.8-4.8,4.8
			c-2.6,0-4.8-2.1-4.8-4.8v-9.3c3.7-0.5,6.6-3.7,6.6-7.5v-6.6c0-0.6-0.5-1-1-1h-3.3c-0.6,0-1,0.5-1,1c0,0.6,0.5,1,1,1H87v5.5
			c0,3.1-2.5,5.5-5.5,5.5c-3.1,0-5.5-2.5-5.5-5.5v-5.5h2.3c0.6,0,1-0.5,1-1c0-0.6-0.5-1-1-1h-3.3c-0.6,0-1,0.5-1,1v6.6
			c0,3.8,2.9,7,6.6,7.5v9.3c0,3.8,3.1,6.8,6.8,6.8c3.8,0,6.8-3.1,6.8-6.8v-4.6C95.9,1075.2,97.2,1073.5,97.2,1071.6L97.2,1071.6z
			 M93.1,1073.7c-1.1,0-2-0.9-2-2c0-1.1,0.9-2,2-2c1.1,0,2,0.9,2,2C95.1,1072.8,94.2,1073.7,93.1,1073.7L93.1,1073.7z M93.1,1073.7"
			/>
	</g>
	<path class="st6" d="M129.7,1070.7c0,24.7-20.1,44.8-44.8,44.8s-44.8-20.1-44.8-44.8s20.1-44.8,44.8-44.8c7.7,0,15,2,21.3,5.4"/>
</g>
<g>
	<g>
		<text transform="matrix(1 0 0 1 116.072 1166.9697)" class="st4 st2 st8 st9">預防以防止停機</text>
	</g>
	<g>
		<g>
			<path class="st4" d="M99.4,1188.4l-3.9-3.9l2.3-2.3c0.4-0.4,0.4-1.2,0-1.6c-0.4-0.4-1.2-0.4-1.6,0l-0.4,0.4l-3.2-3.2
				c-1.3-1.3-3-2-4.8-2.1c-0.6,0-1.2,0.4-1.2,1.1c0,0.6,0.4,1.2,1.1,1.2c1.2,0.1,2.4,0.6,3.3,1.5l3.2,3.2l-7.2,7.2l-3.2-3.2
				c-2-2-2-5.2,0-7.2c0.4-0.4,0.4-1.2,0-1.6l-3.5-3.5c-0.5-0.5-0.5-1.4,0-2l2-2c1.4-1.4,1.4-3.8,0-5.2c-1.4-1.4-3.8-1.4-5.2,0l-2,2
				c-0.5,0.5-1.4,0.5-2,0c-0.4-0.4-1.2-0.4-1.6,0c-0.5,0.4-0.4,1.2,0,1.6c1.4,1.4,3.8,1.4,5.2,0l2-2c0.5-0.5,1.4-0.5,2,0
				c0.3,0.3,0.4,0.6,0.4,1c0,0.4-0.1,0.7-0.4,1l-2,2c-1.4,1.4-1.4,3.8,0,5.2l2.7,2.7c-2.1,2.9-1.8,6.9,0.8,9.5l3.2,3.2l-0.4,0.4
				c-0.4,0.4-0.4,1.2,0,1.6c0.2,0.2,0.5,0.3,0.8,0.3c0.3,0,0.6-0.1,0.8-0.3l2.3-2.3l3.9,3.9c0.2,0.2,0.5,0.3,0.8,0.3
				c0.3,0,0.6-0.1,0.8-0.3c0.4-0.4,0.4-1.2,0-1.6l-3.9-3.9l3.4-3.4l3.9,3.9c0.2,0.2,0.5,0.3,0.8,0.3c0.3,0,0.6-0.1,0.8-0.3
				C99.9,1189.6,99.9,1188.8,99.4,1188.4L99.4,1188.4z M99.4,1188.4"/>
		</g>
	</g>
	<path class="st6" d="M129.7,1179.3c0,24.7-20.1,44.8-44.8,44.8s-44.8-20.1-44.8-44.8s20.1-44.8,44.8-44.8c7.7,0,15,2,21.3,5.4"/>
</g>
<path class="st6" d="M122.6,1312.1c-8,12.3-21.9,20.5-37.7,20.5c-24.7,0-44.8-20.1-44.8-44.8s20.1-44.8,44.8-44.8
	c7.7,0,15,2,21.3,5.4"/>
<g>
	<g>
		<text transform="matrix(1 0 0 1 116.072 1385.0107)"><tspan x="0" y="0" class="st4 st2 st8 st9">優化的保修和零配件</tspan><tspan x="0" y="26.3" class="st4 st2 st8 st9">管理</tspan></text>
	</g>
	<g>
		<g>
			<path class="st4" d="M100.8,1394c-0.1-0.5-0.5-0.8-1-0.8l-2.5-0.4c-0.1-0.4-0.1-0.2-0.2-0.5l1.6-2.1c0.3-0.4,0.3-0.9,0.1-1.3
				c0-0.1-0.7-1.1-2.1-2.5c-1.5-1.5-2.5-2.1-2.5-2.1c-0.4-0.2-1-0.2-1.3,0.1l-2.1,1.6c-0.4-0.2-0.2-0.1-0.5-0.2l-0.4-2.5
				c-0.1-0.5-0.4-0.8-0.8-1c-0.1,0-1.3-0.4-3.3-0.4c-2.1,0-3.3,0.4-3.3,0.4c-0.5,0.1-0.8,0.5-0.8,1l-0.4,2.5
				c-0.4,0.1-0.2,0.1-0.5,0.2l-2.1-1.6c-0.4-0.3-0.9-0.3-1.3-0.1c-0.1,0-1.1,0.7-2.5,2.1c-1.5,1.5-2.1,2.5-2.1,2.5
				c-0.2,0.4-0.2,1,0.1,1.3l1.6,2.1c-0.2,0.4-0.1,0.2-0.2,0.6l-2.5,0.3c-0.5,0.1-0.8,0.4-1,0.8c0,0.1-0.4,1.3-0.4,3.3
				c0,2.1,0.4,3.3,0.4,3.3c0.1,0.5,0.5,0.8,1,0.8l2.5,0.4c0.1,0.4,0.1,0.2,0.2,0.5l-1.6,2.1c-0.3,0.4-0.3,0.9-0.1,1.3
				c0,0.1,0.7,1.1,2.1,2.5c1.5,1.5,2.5,2.1,2.5,2.1c0.4,0.2,1,0.2,1.3-0.1l2.1-1.6c0.4,0.2,0.2,0.1,0.6,0.2l0.3,2.5
				c0.1,0.5,0.4,0.8,0.8,1c0.1,0,1.3,0.4,3.3,0.4c2.1,0,3.3-0.4,3.3-0.4c0.5-0.1,0.8-0.5,0.8-1l0.4-2.5c0.4-0.1,0.2-0.1,0.5-0.2
				l2.1,1.6c0.4,0.3,0.9,0.3,1.3,0.1c0.1,0,1.1-0.7,2.5-2.1c1.5-1.5,2.1-2.5,2.1-2.5c0.2-0.4,0.2-1-0.1-1.3l-1.6-2.1
				c0.2-0.4,0.1-0.2,0.2-0.5l2.5-0.4c0.5-0.1,0.8-0.4,1-0.8c0-0.1,0.4-1.3,0.4-3.3C101.1,1395.3,100.8,1394.1,100.8,1394L100.8,1394
				z M98.6,1399.4l-2.4,0.3c-0.4,0.1-0.8,0.4-1,0.8c-0.4,1-0.2,0.7-0.7,1.6c-0.2,0.4-0.1,0.9,0.1,1.3l1.5,1.9
				c-0.3,0.4-0.7,0.9-1.3,1.5s-1.1,1-1.5,1.3l-1.9-1.5c-0.4-0.2-0.8-0.3-1.3-0.1c-1,0.5-0.5,0.3-1.6,0.7c-0.4,0.1-0.7,0.5-0.8,1
				l-0.3,2.4c-0.5,0.1-1.2,0.1-2,0.1c-0.8,0-1.5-0.1-2-0.1l-0.3-2.4c-0.1-0.4-0.4-0.8-0.8-1c-1-0.4-0.7-0.2-1.6-0.7
				c-0.4-0.2-0.8-0.1-1.2,0.1l-1.9,1.5c-0.4-0.3-0.9-0.7-1.5-1.3c-0.6-0.6-1-1.1-1.3-1.5l1.5-1.9c0.2-0.4,0.3-0.8,0.1-1.3
				c-0.5-0.9-0.3-0.6-0.7-1.6c-0.1-0.4-0.5-0.7-1-0.8l-2.4-0.3c-0.1-0.5-0.1-1.2-0.1-2c0-0.8,0.1-1.5,0.1-2l2.4-0.3
				c0.4-0.1,0.8-0.4,1-0.8c0.1-0.4,0.3-0.8,0.3-0.8c0,0,0.2-0.4,0.4-0.8c0.2-0.4,0.1-0.8-0.1-1.2l-1.5-1.9c0.3-0.4,0.7-0.9,1.3-1.5
				c0.6-0.6,1.2-1,1.5-1.3l1.9,1.5c0.4,0.2,0.8,0.3,1.2,0.1c0.9-0.5,0.6-0.3,1.6-0.7c0.4-0.1,0.7-0.5,0.8-1l0.3-2.4
				c0.5-0.1,1.2-0.1,2-0.1c0.8,0,1.5,0.1,2,0.1l0.3,2.4c0.1,0.4,0.4,0.8,0.8,1c1,0.4,0.7,0.2,1.6,0.7c0.4,0.2,0.9,0.1,1.3-0.1
				l1.9-1.5c0.4,0.3,0.8,0.7,1.5,1.3s1,1.2,1.3,1.5l-1.5,1.9c-0.2,0.4-0.3,0.8-0.1,1.2c0.5,1,0.4,0.5,0.7,1.6
				c0.1,0.4,0.5,0.7,0.9,0.8l2.4,0.3c0.1,0.5,0.1,1.2,0.1,2C98.8,1398.2,98.7,1398.9,98.6,1399.4L98.6,1399.4z M98.6,1399.4"/>
		</g>
		<path class="st4" d="M85.5,1389.9c-4.1,0-7.5,3.3-7.5,7.5c0,4.1,3.3,7.5,7.5,7.5c4.1,0,7.5-3.3,7.5-7.5
			C92.9,1393.2,89.6,1389.9,85.5,1389.9L85.5,1389.9z M85.5,1402.5c-2.8,0-5.1-2.2-5.1-5.1c0-2.8,2.2-5.1,5.1-5.1
			c2.8,0,5.1,2.2,5.1,5.1C90.6,1400.2,88.3,1402.5,85.5,1402.5L85.5,1402.5z M85.5,1402.5"/>
	</g>
	<path class="st6" d="M122.1,1421.5c-8,11.9-21.7,19.7-37.1,19.7c-24.7,0-44.8-20.1-44.8-44.8s20.1-44.8,44.8-44.8
		c7.7,0,15,2,21.3,5.4"/>
</g>
<g>
	<g>
		<text transform="matrix(1 0 0 1 116.072 1492.7285)" class="st4 st2 st8 st9">基準測試</text>
	</g>
	<g>
		<circle class="st4" cx="87.3" cy="1515.6" r="0.9"/>
		<circle class="st4" cx="81.8" cy="1508.2" r="0.9"/>
		<circle class="st4" cx="92.8" cy="1513.7" r="0.9"/>
		<path class="st4" d="M98.4,1512.2l-8.4-13.4v-4.6c1.1-0.4,1.8-1.4,1.8-2.6c0-1.5-1.2-2.7-2.7-2.7h-7.3c-1.5,0-2.7,1.2-2.7,2.7
			c0,1.2,0.8,2.2,1.8,2.6v4.6c-0.2,0.3-8.1,13-8.4,13.4c-2.2,3.5,0.3,7.9,4.4,7.9H94C98.1,1520.1,100.6,1515.7,98.4,1512.2z
			 M82.6,1499.5c0.1-0.1,0.1-0.3,0.1-0.5v-5.6c0-0.5-0.4-0.9-0.9-0.9c-0.5,0-0.9-0.4-0.9-0.9c0-0.5,0.4-0.9,0.9-0.9h7.3
			c0.5,0,0.9,0.4,0.9,0.9c0,0.5-0.4,0.9-0.9,0.9c-0.5,0-0.9,0.4-0.9,0.9v5.6c0,0.2,0,0.3,0.1,0.5l2.3,3.7c-1.9-0.5-4-0.3-5.9,0.6
			c-1.6,0.8-3.5,0.9-5.1,0.3L82.6,1499.5z M94,1518.3H76.9c-2.6,0-4.2-2.9-2.8-5.1l4.6-7.4c2.2,0.9,4.8,0.8,6.9-0.3
			c2-1,4.6-1,6.8,0.5l4.5,7.2C98.3,1515.4,96.7,1518.3,94,1518.3z"/>
		<path class="st4" d="M81.8,1511c-1.5,0-2.7,1.2-2.7,2.7c0,1.5,1.2,2.7,2.7,2.7s2.7-1.2,2.7-2.7C84.6,1512.2,83.3,1511,81.8,1511z
			 M81.8,1514.6c-0.5,0-0.9-0.4-0.9-0.9c0-0.5,0.4-0.9,0.9-0.9c0.5,0,0.9,0.4,0.9,0.9C82.7,1514.2,82.3,1514.6,81.8,1514.6z"/>
		<path class="st4" d="M89.2,1507.3c-1.5,0-2.7,1.2-2.7,2.7c0,1.5,1.2,2.7,2.7,2.7s2.7-1.2,2.7-2.7
			C91.9,1508.5,90.7,1507.3,89.2,1507.3z M89.2,1511c-0.5,0-0.9-0.4-0.9-0.9c0-0.5,0.4-0.9,0.9-0.9s0.9,0.4,0.9,0.9
			C90.1,1510.6,89.7,1511,89.2,1511z"/>
	</g>
	<path class="st6" d="M129.7,1504.2c0,24.7-20.1,44.8-44.8,44.8s-44.8-20.1-44.8-44.8s20.1-44.8,44.8-44.8c7.7,0,15,2,21.3,5.4"/>
</g>
<g>
	<g>
		<text transform="matrix(1 0 0 1 116.9402 1600.4453)" class="st4 st2 st8 st9">設計改進</text>
	</g>
	<g>
		<g>
			<path class="st4" d="M93.1,1600.3c-1.9-2.2-4.7-3.5-7.7-3.5c-2.9,0-5.7,1.3-7.7,3.5c-1.6,1.8-2.5,4.2-2.5,6.7
				c0,2.5,0.9,4.9,2.5,6.7c0.3,0.3,0.6,0.6,0.9,0.9c1.1,1,1.5,1.9,1.5,3.1l0,1.2c0,0.6,0.5,1.2,1.1,1.2h0c0.6,0,1.1-0.5,1.2-1.1
				l0-1.2v0c0-1.9-0.7-3.4-2.3-4.8c-0.2-0.2-0.5-0.4-0.7-0.7c-2.6-3-2.6-7.4,0-10.4c1.5-1.7,3.7-2.7,5.9-2.7c2.3,0,4.4,1,5.9,2.7
				c2.6,3,2.6,7.4,0,10.4c-0.2,0.2-0.4,0.5-0.7,0.7c-1.5,1.4-2.3,2.9-2.3,4.7l0,1.3c0,0.6,0.5,1.2,1.1,1.2h0c0.6,0,1.1-0.5,1.2-1.1
				l0-1.3c0,0,0,0,0,0c0-1.2,0.4-2.1,1.5-3c0.3-0.3,0.6-0.6,0.9-0.9c1.6-1.8,2.5-4.2,2.5-6.7C95.7,1604.6,94.8,1602.2,93.1,1600.3
				L93.1,1600.3z M93.1,1600.3"/>
		</g>
		<path class="st4" d="M89.6,1622h-8.2c-0.6,0-1.2,0.5-1.2,1.2c0,0.6,0.5,1.2,1.2,1.2h8.2c0.6,0,1.1-0.5,1.1-1.2
			C90.7,1622.5,90.2,1622,89.6,1622L89.6,1622z M89.6,1622"/>
		<path class="st4" d="M87.7,1625.8h-4.4c-0.6,0-1.2,0.5-1.2,1.2c0,0.6,0.5,1.2,1.2,1.2h4.4c0.6,0,1.2-0.5,1.2-1.2
			C88.9,1626.4,88.3,1625.8,87.7,1625.8L87.7,1625.8z M87.7,1625.8"/>
		<path class="st4" d="M86.3,1610.4l-3.2-3.2c-0.4-0.4-1.2-0.4-1.6,0c-0.4,0.4-0.4,1.2,0,1.6l2.8,2.8v7.3c0,0.6,0.5,1.2,1.2,1.2
			c0.6,0,1.2-0.5,1.2-1.2v-7.7C86.6,1610.9,86.5,1610.6,86.3,1610.4L86.3,1610.4z M86.3,1610.4"/>
		<path class="st4" d="M89.5,1607.2c-0.4-0.4-1.2-0.4-1.6,0l-0.6,0.6c-0.4,0.4-0.4,1.2,0,1.6c0.2,0.2,0.5,0.3,0.8,0.3
			c0.3,0,0.6-0.1,0.8-0.3l0.6-0.6C89.9,1608.4,89.9,1607.6,89.5,1607.2L89.5,1607.2z M89.5,1607.2"/>
	</g>
	<path class="st6" d="M129.7,1612.7c0,24.7-20.1,44.8-44.8,44.8s-44.8-20.1-44.8-44.8s20.1-44.8,44.8-44.8c7.7,0,15,2,21.3,5.4"/>
</g>
<g>
	<g>
		<text transform="matrix(1 0 0 1 116.7119 173.2044)" class="st4 st2 st8 st9">業務資料</text>
	</g>
	<g>
		<text transform="matrix(1 0 0 1 139.5701 198.0151)"><tspan x="0" y="0" class="st1 st10 st11">促修資訊</tspan><tspan x="0" y="24" class="st1 st10 st11">維護/服務的歷史</tspan><tspan x="0" y="48" class="st1 st10 st11">客戶資料</tspan><tspan x="0" y="72" class="st1 st10 st11">經銷商活動</tspan><tspan x="0" y="96" class="st1 st10 st11">成本和風險</tspan></text>
	</g>
	<g>
		<path class="st6" d="M128,189c0,24.9-20.1,45-45,45s-45-20.1-45-45s20.1-45,45-45c5.9,0,11.5,1.1,16.7,3.2"/>
		<path class="st4" d="M98.4,183.6v-2.6c0-1.7-1.4-3.1-3.1-3.1H79.9v-1.1c0-1.5-1.2-2.7-2.7-2.7H66.3c-0.7,0-1.3,0.6-1.3,1.3v26.9
			c0,0.7,0.6,1.3,1.3,1.3c0.7,0,1.3-0.6,1.3-1.3v-25.6h9.5c0,0,0.1,0,0.1,0.1v2.4c0,0.7,0.6,1.3,1.3,1.3h16.8c0.2,0,0.4,0.2,0.4,0.4
			v3.9c0,0.7,0.6,1.3,1.3,1.3h0.8c0.2,0,0.4,0.2,0.4,0.4v14.4h-25v-14.4c0-0.2,0.2-0.4,0.4-0.4h17.5c0.7,0,1.3-0.6,1.3-1.3
			c0-0.7-0.6-1.3-1.3-1.3H73.7c-1.7,0-3.1,1.4-3.1,3.1v15.8c0,0.7,0.6,1.3,1.3,1.3h27.7c0.7,0,1.3-0.6,1.3-1.3v-15.8
			C101,185.2,99.9,183.9,98.4,183.6L98.4,183.6z M98.4,183.6"/>
	</g>
</g>
<g>
	<g>
		<text transform="matrix(1 0 0 1 116.7119 344.8711)" class="st4 st2 st8 st9">協力廠商數據</text>
	</g>
	<g>
		<text transform="matrix(1 0 0 1 139.5701 369.6818)" class="st1 st10 st11">結構化和非結構化</text>
	</g>
	<g>
		<path class="st6" d="M128,360.1c0,24.9-20.1,45-45,45s-45-20.1-45-45s20.1-45,45-45c5.9,0,11.5,1.1,16.7,3.2"/>
		<path class="st4" d="M101.6,355.9l-9.8-9.8c-0.5-0.5-1.2-0.5-1.7,0l-4.8,4.8c-0.5,0.5-0.5,1.2,0,1.7l0.9,0.9l-2.5,0.2
			c-0.3,0-0.5,0.1-0.8,0.2c-0.3-0.1-0.5-0.1-0.8-0.2l-2.5-0.2l0.9-0.9c0.5-0.5,0.5-1.2,0-1.7l-4.8-4.8c-0.5-0.5-1.2-0.5-1.7,0
			l-9.8,9.8c-0.5,0.5-0.5,1.2,0,1.7l4.8,4.8c0.5,0.5,1.2,0.5,1.7,0l1.1-1.1l0.2,2.5c0.1,0.8,0.4,1.6,1,2.2l7.1,7.1
			c1.9,1.9,4,1.8,5.3,0.4c0.6-0.6,7.5-7.5,7.5-7.5c0.6-0.6,0.9-1.4,1-2.2l0.2-2.5l1.1,1.1c0.5,0.5,1.2,0.5,1.7,0l4.8-4.8
			C102.1,357.1,102.1,356.4,101.6,355.9z M69.9,359.9l-3.1-3.1l8.2-8.2l3.1,3.1C68.2,361.6,70.7,359.1,69.9,359.9z M81.8,371.4
			l-7.1-7.1c-0.2-0.2-0.3-0.5-0.3-0.7l-0.4-4.5c0.5-0.5,2.7-2.7,3.5-3.5L82,356c0.3,0,0.5,0.1,0.7,0.3c1.7,1.7,7.1,7.1,7.5,7.5
			c0.4,0.4,0.4,1.1,0,1.6c0,0,0,0,0,0c-0.4,0.4-1.1,0.4-1.6,0c0,0,0,0,0,0l-1.9-1.9c-0.5-0.5-1.2-0.5-1.7,0c-0.5,0.5-0.5,1.2,0,1.7
			l1.9,1.9c0,0,0,0,0,0c0.4,0.4,0.4,1.1,0,1.6c-0.4,0.4-1.1,0.4-1.6,0c0,0,0,0,0,0l-1.9-1.9c-0.5-0.5-1.2-0.5-1.7,0s-0.5,1.2,0,1.7
			l1.9,1.9l0,0c0.4,0.4,0.4,1.1,0,1.6c-0.3,0.3-0.6,0.4-1,0.3C82.4,372.1,82.2,371.9,81.8,371.4z M92,359.1l-0.3,2.9
			c-0.4-0.4-4.4-4.4-6.2-6.2l2.9-0.3C89.3,356.5,91.7,358.9,92,359.1z M96,359.9c-1.1-1.1-7.9-7.9-8.2-8.2l3.1-3.1l8.2,8.2L96,359.9
			z"/>
	</g>
</g>
<g>
	<g>
		<text transform="matrix(1 0 0 1 116.7119 456.5378)" class="st4 st2 st8">SAP LeonardoEdge</text>
	</g>
	<g>
		<text transform="matrix(1 0 0 1 139.5701 481.3484)"><tspan x="0" y="0" class="st1 st10 st11">生產營運</tspan><tspan x="0" y="24" class="st1 st10 st11">資產管理</tspan></text>
	</g>
	<g>
		<path class="st6" d="M128,471.6c0,24.9-20.1,45-45,45s-45-20.1-45-45s20.1-45,45-45c5.9,0,11.5,1.1,16.7,3.2"/>
		<g>
			<path class="st4" d="M65,477.1h11.5v11.5H65V477.1z M80.1,488.6h11.5v-11.5H80.1V488.6z M65.2,473.7h11.5v-11.5H65.2V473.7z
				 M90.3,460.8l-4-6.2l-6.2,4l4,6.2L90.3,460.8z M82.1,470.3l5.5,4.9l4.9-5.5l-5.5-4.9L82.1,470.3z M97.1,458.1l-6.3,3.9l3.9,6.3
				l6.3-3.9L97.1,458.1z M97.1,458.1"/>
		</g>
	</g>
</g>
<g>
	<g>
		<text transform="matrix(1 0 0 1 116.7119 49.2044)" class="st4 st2 st8 st9">傳感數據</text>
	</g>
	<g>
		<text transform="matrix(1 0 0 1 139.5701 74.0151)"><tspan x="0" y="0" class="st1 st10 st11">感測器測量</tspan><tspan x="0" y="24" class="st1 st10 st11">地理空間資料</tspan><tspan x="0" y="48" class="st1 st10 st11">診斷/事件驅動</tspan></text>
	</g>
	<g>
		<path class="st6" d="M128,63.9c0,24.9-20.1,45-45,45s-45-20.1-45-45s20.1-45,45-45c5.9,0,11.5,1.1,16.7,3.2"/>
		<g>
			<path class="st4" d="M96.7,57.4L96.7,57.4L96.7,57.4c-0.4-4-3.7-7-7.6-7c-1.1,0-2.1,0.2-3,0.6l-0.1,0l0-0.1
				c-2-3.2-5.5-5.2-9.3-5.2c-6,0-10.9,4.8-10.9,10.8c0,1.1,0.2,2.1,0.5,3.1l0,0l0,0C65.4,61,65,62.4,65,63.8c0,3.8,3.1,6.8,6.9,6.8
				H77c0.8,0,1.4-0.6,1.4-1.4c0-0.8-0.6-1.4-1.4-1.4h-5.1c-2.3,0-4.1-1.8-4.1-4c0-1,0.4-2,1.1-2.7c0.4-0.4,0.5-1,0.3-1.5
				c-0.4-0.9-0.6-1.9-0.6-2.9c0-4.4,3.6-8,8.1-8c3.2,0,6.1,1.9,7.5,4.9c0.2,0.4,0.5,0.7,0.9,0.8c0.5,0.1,1,0,1.3-0.2
				c0.9-0.6,1.9-0.9,2.8-0.9c1.3,0,2.5,0.5,3.4,1.4c0.9,0.9,1.3,2,1.3,3.2c0,1.1,0.3,1.7,1.1,1.9c1.9,0.5,3.2,2.1,3.2,3.9
				c0,2.2-1.8,4-4.1,4h-6c-0.8,0-1.4,0.6-1.4,1.4c0,0.8,0.6,1.4,1.4,1.4h6c3.8,0,6.9-3.1,6.9-6.8C101,61,99.3,58.5,96.7,57.4z"/>
			<path class="st4" d="M82.4,66.1c-0.8,0-1.4,0.6-1.4,1.4v5.2h-8.5c-2.5,0-4.6,2.1-4.6,4.6s2.1,4.6,4.6,4.6h19.9
				c2.5,0,4.6-2.1,4.6-4.6c0-2.5-2.1-4.6-4.6-4.6h-8.5v-5.2C83.8,66.7,83.2,66.1,82.4,66.1z M92.3,75.5c1,0,1.8,0.8,1.8,1.8
				s-0.8,1.8-1.8,1.8H72.5c-1,0-1.8-0.8-1.8-1.8s0.8-1.8,1.8-1.8H92.3z"/>
			<path class="st4" d="M82.4,61.2c-1.2,0-2.4,0.4-3.3,1.3c-0.3,0.3-0.4,0.6-0.4,1c0,0.4,0.1,0.7,0.4,1c0.3,0.3,0.6,0.4,1,0.4
				c0,0,0,0,0,0c0.4,0,0.7-0.1,1-0.4c0.7-0.7,1.9-0.7,2.6,0c0.3,0.3,0.6,0.4,0.9,0.4c0,0,0,0,0,0c0.5,0,0.9-0.3,1.1-0.4
				c0.3-0.3,0.4-0.6,0.4-1c0-0.4-0.2-0.7-0.4-1C84.8,61.6,83.6,61.2,82.4,61.2z"/>
			<path class="st4" d="M89,61.3c0.5-0.6,0.5-1.5,0-2c-3.6-3.5-9.5-3.5-13.1,0c-0.6,0.5-0.6,1.4,0,2c0.5,0.6,1.4,0.6,2,0
				c2.5-2.5,6.7-2.5,9.2,0h0C87.8,62.1,88.8,61.6,89,61.3z"/>
		</g>
	</g>
</g>
<g>
	<g>
		<path class="st12" d="M144.9,718.3c-0.6-10.4-9.1-18.6-19.4-18.6c-6.2,0-12.3,3.1-16,8.1c-0.1,0-0.2-0.1-0.3-0.1
			c-0.2-0.1-0.5-0.2-0.7-0.3c-0.1-0.1-0.3-0.1-0.4-0.1c-0.2-0.1-0.5-0.2-0.7-0.2c-0.1,0-0.3-0.1-0.4-0.1c-0.3-0.1-0.5-0.1-0.8-0.1
			c-0.1,0-0.2,0-0.3-0.1c-0.4,0-0.8-0.1-1.2-0.1c-5.7,0-10.3,4.6-10.3,10.3c0,0.1,0,0.3,0,0.4v0c-4.8,2.6-8.1,8.1-8.1,13.5
			c0,8.1,6.6,14.8,14.8,14.8h28.2c0.1,0,0.2,0,0.4,0l0.1,0l0.2,0c0.1,0,0.2,0,0.4,0h11.3c7.6,0,13.8-6.2,13.8-13.8
			C155.3,725.5,150.9,719.9,144.9,718.3L144.9,718.3z M141.4,743.4h-11.3c-0.1,0-0.1,0-0.2,0l-0.3,0l-0.2,0c-0.1,0-0.1,0-0.2,0H101
			c-6.9,0-12.5-5.6-12.5-12.5c0-4.8,3.1-9.7,7.4-11.8l0.7-0.3v-0.7c0-0.1,0-0.3,0-0.4l0-0.2l0-0.2c0-0.1,0-0.2,0-0.3
			c0-4.4,3.6-8.1,8.1-8.1c0.4,0,0.7,0,1.1,0.1c0.1,0,0.2,0,0.3,0c0.3,0.1,0.6,0.1,0.9,0.2c0,0,0.1,0,0.1,0c0.3,0.1,0.6,0.2,1,0.4
			c0.1,0,0.2,0.1,0.2,0.1c0.3,0.1,0.5,0.3,0.8,0.5c2.2,1.4,3.7,3.9,3.7,6.8c0,0.6,0.5,1.2,1.2,1.2c0.6,0,1.2-0.5,1.2-1.2
			c0-3.2-1.4-6-3.7-7.9c3.3-4.3,8.7-7,14.1-7c8.9,0,16.3,7.1,17.1,16c-1.2-0.1-2.9-0.1-4.7,0.1c-0.6,0.1-1.1,0.7-1,1.3
			c0.1,0.6,0.6,1,1.1,1c0.1,0,0.1,0,0.2,0c2.6-0.4,5.2,0,5.4,0c5.4,1,9.4,5.9,9.4,11.5C153,738.2,147.8,743.4,141.4,743.4
			L141.4,743.4z M141.4,743.4"/>
	</g>
</g>
</svg>
