<?xml version="1.0" encoding="utf-8"?>
<!-- Generator: Adobe Illustrator 21.1.0, SVG Export Plug-In . SVG Version: 6.00 Build 0)  -->
<svg version="1.1" id="圖層_1" xmlns="http://www.w3.org/2000/svg" xmlns:xlink="http://www.w3.org/1999/xlink" x="0px" y="0px"
	 viewBox="0 0 1366 768" style="enable-background:new 0 0 1366 768;" xml:space="preserve">
<style type="text/css">
	.st0{fill:#F3F6F9;}
	.st1{fill:#02599F;}
	.st2{font-family:'微軟正黑體';font-weight:bold;}
	.st3{font-size:24px;}
	.st4{fill:#02599F;stroke:#02599F;stroke-width:2;stroke-miterlimit:10;}
	.st5{fill:none;stroke:#02599F;stroke-width:2;stroke-miterlimit:10;}
	.st6{fill:none;stroke:#02599F;stroke-width:2.6485;stroke-miterlimit:10;}
	.st7{fill:none;stroke:#02599F;stroke-width:2.5692;stroke-miterlimit:10;}
	.st8{fill:#595757;}
	.st9{font-family:'微軟正黑體';font-weight:bold;}
	.st10{font-size:18px;}
	.st11{fill:none;stroke:#02599F;stroke-width:1.7128;stroke-miterlimit:10;}
	.st12{font-size:20px;}
	.st13{letter-spacing:2px;}
</style>
<g>
	<circle class="st0" cx="645.4" cy="321.6" r="128.5"/>
	<g>
		
			<rect x="430.3" y="280.1" transform="matrix(6.123234e-17 -1 1 6.123234e-17 103.9107 760.4212)" class="st1" width="3.7" height="96.3"/>
		<polygon class="st1" points="480,323.2 489.7,328.3 480,333.4 		"/>
	</g>
	<g>
		<text transform="matrix(1 0 0 1 631.8633 291.1479)" class="st1 st2 st3">SAP Analytics Cloud</text>
	</g>
	<g>
		<g>
			<path class="st4" d="M602.5,274.1c-0.6-9.8-8.6-17.6-18.4-17.6c-5.9,0-11.6,2.9-15.2,7.6c-0.1,0-0.2-0.1-0.2-0.1
				c-0.2-0.1-0.4-0.2-0.7-0.3c-0.1,0-0.2-0.1-0.4-0.1c-0.2-0.1-0.4-0.1-0.7-0.2c-0.1,0-0.3-0.1-0.4-0.1c-0.2-0.1-0.5-0.1-0.7-0.1
				c-0.1,0-0.2,0-0.3-0.1c-0.4,0-0.7-0.1-1.1-0.1c-5.4,0-9.8,4.4-9.8,9.8c0,0.1,0,0.3,0,0.4v0c-4.5,2.5-7.6,7.6-7.6,12.8
				c0,7.7,6.3,14,14,14h26.7c0.1,0,0.2,0,0.3,0l0.1,0l0.1,0c0.1,0,0.2,0,0.3,0h10.7c7.2,0,13.1-5.9,13.1-13.1
				C612.3,280.9,608.1,275.6,602.5,274.1L602.5,274.1z M599.2,297.8h-10.7c-0.1,0-0.1,0-0.2,0l-0.3,0l-0.2,0c-0.1,0-0.1,0-0.2,0H561
				c-6.5,0-11.8-5.3-11.8-11.8c0-4.5,2.9-9.2,7-11.2l0.6-0.3v-0.7c0-0.1,0-0.3,0-0.4l0-0.2l0-0.2c0-0.1,0-0.2,0-0.3
				c0-4.2,3.4-7.6,7.6-7.6c0.3,0,0.7,0,1,0.1c0.1,0,0.2,0,0.3,0c0.3,0.1,0.6,0.1,0.9,0.2c0,0,0.1,0,0.1,0c0.3,0.1,0.6,0.2,0.9,0.3
				c0.1,0,0.1,0.1,0.2,0.1c0.3,0.1,0.5,0.3,0.8,0.4c2.1,1.4,3.5,3.7,3.5,6.4c0,0.6,0.5,1.1,1.1,1.1c0.6,0,1.1-0.5,1.1-1.1
				c0-3-1.4-5.7-3.5-7.5c3.1-4.1,8.3-6.7,13.4-6.7c8.4,0,15.4,6.7,16.1,15.1c-1.1-0.1-2.8-0.1-4.4,0.1c-0.6,0.1-1,0.6-0.9,1.2
				c0.1,0.5,0.5,0.9,1.1,0.9c0.1,0,0.1,0,0.2,0c2.4-0.4,4.9,0,5.1,0c5.1,1,8.9,5.6,8.9,10.9C610.1,292.9,605.2,297.8,599.2,297.8
				L599.2,297.8z M599.2,297.8"/>
		</g>
	</g>
	<g>
		<polyline class="st5" points="566.7,299.3 566.7,385.7 632.3,385.7 		"/>
		<polyline class="st5" points="580.6,299.3 580.6,357.3 632.3,357.3 		"/>
		<polyline class="st5" points="594.4,299.9 594.4,329.9 632.3,329.9 		"/>
	</g>
	<line class="st6" x1="787.6" y1="335.3" x2="923.1" y2="335.3"/>
	<polygon class="st1" points="923.1,334.3 906.1,327.2 906.1,334.3 	"/>
	<path class="st7" d="M788.2,334c-6.7,72.7-67.8,129.7-142.2,129.7c-78.9,0-142.8-63.9-142.8-142.8S567.1,178,645.9,178
		c53.1,0,99.5,29,124.1,72.1"/>
	<g>
		<g>
			<text transform="matrix(1 0 0 1 150.0693 148.4341)"><tspan x="0" y="0" class="st8 st9 st10">感測器測量</tspan><tspan x="0" y="28.4" class="st8 st9 st10">地理空間資料</tspan><tspan x="0" y="56.8" class="st8 st9 st10">診斷/事件驅動</tspan></text>
		</g>
		<g>
			<text transform="matrix(1 0 0 1 150.0693 290.7456)"><tspan x="0" y="0" class="st8 st9 st10">促修資訊</tspan><tspan x="0" y="28.4" class="st8 st9 st10">維護/服務的歷史</tspan><tspan x="0" y="56.8" class="st8 st9 st10">客戶資料</tspan><tspan x="0" y="85.1" class="st8 st9 st10">經銷商活動</tspan><tspan x="0" y="113.5" class="st8 st9 st10">成本和風險</tspan></text>
		</g>
		<g>
			<text transform="matrix(1 0 0 1 150.0693 494.7969)" class="st8 st9 st10">結構化和非結構化</text>
		</g>
		<g>
			<text transform="matrix(1 0 0 1 150.0693 620.5557)"><tspan x="0" y="0" class="st8 st9 st10">生產營運</tspan><tspan x="0" y="28.4" class="st8 st9 st10">資產管理</tspan></text>
		</g>
		<g>
			<text transform="matrix(1 0 0 1 642.4902 334.3262)"><tspan x="0" y="0" class="st8 st2 st10">預測/分析</tspan><tspan x="0" y="28.4" class="st8 st2 st10">感知/監控/警示</tspan><tspan x="0" y="56.8" class="st8 st2 st10">回饋</tspan></text>
		</g>
		<g>
			<g>
				<text transform="matrix(1 0 0 1 452.2178 533.9707)" class="st8 st2 st3">Preventive and Predictive Analytics</text>
			</g>
			<g>
				<text transform="matrix(1 0 0 1 523.6699 580.7715)"><tspan x="0" y="0" class="st8 st9 st10">分析監測設備效率並整合業務資訊</tspan><tspan x="25.5" y="28.4" class="st8 st9 st10">來預測未來可能發生的故障</tspan></text>
			</g>
			<line class="st11" x1="452" y1="546.7" x2="850.7" y2="546.7"/>
		</g>
	</g>
	<g>
		<polyline class="st11" points="298.6,111.7 367.1,111.7 367.1,641.4 298.6,641.4 		"/>
		<polyline class="st11" points="1017.1,74.8 946.2,74.8 946.2,667.8 1019,667.8 		"/>
		<path class="st11" d="M137.5,130.7c0,26.9-21.8,48.8-48.8,48.8S40,157.6,40,130.7s21.8-48.8,48.8-48.8c8.4,0,16.3,2.1,23.2,5.9"/>
		<path class="st11" d="M137.5,273.5c0,26.9-21.8,48.8-48.8,48.8S40,300.5,40,273.5c0-26.9,21.8-48.8,48.8-48.8
			c8.4,0,16.3,2.1,23.2,5.9"/>
		<path class="st11" d="M137.5,481.6c0,26.9-21.8,48.8-48.8,48.8S40,508.6,40,481.6c0-26.9,21.8-48.8,48.8-48.8
			c8.4,0,16.3,2.1,23.2,5.9"/>
		<path class="st11" d="M137.5,609.3c0,26.9-21.8,48.8-48.8,48.8S40,636.3,40,609.3c0-26.9,21.8-48.8,48.8-48.8
			c8.4,0,16.3,2.1,23.2,5.9"/>
		<path class="st11" d="M1115,77.5c0,26.9-21.8,48.8-48.8,48.8s-48.8-21.8-48.8-48.8s21.8-48.8,48.8-48.8c8.4,0,16.3,2.1,23.2,5.9"
			/>
		<path class="st11" d="M1115,195.7c0,26.9-21.8,48.8-48.8,48.8s-48.8-21.8-48.8-48.8s21.8-48.8,48.8-48.8c8.4,0,16.3,2.1,23.2,5.9"
			/>
		<path class="st11" d="M1107.3,340.4c-8.7,13.4-23.8,22.3-41,22.3c-26.9,0-48.8-21.8-48.8-48.8c0-26.9,21.8-48.8,48.8-48.8
			c8.4,0,16.3,2.1,23.2,5.9"/>
		<path class="st11" d="M1115,432.2c0,26.9-21.8,48.8-48.8,48.8s-48.8-21.8-48.8-48.8c0-26.9,21.8-48.8,48.8-48.8
			c8.4,0,16.3,2.1,23.2,5.9"/>
		<path class="st11" d="M1115,549.5c0,26.9-21.8,48.8-48.8,48.8s-48.8-21.8-48.8-48.8s21.8-48.8,48.8-48.8c8.4,0,16.3,2.1,23.2,5.9"
			/>
		<path class="st11" d="M1115,667.7c0,26.9-21.8,48.8-48.8,48.8s-48.8-21.8-48.8-48.8c0-26.9,21.8-48.8,48.8-48.8
			c8.4,0,16.3,2.1,23.2,5.9"/>
	</g>
	<path d="M961.7,365.9"/>
	<g>
		<g>
			<g>
				<text transform="matrix(1 0 0 1 1100.208 302.4766)"><tspan x="0" y="0" class="st1 st2 st12 st13">考慮維護和服務活動的</tspan><tspan x="0" y="25.5" class="st1 st2 st12 st13">優先順序</tspan></text>
			</g>
			<g>
				<path class="st1" d="M1080.1,301.7h-6.7v-2.4c0-0.7-0.6-1.3-1.3-1.3h-10.5c-0.7,0-1.3,0.6-1.3,1.3v6.6c0,0.7,0.6,1.3,1.3,1.3
					h7.7c0.7,0,1.3-0.6,1.3-1.3c0-0.7-0.6-1.3-1.3-1.3h-6.5v-4.1h8v2.4c0,0.7,0.6,1.3,1.3,1.3h6.7v25.4H1055v-25.4h1.9
					c0.7,0,1.3-0.6,1.3-1.3c0-0.7-0.6-1.3-1.3-1.3h-3.2c-0.7,0-1.3,0.6-1.3,1.3v27.9c0,0.7,0.6,1.3,1.3,1.3h26.4
					c0.7,0,1.3-0.6,1.3-1.3V303C1081.4,302.3,1080.8,301.7,1080.1,301.7L1080.1,301.7z M1080.1,301.7"/>
				<path class="st1" d="M1072.7,313.2c-0.5-0.5-1.3-0.5-1.8,0l-5.8,5.8l-2.1-2.1c-0.5-0.5-1.3-0.5-1.8,0c-0.5,0.5-0.5,1.3,0,1.8
					l3,3c0.2,0.2,0.6,0.4,0.9,0.4c0.3,0,0.6-0.1,0.9-0.4l6.7-6.7C1073.2,314.5,1073.2,313.7,1072.7,313.2L1072.7,313.2z
					 M1072.7,313.2"/>
			</g>
		</g>
		<g>
			<g>
				<text transform="matrix(1 0 0 1 1100.208 63.1699)" class="st1 st2 st12 st13">機器健康監測</text>
			</g>
			<g>
				<path class="st1" d="M1079.6,78.6c0-2.5-2-4.5-4.5-4.5c-2.5,0-4.5,2-4.5,4.5c0,2.1,1.4,3.8,3.3,4.3v5c0,2.9-2.3,5.2-5.2,5.2
					c-2.9,0-5.2-2.3-5.2-5.2V77.8c4-0.6,7.2-4,7.2-8.2v-7.2c0-0.6-0.5-1.1-1.1-1.1h-3.6c-0.6,0-1.1,0.5-1.1,1.1
					c0,0.6,0.5,1.1,1.1,1.1h2.5v6c0,3.3-2.7,6-6,6c-3.3,0-6-2.7-6-6v-6h2.5c0.6,0,1.1-0.5,1.1-1.1c0-0.6-0.5-1.1-1.1-1.1h-3.6
					c-0.6,0-1.1,0.5-1.1,1.1v7.2c0,4.2,3.1,7.7,7.2,8.2v10.1c0,4.1,3.3,7.5,7.5,7.5c4.1,0,7.5-3.3,7.5-7.5v-5
					C1078.2,82.4,1079.6,80.6,1079.6,78.6L1079.6,78.6z M1075.1,80.8c-1.2,0-2.2-1-2.2-2.2c0-1.2,1-2.2,2.2-2.2c1.2,0,2.2,1,2.2,2.2
					C1077.4,79.8,1076.4,80.8,1075.1,80.8L1075.1,80.8z M1075.1,80.8"/>
			</g>
		</g>
		<g>
			<g>
				<text transform="matrix(1 0 0 1 1100.208 182.3501)" class="st1 st2 st12 st13">預防以防止停機</text>
			</g>
			<g>
				<g>
					<path class="st1" d="M1082.1,205.7l-4.2-4.3l2.5-2.5c0.5-0.5,0.5-1.3,0-1.8c-0.5-0.5-1.3-0.5-1.8,0l-0.4,0.4l-3.4-3.4
						c-1.4-1.4-3.2-2.2-5.2-2.3c-0.7,0-1.3,0.5-1.3,1.2c0,0.7,0.5,1.3,1.2,1.3c1.3,0.1,2.6,0.6,3.6,1.6l3.4,3.4l-7.8,7.8l-3.4-3.4
						c-2.2-2.2-2.2-5.6,0-7.8c0.5-0.5,0.5-1.3,0-1.8l-3.8-3.8c-0.6-0.6-0.6-1.6,0-2.1l2.1-2.1c1.6-1.6,1.6-4.1,0-5.7
						c-1.6-1.6-4.1-1.6-5.7,0l-2.1,2.1c-0.6,0.6-1.6,0.6-2.1,0c-0.5-0.5-1.3-0.5-1.8,0c-0.5,0.5-0.5,1.3,0,1.8
						c1.6,1.6,4.1,1.6,5.7,0l2.1-2.1c0.6-0.6,1.6-0.6,2.1,0c0.3,0.3,0.4,0.7,0.4,1.1c0,0.4-0.2,0.8-0.4,1.1l-2.1,2.1
						c-1.6,1.6-1.6,4.1,0,5.7l3,3c-2.3,3.1-2,7.6,0.8,10.4l3.4,3.4l-0.4,0.4c-0.5,0.5-0.5,1.3,0,1.8c0.2,0.2,0.6,0.4,0.9,0.4
						s0.6-0.1,0.9-0.4l2.5-2.5l4.3,4.3c0.2,0.2,0.6,0.4,0.9,0.4c0.3,0,0.6-0.1,0.9-0.4c0.5-0.5,0.5-1.3,0-1.8l-4.3-4.3l3.7-3.7
						l4.3,4.3c0.2,0.2,0.6,0.4,0.9,0.4c0.3,0,0.6-0.1,0.9-0.4C1082.6,207,1082.6,206.2,1082.1,205.7L1082.1,205.7z M1082.1,205.7"/>
				</g>
			</g>
		</g>
		<g>
			<g>
				<text transform="matrix(1 0 0 1 1100.208 419.7656)" class="st1 st2 st12 st13">優化的保修和零配件管理</text>
			</g>
			<g>
				<g>
					<path class="st1" d="M1083.5,429.6c-0.1-0.5-0.5-0.9-1.1-0.9l-2.8-0.4c-0.1-0.4-0.1-0.2-0.3-0.6l1.7-2.2c0.3-0.4,0.3-1,0.1-1.5
						c0-0.1-0.7-1.2-2.3-2.8s-2.7-2.3-2.8-2.3c-0.5-0.3-1.1-0.3-1.5,0.1l-2.2,1.7c-0.4-0.2-0.2-0.1-0.6-0.3l-0.4-2.8
						c-0.1-0.5-0.4-0.9-0.9-1.1c-0.1,0-1.4-0.4-3.6-0.4c-2.2,0-3.6,0.4-3.6,0.4c-0.5,0.1-0.9,0.5-0.9,1.1l-0.4,2.8
						c-0.4,0.1-0.2,0.1-0.6,0.3l-2.2-1.7c-0.4-0.3-1-0.3-1.5-0.1c-0.1,0-1.2,0.7-2.8,2.3s-2.3,2.7-2.3,2.8c-0.3,0.5-0.3,1.1,0.1,1.5
						l1.7,2.2c-0.2,0.4-0.1,0.3-0.3,0.7l-2.8,0.3c-0.5,0.1-0.9,0.4-1.1,0.9c0,0.1-0.4,1.4-0.4,3.6c0,2.2,0.4,3.6,0.4,3.6
						c0.1,0.5,0.5,0.9,1.1,0.9l2.8,0.4c0.1,0.4,0.1,0.2,0.3,0.6l-1.7,2.2c-0.3,0.4-0.3,1-0.1,1.5c0,0.1,0.7,1.2,2.3,2.8
						s2.7,2.3,2.8,2.3c0.5,0.3,1.1,0.3,1.5-0.1l2.2-1.7c0.4,0.2,0.3,0.1,0.7,0.3l0.3,2.8c0.1,0.5,0.4,0.9,0.9,1.1
						c0.1,0,1.4,0.4,3.6,0.4c2.2,0,3.6-0.4,3.6-0.4c0.5-0.1,0.9-0.5,0.9-1.1l0.4-2.8c0.4-0.1,0.2-0.1,0.6-0.3l2.2,1.7
						c0.4,0.3,1,0.3,1.5,0.1c0.1,0,1.2-0.7,2.8-2.3s2.3-2.7,2.3-2.8c0.3-0.5,0.3-1.1-0.1-1.5l-1.7-2.2c0.2-0.4,0.1-0.2,0.3-0.6
						l2.8-0.4c0.5-0.1,0.9-0.4,1.1-0.9c0-0.1,0.4-1.4,0.4-3.6C1083.9,431,1083.5,429.7,1083.5,429.6L1083.5,429.6z M1081.2,435.4
						l-2.6,0.3c-0.5,0.1-0.9,0.4-1.1,0.9c-0.4,1.1-0.3,0.8-0.7,1.8c-0.2,0.5-0.1,1,0.1,1.4l1.6,2c-0.3,0.4-0.8,1-1.5,1.6
						s-1.2,1.1-1.6,1.5l-2.1-1.6c-0.4-0.3-0.9-0.3-1.4-0.1c-1.1,0.5-0.6,0.3-1.8,0.7c-0.5,0.1-0.8,0.6-0.9,1.1l-0.3,2.6
						c-0.5,0.1-1.3,0.1-2.2,0.1c-0.9,0-1.6-0.1-2.2-0.1l-0.3-2.6c-0.1-0.5-0.4-0.9-0.9-1.1c-1.1-0.4-0.8-0.3-1.8-0.7
						c-0.5-0.2-0.9-0.1-1.3,0.1l-2.1,1.6c-0.4-0.3-1-0.8-1.6-1.5s-1.1-1.2-1.4-1.6l1.6-2.1c0.3-0.4,0.3-0.9,0.1-1.4
						c-0.5-1-0.3-0.7-0.7-1.8c-0.1-0.5-0.6-0.8-1.1-0.9l-2.6-0.3c-0.1-0.5-0.1-1.3-0.1-2.2c0-0.9,0.1-1.6,0.1-2.2l2.6-0.3
						c0.5-0.1,0.9-0.4,1.1-0.9c0.1-0.5,0.3-0.9,0.3-0.9c0,0,0.2-0.5,0.4-0.9c0.2-0.5,0.1-0.9-0.1-1.3l-1.6-2.1
						c0.3-0.4,0.7-1,1.4-1.6s1.3-1.1,1.6-1.4l2.1,1.6c0.4,0.3,0.9,0.3,1.3,0.1c1-0.5,0.7-0.3,1.8-0.7c0.5-0.1,0.8-0.6,0.9-1.1
						l0.3-2.6c0.5-0.1,1.3-0.1,2.2-0.1c0.9,0,1.6,0.1,2.2,0.1l0.3,2.6c0.1,0.5,0.4,0.9,0.9,1.1c1.1,0.4,0.8,0.3,1.8,0.7
						c0.5,0.2,1,0.1,1.4-0.1l2.1-1.6c0.4,0.3,0.9,0.7,1.6,1.4s1.1,1.3,1.5,1.6l-1.6,2.1c-0.3,0.4-0.3,0.9-0.1,1.3
						c0.5,1.1,0.4,0.6,0.8,1.8c0.1,0.5,0.5,0.8,1,0.9l2.6,0.3c0.1,0.5,0.1,1.3,0.1,2.2C1081.4,434.1,1081.3,434.9,1081.2,435.4
						L1081.2,435.4z M1081.2,435.4"/>
				</g>
				<path class="st1" d="M1066.9,425.1c-4.5,0-8.1,3.6-8.1,8.1c0,4.5,3.6,8.1,8.1,8.1c4.5,0,8.1-3.6,8.1-8.1
					C1075,428.7,1071.4,425.1,1066.9,425.1L1066.9,425.1z M1066.9,438.8c-3.1,0-5.5-2.4-5.5-5.5c0-3.1,2.4-5.5,5.5-5.5
					c3.1,0,5.5,2.4,5.5,5.5C1072.4,436.3,1070,438.8,1066.9,438.8L1066.9,438.8z M1066.9,438.8"/>
			</g>
		</g>
		<g>
			<g>
				<text transform="matrix(1 0 0 1 1100.208 537.0547)" class="st1 st2 st12 st13">基準測試</text>
			</g>
			<g>
				<circle class="st1" cx="1068.9" cy="561.9" r="1"/>
				<circle class="st1" cx="1062.9" cy="553.9" r="1"/>
				<circle class="st1" cx="1074.9" cy="559.9" r="1"/>
				<path class="st1" d="M1081,558.3l-9.1-14.6v-5c1.2-0.4,2-1.5,2-2.8c0-1.7-1.3-3-3-3h-8c-1.7,0-3,1.3-3,3c0,1.3,0.8,2.4,2,2.8v5
					c-0.2,0.4-8.8,14.1-9.1,14.6c-2.4,3.8,0.4,8.6,4.8,8.6h18.6C1080.6,566.9,1083.4,562,1081,558.3z M1063.8,544.5
					c0.1-0.2,0.2-0.3,0.2-0.5v-6.1c0-0.6-0.4-1-1-1c-0.6,0-1-0.4-1-1c0-0.6,0.4-1,1-1h8c0.6,0,1,0.4,1,1c0,0.6-0.4,1-1,1
					c-0.6,0-1,0.4-1,1v6.1c0,0.2,0.1,0.4,0.2,0.5l2.5,4c-2.1-0.5-4.4-0.3-6.4,0.7c-1.7,0.9-3.8,1-5.6,0.4L1063.8,544.5z
					 M1076.2,564.9h-18.6c-2.9,0-4.6-3.2-3.1-5.6l5-8c2.4,1,5.2,0.8,7.6-0.3c2.2-1.1,5-1.1,7.4,0.5l4.9,7.8
					C1080.8,561.7,1079.1,564.9,1076.2,564.9z"/>
				<path class="st1" d="M1062.9,556.9c-1.7,0-3,1.3-3,3c0,1.7,1.3,3,3,3s3-1.3,3-3C1065.9,558.3,1064.6,556.9,1062.9,556.9z
					 M1062.9,560.9c-0.6,0-1-0.4-1-1c0-0.6,0.4-1,1-1s1,0.4,1,1C1063.9,560.5,1063.5,560.9,1062.9,560.9z"/>
				<path class="st1" d="M1070.9,552.9c-1.7,0-3,1.3-3,3c0,1.7,1.3,3,3,3s3-1.3,3-3C1073.9,554.3,1072.5,552.9,1070.9,552.9z
					 M1070.9,556.9c-0.6,0-1-0.4-1-1c0-0.6,0.4-1,1-1s1,0.4,1,1C1071.9,556.5,1071.4,556.9,1070.9,556.9z"/>
			</g>
		</g>
		<g>
			<g>
				<text transform="matrix(1 0 0 1 1101.1533 654.3428)" class="st1 st2 st12 st13">設計改進</text>
			</g>
			<g>
				<g>
					<path class="st1" d="M1075.2,654.2c-2.1-2.4-5.2-3.8-8.3-3.8c-3.2,0-6.2,1.4-8.3,3.8c-1.8,2-2.8,4.6-2.7,7.3
						c0,2.7,1,5.3,2.8,7.3c0.3,0.3,0.6,0.6,0.9,0.9c1.2,1,1.7,2,1.7,3.3l0,1.3c0,0.7,0.6,1.3,1.2,1.3h0c0.7,0,1.2-0.6,1.3-1.2l0-1.3
						v0c0-2-0.8-3.7-2.5-5.2c-0.3-0.2-0.5-0.5-0.7-0.7c-2.9-3.2-2.9-8.1,0-11.4c1.6-1.9,4-2.9,6.5-2.9c2.5,0,4.8,1.1,6.5,2.9
						c2.9,3.2,2.8,8.1,0,11.3c-0.2,0.3-0.5,0.5-0.7,0.7c-1.7,1.5-2.5,3.1-2.5,5.2l0,1.4c0,0.7,0.6,1.3,1.2,1.3h0
						c0.7,0,1.2-0.6,1.3-1.2l0-1.4c0,0,0,0,0,0c0-1.3,0.5-2.3,1.6-3.3c0.3-0.3,0.6-0.6,0.9-1c1.8-2,2.7-4.6,2.7-7.3
						C1078,658.8,1077,656.2,1075.2,654.2L1075.2,654.2z M1075.2,654.2"/>
				</g>
				<path class="st1" d="M1071.4,677.8h-8.9c-0.7,0-1.3,0.6-1.3,1.3c0,0.7,0.6,1.3,1.3,1.3h9c0.7,0,1.2-0.6,1.2-1.3
					C1072.6,678.4,1072.1,677.8,1071.4,677.8L1071.4,677.8z M1071.4,677.8"/>
				<path class="st1" d="M1069.3,682h-4.8c-0.7,0-1.3,0.6-1.3,1.3c0,0.7,0.6,1.3,1.3,1.3h4.8c0.7,0,1.3-0.6,1.3-1.3
					C1070.6,682.6,1070,682,1069.3,682L1069.3,682z M1069.3,682"/>
				<path class="st1" d="M1067.8,665.2l-3.5-3.5c-0.5-0.5-1.3-0.5-1.8,0c-0.5,0.5-0.5,1.3,0,1.8l3.1,3.1v7.9c0,0.7,0.6,1.3,1.3,1.3
					c0.7,0,1.3-0.6,1.3-1.3v-8.3C1068.2,665.7,1068,665.4,1067.8,665.2L1067.8,665.2z M1067.8,665.2"/>
				<path class="st1" d="M1071.3,661.7c-0.5-0.5-1.3-0.5-1.8,0l-0.7,0.7c-0.5,0.5-0.5,1.3,0,1.8c0.2,0.2,0.6,0.4,0.9,0.4
					s0.6-0.1,0.9-0.4l0.7-0.7C1071.7,663,1071.7,662.2,1071.3,661.7L1071.3,661.7z M1071.3,661.7"/>
			</g>
		</g>
		<g>
			<g>
				<text transform="matrix(1 0 0 1 125.4766 265.2065)" class="st1 st2 st12 st13">業務資料</text>
			</g>
			<g>
				<g>
					<path class="st1" d="M104.7,267.6v-2.4c0-1.6-1.3-2.9-2.9-2.9H87.2v-1c0-1.4-1.2-2.6-2.6-2.6H74.4c-0.7,0-1.3,0.6-1.3,1.3v25.5
						c0,0.7,0.6,1.3,1.3,1.3c0.7,0,1.3-0.6,1.3-1.3v-24.2h9c0,0,0.1,0,0.1,0.1v2.3c0,0.7,0.6,1.3,1.3,1.3h15.9
						c0.2,0,0.4,0.2,0.4,0.4v3.7c0,0.7,0.6,1.3,1.3,1.3h0.8c0.2,0,0.4,0.2,0.4,0.4v13.6H81v-13.6c0-0.2,0.2-0.4,0.4-0.4h16.6
						c0.7,0,1.3-0.6,1.3-1.3c0-0.7-0.6-1.3-1.3-1.3H81.4c-1.6,0-2.9,1.3-2.9,2.9v14.9c0,0.7,0.6,1.3,1.3,1.3h26.2
						c0.7,0,1.3-0.6,1.3-1.3v-14.9C107.2,269,106.1,267.8,104.7,267.6L104.7,267.6z M104.7,267.6"/>
				</g>
			</g>
		</g>
		<g>
			<g>
				<text transform="matrix(1 0 0 1 125.4766 469.2578)" class="st1 st2 st12 st13">協力廠商數據</text>
			</g>
			<path class="st1" d="M106.6,479.5l-9.3-9.3c-0.4-0.4-1.1-0.4-1.6,0l-4.5,4.5c-0.4,0.4-0.4,1.1,0,1.6l0.8,0.8l-2.4,0.2
				c-0.3,0-0.5,0.1-0.8,0.2c-0.2-0.1-0.5-0.1-0.8-0.2l-2.4-0.2l0.8-0.8c0.4-0.4,0.4-1.1,0-1.6l-4.5-4.5c-0.4-0.4-1.1-0.4-1.6,0
				l-9.3,9.3c-0.4,0.4-0.4,1.1,0,1.6l4.5,4.5c0.4,0.4,1.1,0.4,1.6,0l1-1l0.2,2.4c0.1,0.8,0.4,1.5,1,2.1l6.7,6.7
				c1.8,1.8,3.8,1.7,5,0.4c0.6-0.6,7.1-7.1,7.1-7.1c0.6-0.6,0.9-1.3,1-2.1l0.2-2.4l1,1c0.4,0.4,1.1,0.4,1.6,0l4.5-4.5
				C107,480.6,107,479.9,106.6,479.5z M76.6,483.2l-2.9-2.9l7.7-7.7l2.9,2.9C75,484.8,77.3,482.4,76.6,483.2z M87.8,494.1l-6.7-6.7
				c-0.2-0.2-0.3-0.4-0.3-0.7l-0.4-4.2c0.5-0.5,2.6-2.6,3.3-3.3l4.2,0.4c0.3,0,0.5,0.1,0.7,0.3c1.6,1.6,6.7,6.7,7.1,7.1
				c0.4,0.4,0.4,1.1,0,1.5l0,0c-0.4,0.4-1.1,0.4-1.5,0c0,0,0,0,0,0l-1.8-1.8c-0.4-0.4-1.1-0.4-1.6,0c-0.4,0.4-0.4,1.1,0,1.6l1.8,1.8
				c0,0,0,0,0,0c0.4,0.4,0.4,1.1,0,1.5c-0.4,0.4-1.1,0.4-1.5,0c0,0,0,0,0,0l-1.8-1.8c-0.4-0.4-1.1-0.4-1.6,0c-0.4,0.4-0.4,1.1,0,1.6
				l1.8,1.8c0,0,0,0,0,0c0.4,0.4,0.4,1.1,0,1.5c-0.2,0.2-0.6,0.4-0.9,0.3C88.3,494.7,88.2,494.5,87.8,494.1z M97.4,482.5l-0.2,2.8
				c-0.3-0.3-4.2-4.2-5.9-5.9l2.8-0.2C94.9,480,97.2,482.3,97.4,482.5z M101.3,483.2c-1-1-7.5-7.5-7.7-7.7l2.9-2.9l7.7,7.7
				L101.3,483.2z"/>
		</g>
		<g>
			<g>
				<text transform="matrix(1 0 0 1 125.4766 592.1787)" class="st1 st2 st12">SAP Leonardo Edge</text>
			</g>
			<g>
				<path class="st1" d="M76.9,612.6h10.9v10.9H76.9V612.6z M91.2,623.5h10.9v-10.9H91.2V623.5z M77.1,609.3H88v-10.9H77.1V609.3z
					 M100.9,597.2l-3.8-5.9l-5.9,3.8L95,601L100.9,597.2z M93,606.1l5.2,4.6l4.6-5.2l-5.2-4.6L93,606.1z M107.2,594.6l-5.9,3.7
					l3.7,6l5.9-3.7L107.2,594.6z M107.2,594.6"/>
			</g>
		</g>
		<g>
			<g>
				<text transform="matrix(1 0 0 1 125.4766 122.8945)" class="st1 st2 st12 st13">傳感數據</text>
			</g>
			<g>
				<path class="st1" d="M102.2,123.8L102.2,123.8L102.2,123.8c-0.3-3.7-3.5-6.6-7.2-6.6c-1,0-2,0.2-2.9,0.6l-0.1,0l0-0.1
					c-1.9-3.1-5.2-4.9-8.8-4.9c-5.7,0-10.3,4.6-10.3,10.2c0,1,0.1,2,0.4,2.9l0,0l0,0c-0.8,1.1-1.2,2.4-1.2,3.7
					c0,3.6,2.9,6.5,6.5,6.5h4.8c0.7,0,1.3-0.6,1.3-1.3s-0.6-1.3-1.3-1.3h-4.8c-2.1,0-3.9-1.7-3.9-3.8c0-0.9,0.4-1.9,1-2.6
					c0.4-0.4,0.5-0.9,0.3-1.4c-0.4-0.9-0.5-1.8-0.5-2.7c0-4.2,3.4-7.5,7.7-7.5c3,0,5.8,1.8,7.1,4.7c0.2,0.4,0.5,0.7,0.8,0.8
					c0.5,0.1,0.9,0,1.2-0.2c0.9-0.6,1.8-0.9,2.7-0.9c1.2,0,2.4,0.5,3.2,1.3c0.8,0.8,1.3,1.9,1.2,3.1c0,1,0.3,1.6,1,1.8
					c1.8,0.5,3,2,3,3.7c0,2.1-1.7,3.8-3.9,3.8H94c-0.7,0-1.3,0.6-1.3,1.3s0.6,1.3,1.3,1.3h5.7c3.6,0,6.5-2.9,6.5-6.5
					C106.3,127.2,104.7,124.8,102.2,123.8z"/>
				<path class="st1" d="M88.7,132c-0.7,0-1.3,0.6-1.3,1.3v4.9h-8.1c-2.4,0-4.3,2-4.3,4.3s2,4.3,4.3,4.3h18.8c2.4,0,4.3-2,4.3-4.3
					c0-2.4-2-4.3-4.3-4.3H90v-4.9C90,132.6,89.5,132,88.7,132z M98.1,141c0.9,0,1.7,0.8,1.7,1.7c0,0.9-0.8,1.7-1.7,1.7H79.3
					c-0.9,0-1.7-0.8-1.7-1.7c0-0.9,0.8-1.7,1.7-1.7H98.1z"/>
				<path class="st1" d="M88.7,127.4c-1.1,0-2.2,0.4-3.1,1.2c-0.3,0.2-0.4,0.6-0.4,0.9c0,0.4,0.1,0.7,0.4,1c0.2,0.3,0.6,0.4,0.9,0.4
					c0,0,0,0,0,0c0.3,0,0.7-0.1,0.9-0.4c0.7-0.7,1.8-0.7,2.5,0c0.2,0.2,0.5,0.4,0.9,0.4c0,0,0,0,0,0c0.5,0,0.9-0.2,1-0.4
					c0.2-0.3,0.4-0.6,0.4-0.9c0-0.4-0.1-0.7-0.4-0.9C91,127.8,89.8,127.4,88.7,127.4z"/>
				<path class="st1" d="M95,127.5c0.5-0.5,0.5-1.4,0-1.9c-3.4-3.3-9-3.3-12.4,0c-0.5,0.5-0.5,1.4,0,1.9c0.5,0.5,1.4,0.5,1.9,0
					c2.4-2.3,6.3-2.3,8.7,0h0C93.9,128.3,94.7,127.8,95,127.5z"/>
			</g>
		</g>
	</g>
</g>
</svg>
